<svg width="500" height="500" viewBox="0 0 500 500" fill="none" xmlns="http://www.w3.org/2000/svg">
<path d="M296.814 145.414C296.814 145.414 284.563 143.753 281.241 155.381C277.918 167.011 270.997 207.435 267.12 221.557C267.12 221.557 281.597 228.48 288.065 203.006C294.531 177.532 296.814 145.414 296.814 145.414Z" fill="#F47D5B"/>
<path d="M296.813 290.82C296.813 290.82 283.125 322.97 281.83 338.598C280.535 354.226 296.813 452.855 296.813 452.855H369.566C369.566 452.855 377.098 363.539 377.024 351.069C376.95 338.598 366.542 290.821 366.542 290.821L296.813 290.82Z" fill="#272C40"/>
<path d="M330.594 452.854V337.913" stroke="#101528" stroke-miterlimit="10"/>
<path d="M344.347 340.913C336.04 340.004 327.911 337.489 320.543 333.548" stroke="#101528" stroke-miterlimit="10"/>
<path d="M293.874 298.054H368.08" stroke="#101528" stroke-miterlimit="10"/>
<path d="M359.597 290.82C359.597 290.82 368.457 335.354 370.303 344.769C372.149 354.185 364.95 452.854 364.95 452.854" stroke="#101528" stroke-miterlimit="10"/>
<path d="M303.483 290.82C303.483 290.82 290.679 329.136 289.328 337.23C287.977 345.324 302.006 452.854 302.006 452.854" stroke="#101528" stroke-miterlimit="10"/>
<path d="M311.974 290.82C311.974 290.82 307.167 316.641 294.804 317.692" stroke="#101528" stroke-miterlimit="10"/>
<path d="M350.368 290.82C350.368 290.82 353.3 317.748 364.939 317.692" stroke="#101528" stroke-miterlimit="10"/>
<path d="M157.938 353.536L168.629 452.854H216.027L221.384 351.996L157.938 353.536Z" fill="#F47D5B"/>
<path d="M194.488 353.536L191.087 452.854H239.833L251.681 350.261L194.488 353.536Z" fill="#FB9773"/>
<path d="M163.532 297.847C163.532 297.847 149.767 361.58 148.854 407.493L257.113 408.671C257.113 408.671 258.74 338.598 242.852 297.847H163.532Z" fill="#272C40"/>
<path d="M149.155 398.98H257.139" stroke="#101528" stroke-miterlimit="10"/>
<path d="M168.67 297.847C168.67 297.847 160.41 371.481 158.993 398.98" stroke="#101528" stroke-miterlimit="10"/>
<path d="M236.928 298.054C236.928 298.054 251.021 356.954 251.681 398.98" stroke="#101528" stroke-miterlimit="10"/>
<path d="M200.086 298.054C200.086 298.054 201.361 359.03 202.636 398.98" stroke="#101528" stroke-miterlimit="10"/>
<path d="M163.142 303.865H245.108" stroke="#101528" stroke-miterlimit="10"/>
<path d="M213.087 58.8657C216.944 55.437 220.851 53.4492 224.948 53.4361C229.784 53.4208 245.303 71.0882 245.767 78.4293C245.994 82.0148 245.342 85.595 245.277 89.186C245.211 92.777 245.831 96.5957 248.186 99.3073C250.94 102.479 255.678 103.699 257.748 107.354C259.358 110.195 258.877 113.788 257.668 116.822C256.46 119.856 254.594 122.597 253.422 125.645C252.791 127.288 252.371 129.128 252.941 130.794C253.392 132.115 254.41 133.156 255.453 134.083C259.645 137.807 265.137 141.029 266.248 146.527C267.128 150.887 264.825 155.289 261.923 158.66C252.302 169.832 236.636 173.418 221.976 174.987C201.858 177.139 180.837 176.557 162.359 168.315C158.371 166.536 154.251 164.104 152.636 160.048C150.848 155.561 152.746 150.319 155.917 146.678C157.047 145.38 158.353 144.191 159.117 142.649C159.881 141.107 159.955 139.047 158.734 137.834C157.347 136.455 155.031 136.751 153.267 135.908C150.287 134.485 149.838 130.161 151.408 127.256C152.98 124.352 155.89 122.476 158.545 120.512C161.2 118.548 163.86 116.121 164.48 112.877C165.524 107.415 160.503 102.822 158.765 97.5395C156.401 90.3564 160.337 82.696 164.725 76.5362C172.551 65.5474 187.046 48 199.372 48C205.145 48 210.78 55.8697 213.087 58.8657Z" fill="#272C3F"/>
<path d="M181.788 225.941C180.609 250.211 178.909 269.699 178.909 269.699L157.019 266.275C157.019 266.275 171.881 226.712 166.212 160.678C164.955 146.028 178.909 139.683 178.909 139.683C183.919 155.474 183.285 194.675 181.788 225.941Z" fill="#F47D5B"/>
<path d="M233.262 141.766C233.262 141.766 244.628 143.987 244.998 158.693C246.954 236.206 264.598 262.919 264.598 262.919L233.262 271.771C233.262 271.771 224.367 169.821 233.262 141.766Z" fill="#F47D5B"/>
<path d="M242.851 297.847C239.616 266.109 240.181 217.737 240.181 217.737C240.181 217.737 250.761 211.314 250.761 197.899C250.761 188.645 231.111 161.813 231.111 161.813L233.248 141.579L221.903 137.813H191.425L178.909 139.689L179.342 163.891C179.342 163.891 163.596 189.238 163.596 197.166C163.596 209.636 174.995 215.625 174.995 215.625C174.995 215.625 172.317 255.704 163.53 297.848L242.851 297.847Z" fill="#EB5757"/>
<path d="M181.059 218.738C186.752 219.42 192.571 219.029 198.122 217.594C201.467 216.728 204.737 215.483 208.174 215.119C212.606 214.649 217.045 215.67 221.386 216.684C225.323 217.603 229.262 218.524 233.2 219.444" stroke="#101528" stroke-miterlimit="10"/>
<path d="M121.34 287.644L161.468 236.207" stroke="#272C3F" stroke-miterlimit="10" stroke-linecap="round" stroke-linejoin="round"/>
<path d="M161.474 380.047L179.733 381.647L188.025 287.025L169.766 285.425L161.474 380.047Z" fill="#AFAFAF"/>
<path d="M104.566 375.064L161.473 380.051L169.765 285.428L112.858 280.441L104.566 375.064Z" fill="white"/>
<path d="M179.726 381.658L172.043 364.348L161.467 380.059L179.726 381.658Z" fill="#CECECE"/>
<path d="M113.517 162.385C113.517 162.385 116.196 161.556 117.898 162.53C119.194 163.271 118.354 171.46 118.354 171.46C118.354 171.46 129.376 171.971 131.673 176.641C134.009 181.388 145.112 213.245 155.495 227.557C165.878 241.869 176.755 260.218 176.771 272.871C176.781 279.906 151.457 282.499 143.461 258.283C133.03 226.694 119.934 183.08 119.934 183.08C119.934 183.08 103.825 180.988 102.212 180.205C98.8629 178.578 94.8 172.241 94.0545 170.375C93.3091 168.51 98.2341 156.975 100.578 153.496C100.578 153.496 105.15 154.61 101.975 162.53C101.975 162.53 103.587 159.053 106.233 159.036C108.88 159.018 109.039 161.755 109.039 161.755C109.039 161.755 112.304 159.101 113.517 162.385Z" fill="#FB9773"/>
<path d="M159.355 290.289L167.708 246.485" stroke="#272C3F" stroke-miterlimit="10" stroke-linecap="round" stroke-linejoin="round"/>
<path d="M130.915 368.503L148.857 372.251L168.754 277.009L150.812 273.261L130.915 368.503Z" fill="#E09E4F"/>
<path d="M74.9996 356.823L130.918 368.505L150.815 273.263L94.8964 261.581L74.9996 356.823Z" fill="#FEB159"/>
<path d="M148.854 372.263L143.355 353.771L130.912 368.515L148.854 372.263Z" fill="#C78B45"/>
<path d="M290.158 391.241L308.476 390.6L305.151 295.673L286.833 296.315L290.158 391.241Z" fill="#385A7A"/>
<path d="M233.069 393.239L290.158 391.239L286.834 296.313L229.744 298.312L233.069 393.239Z" fill="#426A90"/>
<path d="M308.492 390.592L298.753 374.349L290.174 391.233L308.492 390.592Z" fill="#2B445C"/>
<path d="M105.323 271.839L139.384 247.151" stroke="#272C3F" stroke-miterlimit="10" stroke-linecap="round" stroke-linejoin="round"/>
<path d="M139.733 277.678L164.781 241.457" stroke="#272C3F" stroke-miterlimit="10" stroke-linecap="round" stroke-linejoin="round"/>
<path d="M264.598 262.919C261.713 252.832 241.567 257.985 227.393 262.851C207.448 269.699 196.863 274.018 172.447 282.967C168.337 282.828 162.643 284.76 160.544 285.093C158.599 289.074 157.697 293.311 157.994 297.846C158.702 300.396 171.147 304.883 172.731 303.656C174.742 302.097 176.58 298.821 177.381 296.141C175.51 294.704 172.288 295.555 171.194 297.814C170.636 297.571 167.621 296.247 167.063 296.004C167.063 296.004 166.296 291.987 176.147 290.657C183.626 289.647 230.54 283.015 243.199 280.465C255.856 277.914 265.701 266.777 264.598 262.919Z" fill="#FB9773"/>
<path d="M277.788 300.469L244.305 258.138" stroke="#272C3F" stroke-miterlimit="10" stroke-linecap="round" stroke-linejoin="round"/>
<path d="M236.927 259.885L240.683 303.053" stroke="#272C3F" stroke-miterlimit="10" stroke-linecap="round" stroke-linejoin="round"/>
<path d="M262.954 384.449L281.206 382.781L272.352 285.895L254.1 287.562L262.954 384.449Z" fill="#A4D6EB"/>
<path d="M206.066 389.65L262.95 384.451L254.096 287.565L197.213 292.763L206.066 389.65Z" fill="#C4E0EB"/>
<path d="M281.182 382.774L270.511 366.702L262.93 384.443L281.182 382.774Z" fill="#9DC0CF"/>
<path d="M211.31 298.054L214.608 267.344" stroke="#272C3F" stroke-miterlimit="10" stroke-linecap="round" stroke-linejoin="round"/>
<path d="M225.141 263.627L242.899 294.378" stroke="#272C3F" stroke-miterlimit="10" stroke-linecap="round" stroke-linejoin="round"/>
<path d="M193.419 111.84L191.426 137.812L191.03 149.566C191.267 151.518 192.923 152.986 194.889 152.986L217.274 153.496C219.222 153.496 220.869 152.054 221.126 150.123L221.905 137.812L219.815 112.595L193.419 111.84Z" fill="#FB9773"/>
<path d="M193.418 111.84L192.202 127.683C192.202 127.683 199.045 141.766 206.278 141.766C212.626 141.766 221.124 128.415 221.124 128.415L219.813 112.595L193.418 111.84Z" fill="#F47D5B"/>
<path d="M185.168 93.069C185.168 93.069 177.526 91.2839 176.942 97.9777C176.359 104.673 185.58 103.734 185.58 103.734L185.168 93.069Z" fill="#FB9773"/>
<path d="M231.457 93.7742C231.457 93.7742 239.188 92.4228 239.392 99.1394C239.597 105.856 230.442 104.399 230.442 104.399L231.457 93.7742Z" fill="#FB9773"/>
<path d="M232.013 96.9074C231.608 111.459 216.339 133.138 207.374 133.134C195.743 133.128 184.107 110.354 184.446 95.8013C184.665 86.3796 182.422 85.1013 186.238 76.0567C187.812 72.3273 223.209 73.1992 226.321 74.6061C233.05 77.6479 232.497 79.578 232.013 96.9074Z" fill="#FB9773"/>
<path d="M205.556 93.3775C205.604 94.4226 200.686 95.5386 197.75 95.6977C194.814 95.8568 193.765 95.0645 193.717 94.0205C193.669 92.9753 197.219 91.9345 200.154 91.7754C203.09 91.6141 205.508 92.3323 205.556 93.3775Z" fill="#272C3F"/>
<path d="M204.909 100.643C205 102.619 204.424 104.255 203.623 104.299C202.823 104.342 202.101 102.776 202.01 100.8C201.92 98.8245 202.495 97.1886 203.296 97.145C204.097 97.1014 204.819 98.6675 204.909 100.643Z" fill="#2C1817"/>
<path d="M215.841 92.8195C215.889 93.8646 220.884 94.4422 223.819 94.2831C226.755 94.124 227.726 93.2216 227.679 92.1776C227.631 91.1324 224.005 90.4807 221.07 90.6398C218.134 90.7989 215.793 91.7743 215.841 92.8195Z" fill="#272C3F"/>
<path d="M216.483 100.016C216.573 101.992 217.295 103.558 218.096 103.514C218.897 103.47 219.472 101.833 219.382 99.8587C219.292 97.8828 218.569 96.3167 217.769 96.3603C216.968 96.4028 216.393 98.0398 216.483 100.016Z" fill="#2C1817"/>
<path d="M209.746 96.769L212.9 111.157C212.9 111.157 210.275 111.923 208.497 111.259" stroke="#1F1F1F" stroke-width="0.5" stroke-miterlimit="10"/>
<path d="M237.127 98.673C236.14 98.4027 235.055 98.7187 234.236 99.3312C233.415 99.9437 232.831 100.822 232.381 101.741" stroke="#1F1F1F" stroke-width="0.5" stroke-miterlimit="10"/>
<path d="M179.949 97.7619C180.95 97.5483 182.014 97.9254 182.799 98.5825C183.584 99.2397 184.118 100.15 184.516 101.094" stroke="#1F1F1F" stroke-width="0.5" stroke-miterlimit="10"/>
<path d="M184.439 92.9459C176.845 92.9982 176.359 72.5224 177.094 69.6245C178.411 64.4412 182.024 61.2186 185.576 59.0313C187.963 57.5611 190.48 56.3612 193.079 56.2239C195.678 56.0866 198.388 57.1121 200.3 59.622C209.841 72.1387 189.884 92.9088 184.439 92.9459Z" fill="#272C3F"/>
<path d="M232.108 93.663C233.27 93.408 241.996 75.2906 234.317 68.3701C221.956 57.2287 187.735 53.5647 192.224 65.5202C196.337 76.4709 221.642 95.9658 232.108 93.663Z" fill="#272C3F"/>
<path d="M214.174 117.041L205.024 117.157C205.024 117.157 207.571 128.585 209.624 128.927C211.676 129.27 214.174 117.041 214.174 117.041Z" fill="#FBF8CF"/>
<path d="M216.092 111.523C216.148 113.393 218.845 114.83 222.114 114.731C225.384 114.631 227.987 113.035 227.931 111.164C227.874 109.293 225.178 107.857 221.908 107.956C218.64 108.056 216.035 109.653 216.092 111.523Z" fill="#E6855E"/>
<path d="M191.245 112.278C191.302 114.149 193.998 115.585 197.267 115.486C200.537 115.387 203.141 113.79 203.084 111.919C203.027 110.049 200.331 108.612 197.061 108.711C193.793 108.811 191.188 110.407 191.245 112.278Z" fill="#E6855E"/>
<path d="M178.847 77.4844C178.847 77.4844 178.847 67.471 187.529 58.846C193.63 52.7855 218.872 51.688 229.431 59.9533C236.124 65.1921 236.07 77.4844 236.07 77.4844C236.07 77.4844 229.285 61.6556 206.466 61.9325C184.516 62.1995 178.847 77.4844 178.847 77.4844Z" fill="#EB5757"/>
<path d="M407.776 366.702L383.411 338.597L371.781 370.52" stroke="#101528" stroke-miterlimit="10"/>
<path d="M405.854 452.854H424.218L418.522 361.222L400.228 362.36L405.854 452.854Z" fill="#E09E4F"/>
<path d="M348.621 452.854H405.854L400.227 362.36L343.214 365.905L348.621 452.854Z" fill="#FEB159"/>
<path d="M424.217 452.854L414.357 441.954L405.854 452.854H424.217Z" fill="#C78B45"/>
<path d="M354.891 374.349L370.607 341.59L388.948 340.913L393.122 370.797" stroke="#101528" stroke-miterlimit="10"/>
<path d="M373.331 144.441C373.331 144.441 385.901 147.109 386.316 163.043C386.694 177.527 390.239 330.255 390.239 330.255H377.813C377.813 330.255 366.683 200.792 368.079 186.395C366.541 153.497 373.331 144.441 373.331 144.441Z" fill="#FB9773"/>
<path d="M390.24 330.255H377.813C377.813 330.255 370.546 336.301 369.087 338.597C368.499 339.521 368.385 341.106 368.458 342.67C368.578 345.25 370.748 347.262 373.332 347.262C373.396 349.662 374.715 352.753 375.242 352.89C376.049 353.1 377.56 352.293 378.356 352.043C379.85 351.572 381.342 352.998 382.906 352.884C384.344 352.778 385.494 351.393 386.935 351.446C387.765 351.477 388.505 351.987 389.326 352.108C390.566 352.29 392.27 351.492 392.963 350.448C393.656 349.403 391.965 338.146 390.24 330.255Z" fill="#FB9773"/>
<path d="M373.333 144.441C373.333 144.441 373.333 176.053 362.595 227.924C361.69 232.299 366.543 290.819 366.543 290.819H296.814V229.771C297.075 231.501 295.105 206.19 293.147 188.332C291.419 172.582 296.814 145.414 296.814 145.414L303.391 144.86L362.595 143.753L373.333 144.441Z" fill="#FEE5A2"/>
<path d="M296.813 286.348H366.177" stroke="#101528" stroke-miterlimit="10"/>
<path d="M300.115 145.136C300.115 145.136 305.447 186.647 330.647 188.332C354.12 189.9 364.626 154.227 366.543 144.006" stroke="#101528" stroke-miterlimit="10"/>
<path d="M303.18 225.932C311.489 228.676 320.461 224.923 329.21 225.05C331.913 225.089 334.594 225.504 337.265 225.916C342.883 226.783 348.502 227.651 354.12 228.518" stroke="#101528" stroke-miterlimit="10"/>
<path d="M312.564 152.335C312.564 152.335 314.005 129.169 343.081 124.476C343.081 124.476 359.356 125.852 357.954 103.514C356.553 81.1757 339.494 63.455 325.041 67.6083C310.59 71.7617 294.807 81.8285 297.022 112.098C299.237 142.368 312.564 152.335 312.564 152.335Z" fill="#CC4A4B"/>
<path d="M346.05 143.546L342.445 117.242L321.086 117.966L321.274 144.104C321.274 144.104 325.455 162.419 333.744 162.121C342.034 161.825 346.05 143.546 346.05 143.546Z" fill="#FB9773"/>
<path d="M303.391 144.86C303.391 144.86 340.118 142.922 362.595 143.753C362.595 143.753 354.826 183.688 332.993 182.516C307.188 181.132 303.391 144.86 303.391 144.86Z" fill="#FB9773"/>
<path d="M321.086 117.966L321.2 133.84C321.2 133.84 327.699 147.506 333.537 147.101C338.662 146.746 344.598 132.95 344.598 132.95L342.446 117.242L321.086 117.966Z" fill="#F47D5B"/>
<path d="M308.367 93.069C308.367 93.069 300.725 91.2839 300.141 97.9777C299.558 104.673 308.779 103.734 308.779 103.734L308.367 93.069Z" fill="#FB9773"/>
<path d="M354.657 93.7742C354.657 93.7742 362.389 92.4228 362.592 99.1394C362.797 105.856 353.643 104.399 353.643 104.399L354.657 93.7742Z" fill="#FB9773"/>
<path d="M355.213 96.9074C354.808 111.459 339.539 133.138 330.573 133.134C318.943 133.128 307.306 110.354 307.645 95.8013C307.864 86.3796 305.622 85.1013 309.437 76.0567C311.011 72.3273 346.409 73.1992 349.52 74.6061C356.249 77.6479 355.696 79.578 355.213 96.9074Z" fill="#FB9773"/>
<path d="M330.499 94.7855L327.345 109.174C327.345 109.174 329.97 109.94 331.748 109.276" stroke="#1F1F1F" stroke-width="0.5" stroke-miterlimit="10"/>
<path d="M360.328 98.673C359.341 98.4027 358.256 98.7187 357.437 99.3312C356.617 99.9437 356.032 100.822 355.582 101.741" stroke="#1F1F1F" stroke-width="0.5" stroke-miterlimit="10"/>
<path d="M303.149 97.7619C304.15 97.5483 305.215 97.9254 305.999 98.5825C306.784 99.2397 307.318 100.15 307.716 101.094" stroke="#1F1F1F" stroke-width="0.5" stroke-miterlimit="10"/>
<path d="M326.072 115.058L335.221 115.173C335.221 115.173 332.675 126.601 330.622 126.943C328.57 127.287 326.072 115.058 326.072 115.058Z" fill="#FBF8CF"/>
<path d="M324.154 109.54C324.098 111.41 321.401 112.846 318.132 112.747C314.862 112.648 312.259 111.051 312.315 109.181C312.372 107.311 315.068 105.875 318.338 105.974C321.606 106.073 324.211 107.67 324.154 109.54Z" fill="#E6855E"/>
<path d="M349.001 110.295C348.944 112.165 346.248 113.602 342.978 113.502C339.709 113.403 337.105 111.807 337.162 109.935C337.219 108.064 339.915 106.629 343.184 106.728C346.454 106.827 349.059 108.424 349.001 110.295Z" fill="#E6855E"/>
<path d="M335.387 100.357C335.387 100.357 337.409 96.1217 340.321 96.0824C343.234 96.0432 343.298 102.114 343.298 102.114C343.298 102.114 340.027 96.3516 335.387 100.357Z" fill="#2C1817"/>
<path d="M325.042 99.8337C325.042 99.8337 323.019 95.5986 320.107 95.5593C317.195 95.5201 317.131 101.59 317.131 101.59C317.131 101.59 320.401 95.8285 325.042 99.8337Z" fill="#2C1817"/>
<path d="M327.345 82.8377C319.326 86.0745 308.367 93.069 308.78 103.735C309.01 109.679 306.668 140.636 312.564 152.336C303.148 152.336 292.314 152.336 290.377 143.476C289.714 140.444 286.857 102.122 288.639 87.3082C289.652 78.9034 291.482 70.2719 296.381 63.5716C303.4 53.969 316.594 50.0587 327.301 54.4071C329.246 55.1962 331.146 56.262 332.524 57.9142C333.901 59.5664 340.608 77.4844 327.345 82.8377Z" fill="#EC5657"/>
<path d="M334.69 52.6394C334.56 52.743 323.465 62.0502 326.072 73.4466C328.322 83.2791 343.361 84.6838 345.876 89.211C352.579 101.279 350 115.879 343.081 124.477C355.581 126.805 364.104 116.833 365.506 107.204C368.459 86.8995 364.593 77.3972 360.328 69.5482C353.685 57.3192 340.056 48.3335 334.69 52.6394Z" fill="#EC5657"/>
<path d="M332.525 57.9142C332.525 57.9142 346.955 72.3393 342.512 80.9054C330.647 103.781 305.432 95.5604 305.432 95.5604C305.432 95.5604 324.078 90.4731 330.084 82.5358C339.149 70.5531 332.525 57.9142 332.525 57.9142Z" fill="#EC5657"/>
<path d="M304.864 140.051C300.948 147.928 268.222 207.902 264.63 214.452C258.112 226.338 258.095 241.457 263.242 242.877C267.86 244.151 278.547 238.618 281.756 230.693C285.384 221.736 305.805 160.655 308.779 152.335C310.669 147.046 314.54 142.945 309.16 133.409C310.099 130.338 312.782 124.969 311.724 124.267C310.396 123.387 306.829 126.208 306.212 129.74C307.929 123.577 309.252 115.834 307.836 115.157C306.42 114.481 303.808 122.994 303.815 125.798C302.536 121.054 303.455 110.955 302.087 110.194C299.959 109.793 299.601 122.241 299.805 124.349C297.376 120.869 294.21 112.385 293.146 113.473C290.148 116.539 296.423 129.526 304.864 140.051Z" fill="#FB9773"/>
</svg>
