<svg width="500" height="500" viewBox="0 0 500 500" fill="none" xmlns="http://www.w3.org/2000/svg">
<g clip-path="url(#clip0_59_5)">
<path d="M430.154 500H35.7588V376.946C35.7588 364.685 45.6978 354.745 57.9598 354.745H407.954C420.215 354.745 430.155 364.685 430.155 376.946V500H430.154Z" fill="#F5F5F5"/>
<path opacity="0.5" d="M416.413 377.522H283.582V419.254H416.413V377.522Z" fill="#D6D6D6"/>
<path opacity="0.5" d="M416.413 427.373H283.582V469.105H416.413V427.373Z" fill="#D6D6D6"/>
<path opacity="0.5" d="M416.413 477.223H283.582V500H416.413V477.223Z" fill="#D6D6D6"/>
<path d="M355.816 398.388C355.816 401.602 353.211 404.207 349.997 404.207C346.783 404.207 344.178 401.602 344.178 398.388C344.178 395.175 346.783 392.57 349.997 392.57C353.211 392.57 355.816 395.175 355.816 398.388Z" fill="#D6D6D6"/>
<path d="M355.816 448.239C355.816 451.452 353.211 454.057 349.997 454.057C346.783 454.057 344.178 451.452 344.178 448.239C344.178 445.025 346.783 442.421 349.997 442.421C353.211 442.42 355.816 445.025 355.816 448.239Z" fill="#D6D6D6"/>
<path d="M355.489 500C355.698 499.401 355.817 498.759 355.817 498.089C355.817 494.875 353.212 492.27 349.998 492.27C346.785 492.27 344.18 494.875 344.18 498.089C344.18 498.759 344.299 499.4 344.508 500H355.489Z" fill="#D6D6D6"/>
<path opacity="0.5" d="M184.337 377.522H51.5059V419.254H184.337V377.522Z" fill="#D6D6D6"/>
<path opacity="0.5" d="M184.337 427.373H51.5059V469.105H184.337V427.373Z" fill="#D6D6D6"/>
<path opacity="0.5" d="M184.337 477.223H51.5059V500H184.337V477.223Z" fill="#D6D6D6"/>
<path d="M123.74 398.388C123.74 401.602 121.135 404.207 117.922 404.207C114.709 404.207 112.103 401.602 112.103 398.388C112.103 395.175 114.708 392.57 117.922 392.57C121.136 392.57 123.74 395.175 123.74 398.388Z" fill="#D6D6D6"/>
<path d="M123.74 448.239C123.74 451.452 121.135 454.057 117.922 454.057C114.709 454.057 112.103 451.452 112.103 448.239C112.103 445.025 114.708 442.421 117.922 442.421C121.136 442.421 123.74 445.025 123.74 448.239Z" fill="#D6D6D6"/>
<path d="M123.412 500C123.621 499.401 123.74 498.759 123.74 498.089C123.74 494.875 121.135 492.27 117.921 492.27C114.708 492.27 112.103 494.875 112.103 498.089C112.103 498.759 112.222 499.4 112.431 500H123.412Z" fill="#D6D6D6"/>
<path d="M81.2121 282.134H68.3711V354.745H81.2121V282.134Z" fill="#D6D6D6"/>
<path d="M94.0529 297.973H81.2119V354.745H94.0529V297.973Z" fill="#F5F5F5"/>
<path d="M106.893 312.172H94.0518V354.745H106.893V312.172Z" fill="#D6D6D6"/>
<path d="M449.606 296.929H194.389C186.307 296.929 179.755 290.377 179.755 282.295V111.969C179.755 103.887 186.307 97.335 194.389 97.335H449.606C457.688 97.335 464.24 103.887 464.24 111.969V282.295C464.241 290.377 457.689 296.929 449.606 296.929Z" fill="#F5F5F5"/>
<path d="M464.24 124.66V111.969C464.24 103.887 457.688 97.335 449.606 97.335H194.389C186.307 97.335 179.755 103.887 179.755 111.969V124.66H464.24Z" fill="#D6D6D6"/>
<path d="M197.116 112.159C197.116 114.276 195.4 115.993 193.282 115.993C191.165 115.993 189.448 114.277 189.448 112.159C189.448 110.042 191.164 108.325 193.282 108.325C195.4 108.325 197.116 110.041 197.116 112.159Z" fill="#F5F5F5"/>
<path d="M211.103 112.159C211.103 114.276 209.387 115.993 207.269 115.993C205.152 115.993 203.435 114.277 203.435 112.159C203.435 110.042 205.151 108.325 207.269 108.325C209.387 108.325 211.103 110.041 211.103 112.159Z" fill="#F5F5F5"/>
<path d="M225.777 112.159C225.777 114.276 224.061 115.993 221.943 115.993C219.826 115.993 218.109 114.277 218.109 112.159C218.109 110.042 219.825 108.325 221.943 108.325C224.061 108.325 225.777 110.041 225.777 112.159Z" fill="#F5F5F5"/>
<path d="M407.601 115.992H253.994C251.877 115.992 250.16 114.276 250.16 112.158C250.16 110.041 251.876 108.324 253.994 108.324H407.601C409.718 108.324 411.435 110.04 411.435 112.158C411.434 114.276 409.718 115.992 407.601 115.992Z" fill="#F5F5F5"/>
<path d="M231.042 178.49C228.223 175.996 221.095 170.389 210.405 169.012C208.741 168.798 195.879 167.327 184.723 174.974C182.555 176.46 178.461 179.336 175.704 184.605C175.089 185.78 174.356 187.427 173.258 191.943C170.341 203.938 172.266 205.674 170.086 209.767C166.792 215.95 161.735 213.238 154.925 220.51C153.82 221.69 147.02 228.952 147.423 238.108C147.766 245.905 153.033 248.289 151.398 252.63C149.407 257.914 140.958 256.104 136.111 261.955C131.069 268.042 133.447 278.171 134.582 281.369C146.32 314.437 267.65 289.623 278.888 279.382C281.974 276.569 283.015 273.114 283.015 273.114C284.252 269.008 283.468 263.729 280.583 260.161C275.546 253.933 268.282 258.084 263.448 252.63C258.858 247.451 263.852 241.953 259.932 233.522C255.728 224.48 248.391 227.374 243.268 218.848C237.293 208.905 244.603 200.531 238.072 187.663C235.824 183.228 232.919 180.207 231.042 178.49Z" fill="#262626"/>
<path d="M256.488 354.745L267.119 500H218.813L209.412 437.293L199.552 500H148.8L169.896 358.108L256.488 354.745Z" fill="#4450E4"/>
<path d="M209.596 438.523L218.813 500L231.883 499.739L216.367 385.013L209.596 438.523Z" fill="#3849C6"/>
<path d="M192.951 239.734H218.434C234.364 238.851 244.531 242.865 250.456 246.134C282.235 263.662 293.335 315.612 293.335 315.612L258.023 340.147L259.857 359.637C259.857 359.637 190.15 365.14 180.061 365.369C169.972 365.598 166.762 365.369 166.762 365.369L164.469 341.751H125.488C128.909 323.363 135.508 296.302 148.418 270.898C153.374 261.146 158.863 252.417 169.055 246.363C178.168 240.95 187.318 239.885 192.951 239.734Z" fill="#555879"/>
<path d="M259.857 359.637L256.488 288.86C254.828 296.747 248.49 321.949 224.927 342.057C200.583 362.832 173.667 364.675 165.768 364.93C180.244 364.72 195.232 364.225 210.694 363.385C227.707 362.461 244.108 361.184 259.857 359.637Z" fill="#555879"/>
<path d="M206.195 250.937C199.105 251.215 193.131 245.693 192.853 238.603L191.769 210.976L217.445 209.968L218.529 237.595C218.808 244.685 213.286 250.659 206.195 250.937Z" fill="#F7A99C"/>
<path d="M218.225 229.862L201.196 221.863C201.417 223.305 202.608 230.054 208.739 234.528C212.654 237.384 216.681 237.925 218.537 238.054L218.225 229.862Z" fill="#FF7769"/>
<path d="M190.843 202.437C190.747 202.022 189.625 201.431 189.279 201.227C188.695 200.882 188.067 200.613 187.415 200.428C186.148 200.069 184.768 200.025 183.491 200.365C180.952 201.043 178.758 203.275 178.425 205.924C178.232 207.463 178.641 209.034 179.347 210.415C180.408 212.492 182.143 214.208 184.204 215.3C185.912 216.205 187.836 216.683 189.766 216.73C190.153 216.739 194.095 216.508 194.061 216.358C192.988 211.717 191.915 207.077 190.843 202.437Z" fill="#F7A99C"/>
<path d="M187.332 202.829C187.709 204.88 189.906 215.69 199.98 223.025C201.835 224.376 214.172 233.36 224.992 228.379C238.895 221.979 236.534 198.854 236.39 197.602C235.903 193.37 234.47 180.906 223.882 174.604C215.241 169.461 206.157 171.787 204.871 172.138C203.515 172.508 194.877 175.016 189.847 183.749C185.282 191.675 186.715 199.473 187.332 202.829Z" fill="#F7A99C"/>
<path d="M228.381 197.902C228.672 199.704 230.114 200.969 231.602 200.728C233.089 200.488 234.059 198.832 233.767 197.031C233.476 195.229 232.034 193.964 230.546 194.204C229.059 194.445 228.09 196.101 228.381 197.902Z" fill="#262626"/>
<path d="M212.147 200.528C212.438 202.33 213.88 203.595 215.368 203.354C216.855 203.114 217.825 201.458 217.533 199.656C217.242 197.855 215.8 196.589 214.312 196.83C212.825 197.071 211.855 198.726 212.147 200.528Z" fill="#262626"/>
<path d="M223.554 200.785L226.174 204.073C226.656 204.677 226.514 205.565 225.869 205.99L223.624 207.469" stroke="#262626" stroke-width="0.733" stroke-miterlimit="10" stroke-linecap="round" stroke-linejoin="round"/>
<path d="M206.979 209.246C207.306 211.267 209.21 212.641 211.231 212.314C213.253 211.987 214.626 210.083 214.299 208.062C213.972 206.041 212.068 204.667 210.047 204.994C208.026 205.32 206.652 207.224 206.979 209.246Z" fill="#FF7769"/>
<path d="M189.449 211.784C189.447 211.377 189.384 208.618 187.1 206.707C185.312 205.21 183.292 205.18 182.742 205.189" stroke="#262626" stroke-width="0.733" stroke-miterlimit="10" stroke-linecap="round" stroke-linejoin="round"/>
<path d="M187.333 207.244C187.209 207.229 185.719 207.076 184.723 208.234C183.904 209.186 184.022 210.323 184.045 210.512" stroke="#262626" stroke-width="0.733" stroke-miterlimit="10" stroke-linecap="round" stroke-linejoin="round"/>
<path d="M186.918 200.31C186.918 200.31 188.749 200.407 190.172 201.723C191.595 203.039 192.166 205.36 192.166 205.36C195.665 204.808 203.664 203.04 210.743 196.442C214.58 192.865 216.864 189.065 218.194 186.336C219.568 187.487 221.904 189.204 225.167 190.476C229.425 192.135 234.692 192.816 235.338 191.383C235.458 191.118 235.288 190.368 234.949 188.869C234.826 188.326 234.69 187.521 234.397 186.758C233.824 185.261 233.099 183.824 232.243 182.469C230.531 179.757 228.298 177.374 225.7 175.493C224.013 174.271 222.171 173.261 220.225 172.513C214.046 170.14 205.593 170.438 198.456 174.575C198.456 174.575 190.487 179.195 187.207 187.8C186.08 190.758 185.874 193.681 185.832 194.694C185.748 196.699 186.021 198 186.361 198.993C186.554 199.554 186.763 200.004 186.918 200.31Z" fill="#262626"/>
<path d="M234.634 202.398C235.333 202.285 236.014 202.387 236.624 202.637C236.623 204.629 236.517 207.048 236.171 209.624C236.053 209.655 235.941 209.698 235.817 209.718C233.796 210.045 231.892 208.671 231.565 206.65C231.239 204.629 232.613 202.725 234.634 202.398Z" fill="#FF7769"/>
<path d="M226.823 215.1C226.888 216.926 225.162 218.469 222.968 218.546C220.774 218.624 218.943 217.207 218.878 215.381C218.813 213.555 220.539 212.012 222.733 211.935C224.927 211.858 226.758 213.275 226.823 215.1Z" fill="white"/>
<path d="M288.448 319.007C288.448 319.007 291.118 328.599 293.335 328.526C295.407 328.458 325.469 302.534 329.376 299.158C329.648 298.923 329.991 298.797 330.35 298.797H337.743V286.95C337.796 286.627 337.929 286.115 338.297 285.612C339.119 284.49 340.436 284.337 340.686 284.313C340.922 284.326 342.358 284.431 343.227 285.612C343.594 286.111 343.727 286.621 343.781 286.95C345.611 286.274 347.518 286.627 348.583 287.823C349.248 288.57 349.41 289.452 349.456 289.931C349.548 289.8 350.536 288.435 352.207 288.441C353.626 288.445 354.939 289.435 355.417 290.906L357.533 291.011C358.995 291.083 360.171 292.23 360.285 293.69C360.423 295.465 360.557 297.705 360.461 298.818C360.289 300.824 357.48 304.321 355.245 305.124C353.009 305.927 352.207 306.099 352.207 306.099C352.207 306.099 301.207 360.863 296.162 363.156C291.118 365.449 283.016 365.602 276.748 363.156C270.48 360.71 258.022 340.15 258.022 340.15L288.448 319.007Z" fill="#F7A99C"/>
<path d="M343.781 286.949V296.006" stroke="#262626" stroke-width="0.4147" stroke-miterlimit="10" stroke-linecap="round" stroke-linejoin="round"/>
<path d="M349.456 289.93V296.006" stroke="#262626" stroke-width="0.4147" stroke-miterlimit="10" stroke-linecap="round" stroke-linejoin="round"/>
<path d="M355.418 290.904V297.841" stroke="#262626" stroke-width="0.4147" stroke-miterlimit="10" stroke-linecap="round" stroke-linejoin="round"/>
<path d="M297.31 325.916L287.947 332.58" stroke="#262626" stroke-width="0.4147" stroke-miterlimit="10" stroke-linecap="round" stroke-linejoin="round"/>
<path d="M170.431 342.21L176.622 307.357" stroke="#262626" stroke-width="0.4147" stroke-miterlimit="10" stroke-linecap="round" stroke-linejoin="round"/>
<path d="M258.023 340.147L256.488 299.004" stroke="#262626" stroke-width="0.4147" stroke-miterlimit="10" stroke-linecap="round" stroke-linejoin="round"/>
<path d="M200.378 342.305C200.378 342.305 215.679 338.593 221.387 334.002C226.272 330.074 234.018 322.751 236.15 320.722C236.472 320.416 236.967 320.405 237.308 320.691L237.875 321.167C239.629 322.639 239.853 325.255 238.376 327.005L235.062 330.93L250.14 329.18C251.434 329.03 252.586 330.003 252.654 331.303C252.715 332.45 251.903 333.46 250.77 333.648L240.553 335.345L255.906 335.753C257.095 335.784 258.06 336.724 258.122 337.912L258.124 337.948C258.19 339.205 257.225 340.278 255.967 340.345L256.127 340.375C257.361 340.606 258.243 341.704 258.201 342.959C258.153 344.412 256.9 345.529 255.452 345.411L254.501 345.334C255.694 345.53 256.454 346.717 256.133 347.882C255.664 349.584 254.134 350.771 252.369 350.796C248.151 350.857 245.752 350.224 241.379 351.007C237.919 351.626 238.197 353.265 233.79 355.35C228.424 357.889 225.581 356.608 217.875 357.919C214.949 358.417 210.766 359.383 205.816 361.46L200.378 342.305Z" fill="#F7A99C"/>
<path d="M252.61 331.84C252.61 331.84 252.599 333.281 251.103 333.561C249.607 333.841 238.019 335.851 238.019 335.851" stroke="#262626" stroke-width="0.4147" stroke-miterlimit="10" stroke-linecap="round" stroke-linejoin="round"/>
<path d="M255.966 340.343L241.622 339.898" stroke="#262626" stroke-width="0.4147" stroke-miterlimit="10" stroke-linecap="round" stroke-linejoin="round"/>
<path d="M254.904 345.444L240.505 344.951" stroke="#262626" stroke-width="0.4147" stroke-miterlimit="10" stroke-linecap="round" stroke-linejoin="round"/>
<path d="M238.535 321.874C238.535 321.874 239.93 324.194 239.152 325.599C238.374 327.004 231.687 335.177 231.687 335.177" stroke="#262626" stroke-width="0.4147" stroke-miterlimit="10" stroke-linecap="round" stroke-linejoin="round"/>
<path d="M200.378 342.305C181.482 342.588 173.602 342.454 170.431 342.211C170.231 342.196 164.469 341.752 164.469 341.752H129.157C129.157 341.752 129.272 369.383 137.297 374.656C145.323 379.93 205.815 361.458 205.815 361.458L200.378 342.305Z" fill="#F7A99C"/>
<path d="M169.65 342.15L155.87 343.013" stroke="#262626" stroke-width="0.4147" stroke-miterlimit="10" stroke-linecap="round" stroke-linejoin="round"/>
<path d="M209.412 437.293L216.367 385.013L233.947 375.603" stroke="#262626" stroke-width="0.4147" stroke-miterlimit="10" stroke-linecap="round" stroke-linejoin="round"/>
<path d="M288.448 319.007L290.4 324.621L264.273 349.659L258.022 340.147L288.448 319.007Z" fill="#FF7769"/>
<path d="M167.595 252.693C159.803 258.983 154.09 267.969 150.184 277.105C146.68 285.298 144.323 293.925 141.674 302.433" stroke="white" stroke-width="0.4147" stroke-miterlimit="10" stroke-linecap="round" stroke-linejoin="round"/>
<path d="M187.334 240.169C188.042 249.955 196.495 257.383 205.972 256.911C215.01 256.461 222.48 248.95 222.85 239.611" stroke="#262626" stroke-width="0.4147" stroke-miterlimit="10" stroke-linecap="round" stroke-linejoin="round"/>
<path d="M178.456 186.439C185.295 186.439 190.838 180.485 190.838 173.14C190.838 165.795 185.295 159.841 178.456 159.841C171.618 159.841 166.074 165.795 166.074 173.14C166.074 180.485 171.618 186.439 178.456 186.439Z" fill="#262626"/>
<path d="M180.52 183.076C176.461 184.448 170.728 187.135 167.596 192.707C164.239 198.677 167.14 202.137 164.47 208.299C160.004 218.607 148.891 215.837 144.75 225.038C140.763 233.897 149.322 240.334 144.291 249.344C141.475 254.387 137.692 254.345 135.348 259.892C133.108 265.195 134.218 270.789 135.577 274.797" stroke="#262626" stroke-width="0.4147" stroke-miterlimit="10" stroke-linecap="round" stroke-linejoin="round"/>
<path d="M239.388 212.362C241.61 214.645 245.337 218.24 250.456 222.057C258.681 228.19 261.868 228.461 264.214 232.834C267.826 239.568 262.802 243.653 266.254 249.293C270.611 256.412 280.604 253.159 283.582 259.891C286.051 265.473 282.313 274.796 282.313 274.796" stroke="#262626" stroke-width="0.4147" stroke-miterlimit="10" stroke-linecap="round" stroke-linejoin="round"/>
<path d="M129.149 143.663C144.988 143.663 157.829 155.91 157.829 171.018C157.829 176.459 156.144 181.515 153.273 185.776L157.844 198.379L147.181 192.278C142.254 196.085 135.984 198.374 129.149 198.374C113.31 198.374 100.469 186.127 100.469 171.019C100.469 155.91 113.31 143.663 129.149 143.663Z" fill="#748DAE"/>
<path d="M125.906 178.587C126.018 176.52 126.265 174.865 126.649 173.621C127.032 172.377 127.708 171.254 128.676 170.253C129.236 169.651 129.86 169.14 130.551 168.721C131.241 168.302 131.88 167.853 132.468 167.376C133.055 166.899 133.559 166.355 133.979 165.745C134.398 165.135 134.636 164.323 134.691 163.307C134.784 161.591 134.376 160.365 133.467 159.631C132.558 158.897 131.455 158.494 130.16 158.424C128.303 158.324 126.996 158.772 126.24 159.767C125.483 160.763 124.97 162.132 124.7 163.873L117.922 163.506C118.015 161.79 118.379 160.246 119.015 158.875C119.651 157.505 120.512 156.356 121.599 155.431C122.685 154.507 123.969 153.82 125.452 153.373C126.933 152.926 128.551 152.75 130.302 152.845C134.085 153.05 137.029 153.982 139.136 155.642C141.241 157.302 142.201 159.865 142.014 163.333C141.953 164.455 141.786 165.429 141.513 166.257C141.239 167.085 140.856 167.829 140.365 168.487C139.872 169.145 139.277 169.755 138.58 170.314C137.882 170.874 137.096 171.446 136.221 172.031C135.418 172.585 134.766 173.103 134.266 173.585C133.766 174.068 133.377 174.583 133.102 175.129C132.826 175.676 132.637 176.255 132.534 176.864C132.43 177.473 132.358 178.164 132.317 178.934L125.906 178.587ZM125.148 188.717L125.52 181.834L132.613 182.218L132.241 189.101L125.148 188.717Z" fill="#555879"/>
<path d="M121.705 106.535C126.493 86.533 114.16 66.4366 94.1578 61.6485C74.1558 56.8603 54.0594 69.1936 49.2713 89.1957C44.4831 109.198 56.8164 129.294 76.8184 134.082C96.8205 138.87 116.917 126.537 121.705 106.535Z" fill="#F5F5F5"/>
<path opacity="0.5" d="M113.73 104.614C117.459 89.0203 107.841 73.3556 92.2466 69.6262C76.6526 65.8968 60.9878 75.5151 57.2585 91.1091C53.5291 106.703 63.1473 122.368 78.7414 126.097C94.3355 129.827 110 120.208 113.73 104.614Z" fill="#D6D6D6"/>
<path d="M84.9888 119.675C84.3558 119.675 83.8428 119.162 83.8428 118.529V97.319C83.8428 96.686 84.3558 96.173 84.9888 96.173C85.6218 96.173 86.1348 96.686 86.1348 97.319V118.529C86.1348 119.162 85.6218 119.675 84.9888 119.675Z" fill="#D6D6D6"/>
<path d="M101.556 96.718C101.556 97.351 101.043 97.864 100.41 97.864H84.9897C84.3567 97.864 83.8438 97.351 83.8438 96.718C83.8438 96.085 84.3567 95.572 84.9897 95.572H100.41C101.042 95.571 101.556 96.085 101.556 96.718Z" fill="#D6D6D6"/>
<path d="M197.116 97.864H451.715C458.632 97.864 464.24 103.472 464.24 110.389V282.294" stroke="#262626" stroke-width="0.4147" stroke-miterlimit="10" stroke-linecap="round" stroke-linejoin="round"/>
<path d="M81.2119 282.134V354.745" stroke="#262626" stroke-width="0.4147" stroke-miterlimit="10" stroke-linecap="round" stroke-linejoin="round"/>
<path d="M94.0518 297.973V354.745" stroke="#262626" stroke-width="0.4147" stroke-miterlimit="10" stroke-linecap="round" stroke-linejoin="round"/>
<path d="M232.378 149.25H261.83C264.603 149.25 266.966 151.26 267.411 153.997L269.92 169.441L269.954 169.651H386.443C391.07 169.651 394.45 174.023 393.284 178.501L379.111 232.937C378.3 236.051 375.488 238.224 372.271 238.224H281.095L281.142 238.514L282.436 246.476L282.47 246.686H377.64C379.055 246.686 380.337 247.26 381.266 248.187C382.185 249.107 382.757 250.372 382.768 251.772C382.79 254.61 380.394 256.942 377.545 256.942H278.554C275.781 256.942 273.417 254.931 272.973 252.194L257.949 159.716L257.915 159.507H232.474C229.625 159.507 227.228 157.175 227.25 154.338C227.261 152.937 227.833 151.671 228.752 150.752C229.68 149.824 230.961 149.25 232.378 149.25Z" fill="#E7E7E7" stroke="black" stroke-width="0.5"/>
<path d="M294.849 263.057C302.235 263.057 308.223 269.044 308.223 276.431C308.223 283.817 302.235 289.805 294.849 289.805C287.462 289.805 281.475 283.817 281.475 276.431C281.475 269.044 287.462 263.057 294.849 263.057Z" fill="#E7E7E7" stroke="black" stroke-width="0.5"/>
<path d="M358.875 263.057C366.261 263.057 372.249 269.044 372.249 276.431C372.249 283.817 366.261 289.805 358.875 289.805C351.489 289.805 345.501 283.817 345.501 276.431C345.501 269.044 351.489 263.057 358.875 263.057Z" fill="#E7E7E7" stroke="black" stroke-width="0.5"/>
<path d="M339.72 182L326.383 195.336L313.047 182L305 190.048L318.336 203.384L305 216.72L313.047 224.768L326.383 211.432L339.719 224.768L347.767 216.72L334.431 203.384L347.767 190.048L339.72 182Z" fill="#D6D6D6"/>
<path d="M315.883 299.005H237.261C235.093 299.005 233.335 297.247 233.335 295.079V289.93H315.883V299.005Z" fill="#2A83C6"/>
<path d="M394.965 299.005H305.08C303.307 299.005 302.246 297.568 302.71 295.795L319.999 229.778C320.463 228.005 322.277 226.568 324.05 226.568H413.935C415.708 226.568 416.769 228.005 416.305 229.778L399.016 295.795C398.551 297.567 396.738 299.005 394.965 299.005Z" fill="#2A83C6"/>
<path d="M400.621 299.005H310.736C308.963 299.005 307.902 297.568 308.366 295.795L325.655 229.778C326.119 228.005 327.933 226.568 329.706 226.568H419.591C421.364 226.568 422.425 228.005 421.961 229.778L404.672 295.795C404.208 297.567 402.394 299.005 400.621 299.005Z" fill="#3897E9"/>
<path d="M419.793 238.053L404.672 295.794C404.672 295.794 404.546 299.004 399.195 299.004C393.845 299.004 313.743 299.004 313.743 299.004C326.579 298.283 353.288 295.006 380.545 277.242C400.857 264.005 413.173 248.132 419.793 238.053Z" fill="#5FBBFF"/>
<path d="M376.265 262.158C375.413 266.226 371.424 269.524 367.355 269.524C363.287 269.524 360.68 266.226 361.532 262.158C362.384 258.09 366.373 254.792 370.442 254.792C374.511 254.792 377.117 258.09 376.265 262.158Z" fill="#FEC02D"/>
<path d="M333.692 238.053L321.998 277.563" stroke="#262626" stroke-width="0.4147" stroke-miterlimit="10" stroke-linecap="round" stroke-linejoin="round"/>
</g>
<defs>
<clipPath id="clip0_59_5">
<rect width="500" height="500" fill="white"/>
</clipPath>
</defs>
</svg>
