<svg width="500" height="500" viewBox="0 0 500 500" fill="none" xmlns="http://www.w3.org/2000/svg">
<g clip-path="url(#clip0_53_6)">
<mask id="mask0_53_6" style="mask-type:luminance" maskUnits="userSpaceOnUse" x="39" y="36" width="422" height="428">
<path d="M375.14 371.31C468.939 274.56 488.957 141.816 419.852 74.8185C350.746 7.8208 218.686 31.9397 124.887 128.69C31.0884 225.44 11.0704 358.183 80.1759 425.181C149.281 492.179 281.342 468.06 375.14 371.31Z" fill="white"/>
</mask>
<g mask="url(#mask0_53_6)">
<path d="M518.461 12.958H11.9277V451.958H518.461V12.958Z" fill="#5C93B5"/>
<path d="M463.742 355.704H454.191V365.817H463.742V355.704Z" fill="#6BA3C6"/>
<path d="M465.708 351.209H452.224V357.831H465.708V351.209Z" fill="#6BA3C6"/>
<path d="M479.807 417.874L473.966 374.011C473.955 373.927 473.943 373.843 473.931 373.759C471.466 356.747 446.466 356.747 444.001 373.759C443.989 373.843 443.977 373.927 443.966 374.011L438.125 417.874C437.496 422.595 441.17 426.79 445.933 426.79H458.966H471.999C476.763 426.791 480.436 422.596 479.807 417.874Z" fill="#6BA3C6"/>
<path d="M421.919 355.704H412.368V365.817H421.919V355.704Z" fill="#6BA3C6"/>
<path d="M423.885 351.209H410.401V357.831H423.885V351.209Z" fill="#6BA3C6"/>
<path d="M437.985 417.874L432.144 374.011C432.133 373.927 432.121 373.843 432.109 373.759C429.644 356.747 404.644 356.747 402.179 373.759C402.167 373.843 402.155 373.927 402.144 374.011L396.303 417.874C395.674 422.595 399.347 426.79 404.111 426.79H417.144H430.177C434.94 426.791 438.613 422.596 437.985 417.874Z" fill="#6BA3C6"/>
<path d="M380.097 355.704H370.546V365.817H380.097V355.704Z" fill="#6BA3C6"/>
<path d="M382.062 351.209H368.578V357.831H382.062V351.209Z" fill="#6BA3C6"/>
<path d="M396.161 417.874L390.32 374.011C390.309 373.927 390.297 373.843 390.285 373.759C387.82 356.747 362.82 356.747 360.355 373.759C360.343 373.843 360.331 373.927 360.32 374.011L354.479 417.874C353.85 422.595 357.524 426.79 362.287 426.79H375.32H388.353C393.117 426.791 396.79 422.596 396.161 417.874Z" fill="#6BA3C6"/>
<path d="M338.275 355.704H328.724V365.817H338.275V355.704Z" fill="#6BA3C6"/>
<path d="M340.241 351.209H326.757V357.831H340.241V351.209Z" fill="#6BA3C6"/>
<path d="M354.34 417.874L348.499 374.011C348.488 373.927 348.476 373.843 348.464 373.759C345.999 356.747 320.999 356.747 318.534 373.759C318.522 373.843 318.51 373.927 318.499 374.011L312.658 417.874C312.029 422.595 315.703 426.79 320.466 426.79H333.499H346.532C351.295 426.791 354.968 422.596 354.34 417.874Z" fill="#6BA3C6"/>
<path d="M296.452 355.704H286.901V365.817H296.452V355.704Z" fill="#6BA3C6"/>
<path d="M298.418 351.209H284.934V357.831H298.418V351.209Z" fill="#6BA3C6"/>
<path d="M312.517 417.874L306.676 374.011C306.665 373.927 306.653 373.843 306.641 373.759C304.176 356.747 279.176 356.747 276.711 373.759C276.699 373.843 276.687 373.927 276.676 374.011L270.835 417.874C270.206 422.595 273.88 426.79 278.643 426.79H291.676H304.709C309.473 426.791 313.146 422.596 312.517 417.874Z" fill="#6BA3C6"/>
<path d="M550.435 76.0184V64.3794L-20.0454 64.3794V76.0184L550.435 76.0184Z" fill="#6BA3C6"/>
<path d="M550.435 199.611V187.972L-20.0454 187.972V199.611L550.435 199.611Z" fill="#6BA3C6"/>
<path d="M550.434 438.43V426.791L-20.0464 426.791V438.43L550.434 438.43Z" fill="#6BA3C6"/>
<path d="M550.435 323.204V311.565L-20.0454 311.565V323.204L550.435 323.204Z" fill="#6BA3C6"/>
<path d="M271.014 39.218H259.375V453.698H271.014V39.218Z" fill="#6BA3C6"/>
<path d="M477.575 126.188H433.905V187.968H477.575V126.188Z" fill="#6BA3C6"/>
<path d="M464.285 142.798C453.085 137.198 441.505 136.028 433.905 139.008V167.538C437.445 171.078 441.955 174.348 447.195 176.968C458.395 182.568 469.975 183.738 477.575 180.758V152.228C474.035 148.688 469.525 145.417 464.285 142.798Z" fill="#4A7691"/>
<path d="M433.903 126.189H423.28V187.972H433.903V126.189Z" fill="#4A7691"/>
<path d="M423.277 126.188H379.607V187.968H423.277V126.188Z" fill="#6BA3C6"/>
<path d="M409.987 142.798C398.787 137.198 387.207 136.028 379.607 139.008V167.538C383.147 171.078 387.657 174.348 392.897 176.968C404.097 182.568 415.677 183.738 423.277 180.758V152.228C419.737 148.688 415.227 145.417 409.987 142.798Z" fill="#4A7691"/>
<path d="M379.607 126.189H368.984V187.972H379.607V126.189Z" fill="#4A7691"/>
<path d="M368.981 126.188H325.311V187.968H368.981V126.188Z" fill="#6BA3C6"/>
<path d="M355.691 142.798C344.491 137.198 332.911 136.028 325.311 139.008V167.538C328.851 171.078 333.361 174.348 338.601 176.968C349.801 182.568 361.381 183.738 368.981 180.758V152.228C365.441 148.688 360.931 145.417 355.691 142.798Z" fill="#4A7691"/>
<path d="M44.4934 230.018H37.4824V270.791H44.4934V230.018Z" fill="#4A7691"/>
<path d="M80.3074 230.018H73.2964V270.791H80.3074V230.018Z" fill="#4A7691"/>
<path d="M73.2946 230.017H44.4746V270.788H73.2946V230.017Z" fill="#6BA3C6"/>
<path d="M64.5236 240.978C57.1326 237.282 49.4896 236.51 44.4746 238.477V257.305C46.8106 259.641 49.7876 261.799 53.2456 263.528C60.6366 267.224 68.2786 267.996 73.2946 266.029V247.201C70.9576 244.865 67.9816 242.707 64.5236 240.978Z" fill="#4A7691"/>
<path d="M116.12 230.018H109.109V270.791H116.12V230.018Z" fill="#4A7691"/>
<path d="M109.108 230.017H80.2876V270.788H109.108V230.017Z" fill="#6BA3C6"/>
<path d="M100.337 240.978C92.9456 237.282 85.3026 236.51 80.2876 238.477V257.305C82.6236 259.641 85.6006 261.799 89.0586 263.528C96.4496 267.224 104.092 267.996 109.108 266.029V247.201C106.772 244.865 103.795 242.707 100.337 240.978Z" fill="#4A7691"/>
<path d="M151.934 230.018H144.923V270.791H151.934V230.018Z" fill="#4A7691"/>
<path d="M144.922 230.017H116.102V270.788H144.922V230.017Z" fill="#6BA3C6"/>
<path d="M136.151 240.978C128.76 237.282 121.118 236.51 116.102 238.477V257.305C118.438 259.641 121.415 261.799 124.873 263.528C132.264 267.224 139.907 267.996 144.922 266.029V247.201C142.585 244.865 139.609 242.707 136.151 240.978Z" fill="#4A7691"/>
<path d="M187.747 230.018H180.736V270.791H187.747V230.018Z" fill="#4A7691"/>
<path d="M180.735 230.017H151.915V270.788H180.735V230.017Z" fill="#6BA3C6"/>
<path d="M171.964 240.978C164.573 237.282 156.931 236.51 151.915 238.477V257.305C154.251 259.641 157.228 261.799 160.686 263.528C168.077 267.224 175.719 267.996 180.735 266.029V247.201C178.399 244.865 175.422 242.707 171.964 240.978Z" fill="#4A7691"/>
<path d="M223.561 230.018H216.55V270.791H223.561V230.018Z" fill="#4A7691"/>
<path d="M216.549 230.017H187.729V270.788H216.549V230.017Z" fill="#6BA3C6"/>
<path d="M207.778 240.978C200.387 237.282 192.745 236.51 187.729 238.477V257.305C190.065 259.641 193.042 261.799 196.5 263.528C203.891 267.224 211.534 267.996 216.549 266.029V247.201C214.212 244.865 211.236 242.707 207.778 240.978Z" fill="#4A7691"/>
<path d="M259.374 230.018H252.363V270.791H259.374V230.018Z" fill="#4A7691"/>
<path d="M252.361 230.017H223.542V270.788H252.361V230.017Z" fill="#6BA3C6"/>
<path d="M243.59 240.978C236.2 237.282 228.557 236.51 223.542 238.477V257.305C225.878 259.641 228.855 261.799 232.312 263.528C239.703 267.224 247.345 267.996 252.361 266.029V247.201C250.025 244.865 247.048 242.707 243.59 240.978Z" fill="#4A7691"/>
<path d="M44.4934 270.792H37.4824V311.565H44.4934V270.792Z" fill="#4A7691"/>
<path d="M80.3074 270.792H73.2964V311.565H80.3074V270.792Z" fill="#4A7691"/>
<path d="M73.2946 270.791H44.4746V311.562H73.2946V270.791Z" fill="#6BA3C6"/>
<path d="M64.5236 281.753C57.1326 278.057 49.4896 277.285 44.4746 279.252V298.08C46.8106 300.416 49.7876 302.574 53.2456 304.303C60.6366 307.999 68.2786 308.771 73.2946 306.804V287.976C70.9576 285.639 67.9816 283.482 64.5236 281.753Z" fill="#4A7691"/>
<path d="M116.12 270.792H109.109V311.565H116.12V270.792Z" fill="#4A7691"/>
<path d="M109.108 270.791H80.2876V311.562H109.108V270.791Z" fill="#6BA3C6"/>
<path d="M100.337 281.753C92.9456 278.057 85.3026 277.285 80.2876 279.252V298.08C82.6236 300.416 85.6006 302.574 89.0586 304.303C96.4496 307.999 104.092 308.771 109.108 306.804V287.976C106.772 285.639 103.795 283.482 100.337 281.753Z" fill="#4A7691"/>
<path d="M151.934 270.792H144.923V311.565H151.934V270.792Z" fill="#4A7691"/>
<path d="M144.922 270.791H116.102V311.562H144.922V270.791Z" fill="#6BA3C6"/>
<path d="M136.151 281.753C128.76 278.057 121.118 277.285 116.102 279.252V298.08C118.438 300.416 121.415 302.574 124.873 304.303C132.264 307.999 139.907 308.771 144.922 306.804V287.976C142.585 285.639 139.609 283.482 136.151 281.753Z" fill="#4A7691"/>
<path d="M187.747 270.792H180.736V311.565H187.747V270.792Z" fill="#4A7691"/>
<path d="M180.735 270.791H151.915V311.562H180.735V270.791Z" fill="#6BA3C6"/>
<path d="M171.964 281.753C164.573 278.057 156.931 277.285 151.915 279.252V298.08C154.251 300.416 157.228 302.574 160.686 304.303C168.077 307.999 175.719 308.771 180.735 306.804V287.976C178.399 285.639 175.422 283.482 171.964 281.753Z" fill="#4A7691"/>
<path d="M223.561 270.792H216.55V311.565H223.561V270.792Z" fill="#4A7691"/>
<path d="M216.549 270.791H187.729V311.562H216.549V270.791Z" fill="#6BA3C6"/>
<path d="M207.778 281.753C200.387 278.057 192.745 277.285 187.729 279.252V298.08C190.065 300.416 193.042 302.574 196.5 304.303C203.891 307.999 211.534 308.771 216.549 306.804V287.976C214.212 285.639 211.236 283.482 207.778 281.753Z" fill="#4A7691"/>
<path d="M259.374 270.792H252.363V311.565H259.374V270.792Z" fill="#4A7691"/>
<path d="M252.361 270.791H223.542V311.562H252.361V270.791Z" fill="#6BA3C6"/>
<path d="M243.59 281.753C236.2 278.057 228.557 277.285 223.542 279.252V298.08C225.878 300.416 228.855 302.574 232.312 304.303C239.703 307.999 247.345 308.771 252.361 306.804V287.976C250.025 285.639 247.048 283.482 243.59 281.753Z" fill="#4A7691"/>
<path d="M325.311 126.189H314.688V187.972H325.311V126.189Z" fill="#4A7691"/>
<path d="M314.684 126.188H271.014V187.968H314.684V126.188Z" fill="#6BA3C6"/>
<path d="M301.394 142.798C290.194 137.198 278.614 136.028 271.014 139.008V167.538C274.554 171.078 279.064 174.348 284.304 176.968C295.504 182.568 307.084 183.738 314.684 180.758V152.228C311.144 148.688 306.634 145.417 301.394 142.798Z" fill="#4A7691"/>
<path d="M73.3389 187.967H135.207L120.613 121.468H87.9329L73.3389 187.967Z" fill="#4A7691"/>
<path d="M60.8911 187.967H122.759L108.165 121.468H75.4851L60.8911 187.967Z" fill="#6BA3C6"/>
<path d="M119.657 173.835L115.512 154.949H68.1372L63.9922 173.835H119.657Z" fill="#4A7691"/>
<path d="M135.207 187.967H197.075L182.481 121.468H149.801L135.207 187.967Z" fill="#4A7691"/>
<path d="M122.759 187.967H184.627L170.033 121.468H137.353L122.759 187.967Z" fill="#6BA3C6"/>
<path d="M181.526 173.835L177.381 154.949H130.005L125.86 173.835H181.526Z" fill="#4A7691"/>
<path d="M197.075 187.967H258.943L244.349 121.468H211.669L197.075 187.967Z" fill="#4A7691"/>
<path d="M184.627 187.967H246.495L231.901 121.468H199.221L184.627 187.967Z" fill="#6BA3C6"/>
<path d="M243.394 173.835L239.249 154.949H191.874L187.729 173.835H243.394Z" fill="#4A7691"/>
<path d="M271.056 43.068V61.6C271.056 63.135 272.301 64.38 273.836 64.38H304.722C306.257 64.38 307.502 63.135 307.502 61.6V43.068H271.056Z" fill="#6BA3C6"/>
<path d="M299.162 49.863V43.068H279.395V49.863C279.395 55.322 283.82 59.747 289.279 59.747C294.737 59.746 299.162 55.321 299.162 49.863Z" fill="#4A7691"/>
<path d="M307.502 43.068C307.502 41.533 306.258 40.288 304.722 40.288H273.836C272.301 40.288 271.056 41.533 271.056 43.068C271.056 44.603 272.301 45.848 273.836 45.848H304.722C306.257 45.848 307.502 44.603 307.502 43.068Z" fill="#6BA3C6"/>
<path d="M307.502 43.068V61.6C307.502 63.135 308.747 64.38 310.282 64.38H341.168C342.703 64.38 343.948 63.135 343.948 61.6V43.068H307.502Z" fill="#6BA3C6"/>
<path d="M335.608 49.863V43.068H315.841V49.863C315.841 55.322 320.266 59.747 325.725 59.747C331.183 59.746 335.608 55.321 335.608 49.863Z" fill="#4A7691"/>
<path d="M343.947 43.068C343.947 41.533 342.702 40.288 341.167 40.288H310.281C308.746 40.288 307.501 41.533 307.501 43.068C307.501 44.603 308.746 45.848 310.281 45.848H341.167C342.703 45.848 343.947 44.603 343.947 43.068Z" fill="#6BA3C6"/>
<path d="M343.946 43.068V61.6C343.946 63.135 345.191 64.38 346.726 64.38H377.612C379.147 64.38 380.392 63.135 380.392 61.6V43.068H343.946Z" fill="#6BA3C6"/>
<path d="M372.053 49.863V43.068H352.286V49.863C352.286 55.322 356.711 59.747 362.17 59.747C367.628 59.746 372.053 55.321 372.053 49.863Z" fill="#4A7691"/>
<path d="M380.392 43.068C380.392 41.533 379.147 40.288 377.612 40.288H346.726C345.191 40.288 343.946 41.533 343.946 43.068C343.946 44.603 345.19 45.848 346.726 45.848H377.612C379.147 45.848 380.392 44.603 380.392 43.068Z" fill="#6BA3C6"/>
<path d="M380.393 43.068V61.6C380.393 63.135 381.638 64.38 383.173 64.38H414.059C415.594 64.38 416.839 63.135 416.839 61.6V43.068H380.393Z" fill="#6BA3C6"/>
<path d="M408.498 49.863V43.068H388.731V49.863C388.731 55.322 393.156 59.747 398.615 59.747C404.073 59.746 408.498 55.321 408.498 49.863Z" fill="#4A7691"/>
<path d="M416.839 43.068C416.839 41.533 415.594 40.288 414.059 40.288H383.173C381.638 40.288 380.393 41.533 380.393 43.068C380.393 44.603 381.638 45.848 383.173 45.848H414.059C415.594 45.848 416.839 44.603 416.839 43.068Z" fill="#6BA3C6"/>
<path d="M416.839 43.068V61.6C416.839 63.135 418.084 64.38 419.619 64.38H450.505C452.04 64.38 453.285 63.135 453.285 61.6V43.068H416.839Z" fill="#6BA3C6"/>
<path d="M444.945 49.863V43.068H425.178V49.863C425.178 55.322 429.603 59.747 435.062 59.747C440.52 59.746 444.945 55.321 444.945 49.863Z" fill="#4A7691"/>
<path d="M453.284 43.068C453.284 41.533 452.039 40.288 450.504 40.288H419.618C418.083 40.288 416.838 41.533 416.838 43.068C416.838 44.603 418.083 45.848 419.618 45.848H450.504C452.04 45.848 453.284 44.603 453.284 43.068Z" fill="#6BA3C6"/>
<path d="M453.283 43.068V61.6C453.283 63.135 454.528 64.38 456.063 64.38H486.949C488.484 64.38 489.729 63.135 489.729 61.6V43.068H453.283Z" fill="#6BA3C6"/>
<path d="M489.729 43.068C489.729 41.533 488.484 40.288 486.949 40.288H456.063C454.528 40.288 453.283 41.533 453.283 43.068C453.283 44.603 454.528 45.848 456.063 45.848H486.949C488.484 45.848 489.729 44.603 489.729 43.068Z" fill="#6BA3C6"/>
<path d="M40.7007 405.479V424.011C40.7007 425.546 41.9457 426.791 43.4807 426.791H74.3667C75.9017 426.791 77.1467 425.546 77.1467 424.011V405.479H40.7007Z" fill="#4A7691"/>
<path d="M68.8075 412.274V405.479H49.0396V412.274C49.0396 417.733 53.4646 422.158 58.9226 422.158C64.3816 422.158 68.8075 417.733 68.8075 412.274Z" fill="#4A7691"/>
<path d="M77.1467 405.479C77.1467 403.944 75.9017 402.699 74.3667 402.699H43.4807C41.9457 402.699 40.7007 403.944 40.7007 405.479C40.7007 407.014 41.9457 408.259 43.4807 408.259H74.3667C75.9017 408.259 77.1467 407.015 77.1467 405.479Z" fill="#4A7691"/>
<path d="M77.1465 405.479V424.011C77.1465 425.546 78.3905 426.791 79.9265 426.791H110.812C112.347 426.791 113.592 425.546 113.592 424.011V405.479H77.1465Z" fill="#4A7691"/>
<path d="M105.252 412.274V405.479H85.4854V412.274C85.4854 417.733 89.9104 422.158 95.3694 422.158C100.827 422.158 105.252 417.733 105.252 412.274Z" fill="#4A7691"/>
<path d="M113.592 405.479C113.592 403.944 112.347 402.699 110.812 402.699H79.9255C78.3905 402.699 77.1455 403.944 77.1455 405.479C77.1455 407.014 78.3895 408.259 79.9255 408.259H110.812C112.348 408.259 113.592 407.015 113.592 405.479Z" fill="#4A7691"/>
<path d="M113.592 405.479V424.011C113.592 425.546 114.837 426.791 116.372 426.791H147.258C148.793 426.791 150.038 425.546 150.038 424.011V405.479H113.592Z" fill="#4A7691"/>
<path d="M141.699 412.274V405.479H121.932V412.274C121.932 417.733 126.357 422.158 131.816 422.158C137.274 422.158 141.699 417.733 141.699 412.274Z" fill="#4A7691"/>
<path d="M150.038 405.479C150.038 403.944 148.793 402.699 147.258 402.699H116.372C114.837 402.699 113.592 403.944 113.592 405.479C113.592 407.014 114.836 408.259 116.372 408.259H147.258C148.793 408.259 150.038 407.015 150.038 405.479Z" fill="#4A7691"/>
<path d="M150.038 405.479V424.011C150.038 425.546 151.283 426.791 152.818 426.791H183.704C185.239 426.791 186.484 425.546 186.484 424.011V405.479H150.038Z" fill="#4A7691"/>
<path d="M178.143 412.274V405.479H158.376V412.274C158.376 417.733 162.801 422.158 168.259 422.158C173.718 422.158 178.143 417.733 178.143 412.274Z" fill="#4A7691"/>
<path d="M186.484 405.479C186.484 403.944 185.24 402.699 183.704 402.699H152.818C151.283 402.699 150.038 403.944 150.038 405.479C150.038 407.014 151.283 408.259 152.818 408.259H183.704C185.239 408.259 186.484 407.015 186.484 405.479Z" fill="#4A7691"/>
<path d="M186.484 405.479V424.011C186.484 425.546 187.729 426.791 189.264 426.791H220.15C221.685 426.791 222.93 425.546 222.93 424.011V405.479H186.484Z" fill="#4A7691"/>
<path d="M214.59 412.274V405.479H194.823V412.274C194.823 417.733 199.248 422.158 204.706 422.158C210.165 422.158 214.59 417.733 214.59 412.274Z" fill="#4A7691"/>
<path d="M222.929 405.479C222.929 403.944 221.684 402.699 220.149 402.699H189.263C187.728 402.699 186.483 403.944 186.483 405.479C186.483 407.014 187.728 408.259 189.263 408.259H220.149C221.685 408.259 222.929 407.015 222.929 405.479Z" fill="#4A7691"/>
<path d="M222.929 405.479V424.011C222.929 425.546 224.173 426.791 225.709 426.791H256.595C258.13 426.791 259.375 425.546 259.375 424.011V405.479H222.929Z" fill="#4A7691"/>
<path d="M251.036 412.274V405.479H231.269V412.274C231.269 417.733 235.694 422.158 241.153 422.158C246.611 422.158 251.036 417.733 251.036 412.274Z" fill="#4A7691"/>
<path d="M259.375 405.479C259.375 403.944 258.13 402.699 256.595 402.699H225.709C224.174 402.699 222.929 403.944 222.929 405.479C222.929 407.014 224.173 408.259 225.709 408.259H256.595C258.13 408.259 259.375 407.015 259.375 405.479Z" fill="#4A7691"/>
<path d="M462.035 234.516H451.904V246.458H462.035V234.516Z" fill="#6BA3C6"/>
<path d="M472.958 269.519C471.563 266.477 470.823 262.955 470.823 259.359V254.129C470.823 250.123 469.428 246.359 467.07 244.006C465.516 242.454 463.645 241.619 461.724 241.619H456.97H452.216C450.295 241.619 448.424 242.455 446.87 244.006C444.513 246.36 443.117 250.124 443.117 254.129V259.359C443.117 262.955 442.377 266.477 440.982 269.519C437.928 276.179 436.308 283.892 436.308 291.766V303.689C436.308 307.836 438.753 311.199 441.77 311.199H456.97H472.17C475.186 311.199 477.632 307.837 477.632 303.689V291.766C477.632 283.892 476.012 276.18 472.958 269.519Z" fill="#6BA3C6"/>
<path d="M464.072 232.458H449.867V238.657H464.072V232.458Z" fill="#6BA3C6"/>
<path d="M420.712 234.516H410.581V246.458H420.712V234.516Z" fill="#6BA3C6"/>
<path d="M431.634 269.519C430.239 266.477 429.499 262.955 429.499 259.359V254.129C429.499 250.123 428.104 246.359 425.746 244.006C424.192 242.454 422.321 241.619 420.4 241.619H415.646H410.892C408.971 241.619 407.1 242.455 405.546 244.006C403.189 246.36 401.793 250.124 401.793 254.129V259.359C401.793 262.955 401.053 266.477 399.658 269.519C396.604 276.179 394.984 283.892 394.984 291.766V303.689C394.984 307.836 397.429 311.199 400.446 311.199H415.646H430.846C433.862 311.199 436.308 307.837 436.308 303.689V291.766C436.309 283.892 434.688 276.18 431.634 269.519Z" fill="#6BA3C6"/>
<path d="M422.749 232.458H408.544V238.657H422.749V232.458Z" fill="#6BA3C6"/>
<path d="M379.389 234.516H369.258V246.458H379.389V234.516Z" fill="#6BA3C6"/>
<path d="M390.311 269.519C388.916 266.477 388.176 262.955 388.176 259.359V254.129C388.176 250.123 386.781 246.359 384.423 244.006C382.869 242.454 380.998 241.619 379.077 241.619H374.323H369.569C367.648 241.619 365.777 242.455 364.223 244.006C361.865 246.36 360.47 250.124 360.47 254.129V259.359C360.47 262.955 359.73 266.477 358.335 269.519C355.281 276.179 353.661 283.892 353.661 291.766V303.689C353.661 307.836 356.106 311.199 359.123 311.199H374.323H389.523C392.539 311.199 394.985 307.837 394.985 303.689V291.766C394.985 283.892 393.365 276.18 390.311 269.519Z" fill="#6BA3C6"/>
<path d="M381.426 232.458H367.221V238.657H381.426V232.458Z" fill="#6BA3C6"/>
<path d="M338.065 234.516H327.934V246.458H338.065V234.516Z" fill="#6BA3C6"/>
<path d="M348.987 269.519C347.592 266.477 346.852 262.955 346.852 259.359V254.129C346.852 250.123 345.457 246.359 343.099 244.006C341.545 242.454 339.674 241.619 337.753 241.619H333H328.246C326.325 241.619 324.454 242.455 322.9 244.006C320.543 246.36 319.147 250.124 319.147 254.129V259.359C319.147 262.955 318.407 266.477 317.012 269.519C313.958 276.179 312.338 283.892 312.338 291.766V303.689C312.338 307.836 314.783 311.199 317.8 311.199H333H348.2C351.216 311.199 353.662 307.837 353.662 303.689V291.766C353.662 283.892 352.041 276.18 348.987 269.519Z" fill="#6BA3C6"/>
<path d="M340.101 232.458H325.896V238.657H340.101V232.458Z" fill="#6BA3C6"/>
<path d="M296.741 234.516H286.61V246.458H296.741V234.516Z" fill="#6BA3C6"/>
<path d="M307.664 269.519C306.269 266.477 305.529 262.955 305.529 259.359V254.129C305.529 250.123 304.134 246.359 301.776 244.006C300.222 242.454 298.351 241.619 296.43 241.619H291.676H286.922C285.001 241.619 283.13 242.455 281.576 244.006C279.218 246.36 277.823 250.124 277.823 254.129V259.359C277.823 262.955 277.083 266.477 275.688 269.519C272.634 276.179 271.014 283.892 271.014 291.766V303.689C271.014 307.836 273.459 311.199 276.476 311.199H291.676H306.876C309.892 311.199 312.338 307.837 312.338 303.689V291.766C312.338 283.892 310.717 276.18 307.664 269.519Z" fill="#6BA3C6"/>
<path d="M298.778 232.458H284.573V238.657H298.778V232.458Z" fill="#6BA3C6"/>
<path d="M40.7007 384.948V403.48C40.7007 405.015 41.9457 406.26 43.4807 406.26H74.3667C75.9017 406.26 77.1467 405.016 77.1467 403.48V384.948H40.7007Z" fill="#4A7691"/>
<path d="M68.8075 391.743V384.948H49.0396V391.743C49.0396 397.201 53.4646 401.627 58.9226 401.627C64.3816 401.626 68.8075 397.201 68.8075 391.743Z" fill="#4A7691"/>
<path d="M77.1467 384.948C77.1467 383.413 75.9017 382.168 74.3667 382.168H43.4807C41.9457 382.168 40.7007 383.413 40.7007 384.948C40.7007 386.483 41.9457 387.728 43.4807 387.728H74.3667C75.9017 387.728 77.1467 386.483 77.1467 384.948Z" fill="#4A7691"/>
<path d="M77.1465 384.948V403.48C77.1465 405.015 78.3905 406.26 79.9265 406.26H110.812C112.347 406.26 113.592 405.016 113.592 403.48V384.948H77.1465Z" fill="#4A7691"/>
<path d="M105.252 391.743V384.948H85.4854V391.743C85.4854 397.201 89.9104 401.627 95.3694 401.627C100.827 401.626 105.252 397.201 105.252 391.743Z" fill="#4A7691"/>
<path d="M113.592 384.948C113.592 383.413 112.347 382.168 110.812 382.168H79.9255C78.3905 382.168 77.1455 383.413 77.1455 384.948C77.1455 386.483 78.3895 387.728 79.9255 387.728H110.812C112.348 387.728 113.592 386.483 113.592 384.948Z" fill="#4A7691"/>
<path d="M113.592 384.948V403.48C113.592 405.015 114.837 406.26 116.372 406.26H147.258C148.793 406.26 150.038 405.016 150.038 403.48V384.948H113.592Z" fill="#4A7691"/>
<path d="M141.699 391.743V384.948H121.932V391.743C121.932 397.201 126.357 401.627 131.816 401.627C137.274 401.626 141.699 397.201 141.699 391.743Z" fill="#4A7691"/>
<path d="M150.038 384.948C150.038 383.413 148.793 382.168 147.258 382.168H116.372C114.837 382.168 113.592 383.413 113.592 384.948C113.592 386.483 114.836 387.728 116.372 387.728H147.258C148.793 387.728 150.038 386.483 150.038 384.948Z" fill="#4A7691"/>
<path d="M150.038 384.948V403.48C150.038 405.015 151.283 406.26 152.818 406.26H183.704C185.239 406.26 186.484 405.016 186.484 403.48V384.948H150.038Z" fill="#4A7691"/>
<path d="M178.143 391.743V384.948H158.376V391.743C158.376 397.201 162.801 401.627 168.259 401.627C173.718 401.626 178.143 397.201 178.143 391.743Z" fill="#4A7691"/>
<path d="M186.484 384.948C186.484 383.413 185.24 382.168 183.704 382.168H152.818C151.283 382.168 150.038 383.413 150.038 384.948C150.038 386.483 151.283 387.728 152.818 387.728H183.704C185.239 387.728 186.484 386.483 186.484 384.948Z" fill="#4A7691"/>
<path d="M186.484 384.948V403.48C186.484 405.015 187.729 406.26 189.264 406.26H220.15C221.685 406.26 222.93 405.016 222.93 403.48V384.948H186.484Z" fill="#4A7691"/>
<path d="M214.59 391.743V384.948H194.823V391.743C194.823 397.201 199.248 401.627 204.706 401.627C210.165 401.626 214.59 397.201 214.59 391.743Z" fill="#4A7691"/>
<path d="M222.929 384.948C222.929 383.413 221.684 382.168 220.149 382.168H189.263C187.728 382.168 186.483 383.413 186.483 384.948C186.483 386.483 187.728 387.728 189.263 387.728H220.149C221.685 387.728 222.929 386.483 222.929 384.948Z" fill="#4A7691"/>
<path d="M222.929 384.948V403.48C222.929 405.015 224.173 406.26 225.709 406.26H256.595C258.13 406.26 259.375 405.016 259.375 403.48V384.948H222.929Z" fill="#4A7691"/>
<path d="M251.036 391.743V384.948H231.269V391.743C231.269 397.201 235.694 401.627 241.153 401.627C246.611 401.626 251.036 397.201 251.036 391.743Z" fill="#4A7691"/>
<path d="M259.375 384.948C259.375 383.413 258.13 382.168 256.595 382.168H225.709C224.174 382.168 222.929 383.413 222.929 384.948C222.929 386.483 224.173 387.728 225.709 387.728H256.595C258.13 387.728 259.375 386.483 259.375 384.948Z" fill="#4A7691"/>
<path d="M40.7007 364.416V382.948C40.7007 384.483 41.9457 385.728 43.4807 385.728H74.3667C75.9017 385.728 77.1467 384.483 77.1467 382.948V364.416H40.7007Z" fill="#4A7691"/>
<path d="M68.8075 371.211V364.416H49.0396V371.211C49.0396 376.67 53.4646 381.095 58.9226 381.095C64.3816 381.095 68.8075 376.67 68.8075 371.211Z" fill="#4A7691"/>
<path d="M77.1467 364.416C77.1467 362.881 75.9017 361.636 74.3667 361.636H43.4807C41.9457 361.636 40.7007 362.881 40.7007 364.416C40.7007 365.951 41.9457 367.196 43.4807 367.196H74.3667C75.9017 367.196 77.1467 365.951 77.1467 364.416Z" fill="#4A7691"/>
<path d="M77.1465 364.416V382.948C77.1465 384.483 78.3905 385.728 79.9265 385.728H110.812C112.347 385.728 113.592 384.483 113.592 382.948V364.416H77.1465Z" fill="#4A7691"/>
<path d="M105.252 371.211V364.416H85.4854V371.211C85.4854 376.67 89.9104 381.095 95.3694 381.095C100.827 381.095 105.252 376.67 105.252 371.211Z" fill="#4A7691"/>
<path d="M113.592 364.416C113.592 362.881 112.347 361.636 110.812 361.636H79.9255C78.3905 361.636 77.1455 362.881 77.1455 364.416C77.1455 365.951 78.3895 367.196 79.9255 367.196H110.812C112.348 367.196 113.592 365.951 113.592 364.416Z" fill="#4A7691"/>
<path d="M113.592 364.416V382.948C113.592 384.483 114.837 385.728 116.372 385.728H147.258C148.793 385.728 150.038 384.483 150.038 382.948V364.416H113.592Z" fill="#4A7691"/>
<path d="M141.699 371.211V364.416H121.932V371.211C121.932 376.67 126.357 381.095 131.816 381.095C137.274 381.095 141.699 376.67 141.699 371.211Z" fill="#4A7691"/>
<path d="M150.038 364.416C150.038 362.881 148.793 361.636 147.258 361.636H116.372C114.837 361.636 113.592 362.881 113.592 364.416C113.592 365.951 114.836 367.196 116.372 367.196H147.258C148.793 367.196 150.038 365.951 150.038 364.416Z" fill="#4A7691"/>
<path d="M150.038 364.416V382.948C150.038 384.483 151.283 385.728 152.818 385.728H183.704C185.239 385.728 186.484 384.483 186.484 382.948V364.416H150.038Z" fill="#4A7691"/>
<path d="M178.143 371.211V364.416H158.376V371.211C158.376 376.67 162.801 381.095 168.259 381.095C173.718 381.095 178.143 376.67 178.143 371.211Z" fill="#4A7691"/>
<path d="M186.484 364.416C186.484 362.881 185.24 361.636 183.704 361.636H152.818C151.283 361.636 150.038 362.881 150.038 364.416C150.038 365.951 151.283 367.196 152.818 367.196H183.704C185.239 367.196 186.484 365.951 186.484 364.416Z" fill="#4A7691"/>
<path d="M186.484 364.416V382.948C186.484 384.483 187.729 385.728 189.264 385.728H220.15C221.685 385.728 222.93 384.483 222.93 382.948V364.416H186.484Z" fill="#4A7691"/>
<path d="M214.59 371.211V364.416H194.823V371.211C194.823 376.67 199.248 381.095 204.706 381.095C210.165 381.095 214.59 376.67 214.59 371.211Z" fill="#4A7691"/>
<path d="M222.929 364.416C222.929 362.881 221.684 361.636 220.149 361.636H189.263C187.728 361.636 186.483 362.881 186.483 364.416C186.483 365.951 187.728 367.196 189.263 367.196H220.149C221.685 367.196 222.929 365.951 222.929 364.416Z" fill="#4A7691"/>
<path d="M222.929 364.416V382.948C222.929 384.483 224.173 385.728 225.709 385.728H256.595C258.13 385.728 259.375 384.483 259.375 382.948V364.416H222.929Z" fill="#4A7691"/>
<path d="M251.036 371.211V364.416H231.269V371.211C231.269 376.67 235.694 381.095 241.153 381.095C246.611 381.095 251.036 376.67 251.036 371.211Z" fill="#4A7691"/>
<path d="M259.375 364.416C259.375 362.881 258.13 361.636 256.595 361.636H225.709C224.174 361.636 222.929 362.881 222.929 364.416C222.929 365.951 224.173 367.196 225.709 367.196H256.595C258.13 367.196 259.375 365.951 259.375 364.416Z" fill="#4A7691"/>
</g>
<path d="M243.208 462.216C336.184 462.216 411.556 451.011 411.556 437.19C411.556 423.369 336.184 412.164 243.208 412.164C150.232 412.164 74.8599 423.369 74.8599 437.19C74.8599 451.011 150.232 462.216 243.208 462.216Z" fill="#4A7691"/>
<path d="M302.012 275.907H254.639V323.28H302.012V275.907Z" fill="#FFBA55"/>
<path d="M348.958 305.275H301.585V352.648H348.958V305.275Z" fill="#4A7691"/>
<path d="M407.74 293.261H360.367V352.648H407.74V293.261Z" fill="#F73C4D"/>
<path d="M319.791 293.261H263.147V352.648H319.791V293.261Z" fill="#5E1212"/>
<path d="M235.732 215.273L234.583 225.207L174.983 205.668C167.902 203.343 162.392 197.735 160.203 190.613L146.381 145.649C145.462 142.668 145.736 139.668 146.878 137.103C148.78 132.794 153.106 129.671 158.337 129.769C158.477 129.776 158.617 129.773 158.757 129.78C163.89 130.042 168.34 133.494 169.849 138.448L184.651 186.757L222.073 207.645L235.732 215.273Z" fill="#F2685A"/>
<path d="M219.723 209.666C222.431 209.775 225.138 209.884 227.845 209.993C229.428 210.057 231.072 210.136 232.476 210.871C234.444 211.901 235.6 214.08 235.955 216.273C236.309 218.466 235.978 220.705 235.648 222.901C230.348 220.385 225.024 217.896 219.724 215.38C218.41 214.756 216.892 213.823 216.919 212.369C216.947 210.902 218.37 210.232 219.723 209.666Z" fill="#FF8F6A"/>
<path d="M333.996 306.884C326.096 306.884 319.692 300.48 319.692 292.58V244.202C319.692 236.302 326.096 229.898 333.996 229.898C341.896 229.898 348.3 236.302 348.3 244.202V292.58C348.301 300.48 341.896 306.884 333.996 306.884Z" fill="#CF7C48"/>
<path d="M325.712 291.418C329.912 291.278 334.278 289.984 338.257 287.449C342.236 284.914 345.254 281.504 347.156 277.757L325.712 291.418Z" fill="#A65828"/>
<path d="M323.436 275.474C327.636 275.335 332.002 274.04 335.981 271.505C339.96 268.97 342.978 265.56 344.88 261.813L323.436 275.474Z" fill="#A65828"/>
<path d="M321.158 259.53C325.358 259.391 329.724 258.096 333.703 255.561C337.682 253.026 340.7 249.616 342.602 245.869L321.158 259.53Z" fill="#A65828"/>
<path d="M365.014 252.172H347.173C346.628 252.172 346.132 251.854 345.905 251.359L340.235 239.012C339.316 237.012 339.477 234.711 340.666 232.858C341.854 231.005 343.878 229.898 346.079 229.898H366.109C368.31 229.898 370.334 231.005 371.522 232.858C372.71 234.711 372.871 237.012 371.953 239.012L366.283 251.359C366.055 251.854 365.559 252.172 365.014 252.172ZM348.068 249.381H364.119L369.415 237.848C369.943 236.699 369.854 235.429 369.172 234.365C368.49 233.3 367.373 232.69 366.108 232.69H346.078C344.814 232.69 343.697 233.301 343.014 234.365C342.331 235.429 342.243 236.699 342.771 237.848L348.068 249.381Z" fill="#4A7691"/>
<path d="M358.536 240.132H353.652C350.055 240.132 347.14 243.048 347.14 246.644H365.049C365.049 243.048 362.133 240.132 358.536 240.132Z" fill="#4A7691"/>
<path d="M374.939 264.83V290.219C374.939 292.954 373.832 295.429 372.046 297.215C370.25 299.011 367.785 300.118 365.05 300.118H347.14C341.679 300.118 337.241 295.69 337.241 290.219V264.83C337.241 263.007 337.706 261.248 338.562 259.695C339.409 258.151 340.655 256.811 342.19 255.834C345.269 253.88 347.14 250.484 347.14 246.838V246.643H365.049V246.838C365.049 248.662 365.514 250.42 366.37 251.973C367.226 253.517 368.454 254.857 369.998 255.834C373.078 257.787 374.939 261.183 374.939 264.83Z" fill="#4A7691"/>
<path d="M366.007 264.83V290.219C366.007 292.954 364.9 295.429 363.114 297.215C361.318 299.011 358.844 300.118 356.108 300.118H347.14C341.679 300.118 337.241 295.69 337.241 290.219V264.83C337.241 263.007 337.706 261.248 338.562 259.695C339.409 258.151 340.655 256.811 342.19 255.834C345.269 253.88 347.14 250.484 347.14 246.838V246.643H356.108V246.838C356.108 248.662 356.573 250.42 357.429 251.973C358.276 253.517 359.522 254.857 361.057 255.834C364.137 257.787 366.007 261.183 366.007 264.83Z" fill="#6BA3C6"/>
<path d="M406.216 264.997V303.067L403.09 304.788L399.964 303.067L396.838 304.788L393.712 303.067L390.586 304.788L387.46 303.067L384.334 304.788L381.208 303.067L378.073 304.788L374.938 303.067V264.997L378.063 263.276L381.189 264.997L384.315 263.276L387.441 264.997L390.567 263.276L393.693 264.997L396.819 263.276L399.945 264.997L402.038 263.853L403.08 263.276L406.216 264.997Z" fill="#489DA2"/>
<path d="M406.216 264.997V303.067L403.09 304.788L399.964 303.067L396.838 304.788L393.712 303.067L390.586 304.788L387.46 303.067L384.334 304.788L381.208 303.067L378.073 304.788L374.938 303.067V300.657C388.93 293.447 399.266 279.352 402.039 263.852L403.081 263.275L406.216 264.997Z" fill="#3C8387"/>
<path d="M389.049 293.656C394.363 293.656 398.672 289.348 398.672 284.033C398.672 278.718 394.363 274.41 389.049 274.41C383.734 274.41 379.426 278.718 379.426 284.033C379.426 289.348 383.734 293.656 389.049 293.656Z" fill="#F73C4D"/>
<path d="M400.3 278.646L376.643 284.772L377.84 289.397L401.498 283.271L400.3 278.646Z" fill="#FFBA55"/>
<path d="M394.614 300.115H381.86V354.807H394.614V300.115Z" fill="#FFA145"/>
<path d="M381.86 300.115H339.706V354.807H381.86V300.115Z" fill="#FFBA55"/>
<path d="M378.622 328.868C378.622 338.413 370.872 346.163 361.327 346.163C351.772 346.163 344.032 338.413 344.032 328.868C344.032 327.575 344.172 326.309 344.451 325.1C346.163 317.36 353.066 311.573 361.327 311.573C367.96 311.573 373.719 315.313 376.622 320.793C377.896 323.203 378.622 325.947 378.622 328.868Z" fill="#F73C4D"/>
<path d="M376.621 320.793C372.072 324.849 364.973 327.464 357 327.464C352.423 327.464 348.134 326.608 344.45 325.101C346.162 317.361 353.065 311.574 361.326 311.574C367.96 311.573 373.719 315.313 376.621 320.793Z" fill="#3A306F"/>
<path d="M320.737 310.276H312.198V314.599H320.737V310.276Z" fill="#3A306F"/>
<path d="M333.436 328.103V348.859C333.436 352.143 330.775 354.804 327.491 354.804H305.442C302.158 354.804 299.497 352.143 299.497 348.859V328.103C299.497 321.153 304.744 315.432 311.499 314.678C311.992 314.622 312.494 314.594 313.006 314.594H319.928C327.388 314.594 333.436 320.641 333.436 328.103Z" fill="#E03746"/>
<path d="M323.49 328.103V348.859C323.49 352.143 320.829 354.804 317.545 354.804H305.441C302.157 354.804 299.496 352.143 299.496 348.859V328.103C299.496 321.153 304.743 315.432 311.498 314.678C318.252 315.431 323.49 321.153 323.49 328.103Z" fill="#F73C4D"/>
<path d="M333.435 332.804V347.196C329.351 349.606 323.266 351.131 316.466 351.131C309.665 351.131 303.581 349.605 299.496 347.196V332.804C303.58 330.394 309.665 328.869 316.466 328.869C323.266 328.868 329.35 330.394 333.435 332.804Z" fill="#3A306F"/>
<path d="M292.279 315.606H269.797V319.306H292.279V315.606Z" fill="#3C8387"/>
<path d="M292.278 319.306L296.517 328.868H285.229L288.04 321.733L292.278 319.306Z" fill="#3C8387"/>
<path d="M288.041 328.868H265.559L269.797 319.306H292.279L288.041 328.868Z" fill="#489DA2"/>
<path d="M296.518 328.868H288.041V354.807H296.518V328.868Z" fill="#3C8387"/>
<path d="M288.041 328.868H265.559V354.807H288.041V328.868Z" fill="#489DA2"/>
<path d="M284.573 326.305C285.858 326.305 286.899 325.264 286.899 323.979C286.899 322.694 285.858 321.653 284.573 321.653C283.288 321.653 282.247 322.694 282.247 323.979C282.247 325.264 283.288 326.305 284.573 326.305Z" fill="white"/>
<path d="M316.047 310.276H287.425C281.557 310.276 276.8 305.519 276.8 299.651V289.282C276.8 283.414 281.557 278.657 287.425 278.657H316.047C321.915 278.657 326.671 283.414 326.671 289.282V299.651C326.671 305.519 321.914 310.276 316.047 310.276Z" fill="#F2E0D2"/>
<path d="M293.706 284.588C293.706 284.588 298.882 280.799 307.149 281.804L308.771 287.985L293.706 284.588Z" fill="#A65828"/>
<path d="M323.435 290.132C319.79 289.305 316.466 291.993 316.466 291.993C305.294 281.378 291.619 284.588 291.619 284.588C291.619 284.588 290.383 287.1 290.151 287.1L289.61 295.021L290.151 302.942C290.383 302.942 292.278 306.856 292.278 306.856C292.278 306.856 305.294 308.663 316.466 298.048C316.466 298.048 319.789 300.736 323.435 299.909L319.739 295.02L323.435 290.132Z" fill="#CF7C48"/>
<path d="M291.62 284.588C291.62 284.588 298.805 292.625 294.478 306.885C294.478 306.885 284.898 307.376 279.413 302.354L282.246 299.805L277.804 293.843C277.804 293.843 280.263 285.125 291.62 284.588Z" fill="#A65828"/>
<path d="M298.612 298.568L305.102 301.736C305.102 301.736 301.394 304.595 297.376 302.045L298.612 298.568Z" fill="#A65828"/>
<path d="M290.23 290.649C290.23 291.438 289.59 292.078 288.801 292.078C288.012 292.078 287.372 291.438 287.372 290.649C287.372 289.86 288.012 289.22 288.801 289.22C289.59 289.22 290.23 289.86 290.23 290.649Z" fill="#3A306F"/>
<path d="M268.197 274.858H264.999C263.79 274.858 262.809 275.838 262.809 277.048V277.75C262.809 278.959 263.789 279.94 264.999 279.94H268.197C269.406 279.94 270.387 278.96 270.387 277.75V277.048C270.387 275.838 269.406 274.858 268.197 274.858Z" fill="#3A306F"/>
<path d="M274.982 297.485V314.641C274.982 316.195 273.81 317.46 272.368 317.46H260.832C259.39 317.46 258.218 316.195 258.218 314.641V297.485C258.218 294.796 258.776 292.145 259.855 289.726L264.228 279.939H268.973L273.336 289.726C274.424 292.145 274.982 294.796 274.982 297.485Z" fill="#E03746"/>
<path d="M271.195 297.485V314.641C271.195 316.195 270.023 317.46 268.581 317.46H260.831C259.389 317.46 258.217 316.195 258.217 314.641V297.485C258.217 294.796 258.775 292.145 259.854 289.726L264.227 279.939H265.176L269.549 289.726C270.628 292.145 271.195 294.796 271.195 297.485Z" fill="#F73C4D"/>
<path d="M274.981 298.232H258.216V310.68H274.981V298.232Z" fill="#3A306F"/>
<path d="M272.171 306.224C271.622 307.954 270.813 309.471 269.845 310.68H260.979C260.132 308.596 260.086 305.675 261.026 302.688C261.575 300.958 262.384 299.441 263.343 298.232H272.219C273.064 300.316 273.111 303.237 272.171 306.224Z" fill="#FFBA55"/>
<path d="M314.741 278.928C311.303 278.928 308.517 276.141 308.517 272.704V270.672H320.965V272.704C320.965 276.141 318.178 278.928 314.741 278.928Z" fill="#6BA3C6"/>
<path d="M302.292 278.928C298.854 278.928 296.068 276.141 296.068 272.704V270.672H308.516V272.704C308.516 276.141 305.73 278.928 302.292 278.928Z" fill="#6BA3C6"/>
<path d="M289.844 278.928C286.406 278.928 283.62 276.141 283.62 272.704V270.672H296.069V272.704C296.068 276.141 293.281 278.928 289.844 278.928Z" fill="#6BA3C6"/>
<path d="M277.395 278.928C273.957 278.928 271.171 276.141 271.171 272.704V270.672H283.619V272.704C283.619 276.141 280.833 278.928 277.395 278.928Z" fill="#6BA3C6"/>
<path d="M324.824 268.893H269.011L271.15 264.519C272.277 262.215 274.617 260.754 277.182 260.754H316.653C319.218 260.754 321.558 262.215 322.685 264.519L324.824 268.893Z" fill="#6BA3C6"/>
<path d="M325.713 268.893H268.122V272.713H325.713V268.893Z" fill="#5C93B5"/>
<path d="M238.21 223.667L232.424 225.254L239.784 252.09L245.57 250.503L238.21 223.667Z" fill="#3A306F"/>
<path d="M226.618 443.516L198.954 451.194L192.126 444.652L194.3 452.486L192.344 453.029L188.335 438.585C188.335 438.585 187.603 429.292 182.764 418.514C178.702 409.45 169.831 397.829 169.45 376.338C169.371 372.24 169.598 367.787 170.24 362.918C170.24 362.918 169.756 325.09 156.488 298.188L188.638 287.677L197.85 369.815L205.278 435.989C205.278 435.989 225.259 438.621 226.618 443.516Z" fill="#F2685A"/>
<path d="M226.618 443.516L198.954 451.194L192.126 444.652L194.3 452.486L192.344 453.029L188.335 438.585C188.335 438.585 187.603 429.292 182.764 418.514C178.702 409.45 169.831 397.829 169.45 376.338C178.927 371.13 189.131 368.612 200.218 369.365L205.278 435.989C205.278 435.989 225.259 438.621 226.618 443.516Z" fill="#251F47"/>
<path d="M150.937 372.323L140.397 438.073C140.397 438.073 158.947 445.953 158.947 451.033H130.237L125.407 442.903V451.033H123.377V436.043C123.377 436.043 125.157 426.893 123.377 415.213C122.437 409.013 119.917 401.323 119.547 391.253C119.327 385.373 119.847 378.683 121.827 371.013C122.847 367.043 124.257 362.813 126.177 358.293C126.177 358.293 135.827 321.713 130.237 292.243L164.027 290.713L162.587 299.723L150.937 372.323Z" fill="#FF8F6A"/>
<path d="M162.587 299.723C154.257 302.013 145.917 304.313 137.587 306.603C141.867 320.553 137.137 334.633 133.097 348.653C129.057 362.683 125.147 377.793 129.877 391.603C126.867 393.103 123.147 392.713 119.547 391.253C119.327 385.373 119.847 378.683 121.827 371.013C122.847 367.043 124.257 362.813 126.177 358.293C126.177 358.293 135.827 321.713 130.237 292.243L164.027 290.713L162.587 299.723Z" fill="#F2685A"/>
<path d="M158.946 451.031H130.236L125.406 442.901V451.031H123.376V436.041C123.376 436.041 125.156 426.891 123.376 415.211C121.886 405.391 116.446 391.821 121.826 371.011C132.351 368.528 142.857 368.83 153.339 372.521L140.397 438.071C140.397 438.071 158.946 445.951 158.946 451.031Z" fill="#3A306F"/>
<path d="M205.597 299.593H117.247L133.217 130.003L139.137 129.113L168.747 124.673L191.757 150.333C195.207 154.183 197.057 159.293 196.537 164.433C196.447 165.303 196.297 166.183 196.067 167.063C194.837 171.763 191.337 176.443 182.947 178.613L187.417 202.503L188.957 210.733L190.847 220.813L203.327 287.443L205.597 299.593Z" fill="#F73C4D"/>
<path d="M190.847 220.813L175.957 216.663C165.827 213.843 157.837 206.023 154.807 195.953L141.747 152.513L175.287 193.033L188.957 210.733L190.847 220.813Z" fill="#E03746"/>
<path d="M182.947 178.613L187.417 202.503C172.237 193.663 161.167 177.613 159.677 160.103C166.127 167.353 176.037 171.383 185.717 170.683C188.677 170.473 191.657 169.823 194.227 168.343C194.867 167.973 195.487 167.543 196.067 167.063C194.837 171.763 191.337 176.443 182.947 178.613Z" fill="#E03746"/>
<path d="M205.597 299.593H117.247L133.217 130.003L139.137 129.113C139.337 130.103 139.447 131.043 139.447 131.853L139.467 227.083C139.477 262.563 169.587 289.563 203.327 287.443L205.597 299.593Z" fill="#E03746"/>
<path d="M234.537 217.483L233.897 227.463L173.377 210.993C166.187 209.033 160.397 203.713 157.847 196.713L141.747 152.513C140.677 149.583 140.797 146.573 141.807 143.953C143.487 139.553 147.647 136.213 152.877 136.043C153.017 136.043 153.157 136.033 153.297 136.033C158.437 136.033 163.057 139.253 164.817 144.123L182.067 191.613L220.507 210.563L234.537 217.483Z" fill="#FF8F6A"/>
<path d="M220.697 211.993C208.037 206.413 195.247 200.483 182.587 194.903C180.847 196.803 178.667 197.703 176.187 198.403C177.007 196.533 177.937 195.363 178.757 193.483C174.447 182.073 170.137 170.663 165.827 159.253C164.167 154.863 162.457 150.383 159.447 146.783C156.437 143.183 151.837 140.563 147.177 141.183C145.157 141.443 143.237 142.483 141.807 143.953C143.487 139.553 147.647 136.213 152.877 136.043C153.017 136.043 153.157 136.033 153.297 136.033C158.437 136.033 163.057 139.253 164.817 144.123L182.067 191.613L220.507 210.563C220.567 211.043 220.627 211.523 220.697 211.993Z" fill="#F2685A"/>
<path d="M172.986 53.921C178.715 52.464 185.091 53.829 189.721 57.503C194.351 61.177 197.129 67.077 197.012 72.986C196.957 75.773 196.298 78.558 196.627 81.327C197.144 85.678 200.015 89.371 203.096 92.485C206.178 95.599 209.632 98.452 211.862 102.223C216.259 109.655 214.846 119.7 209.501 126.482C204.156 133.264 195.49 136.929 186.869 137.424C178.248 137.919 169.667 135.513 161.828 131.891V58.06C165.593 58.06 169.337 54.849 172.986 53.921Z" fill="#450D0D"/>
<path d="M171.631 103.362V130H163.64V101.142L171.631 103.362Z" fill="#F2685A"/>
<path d="M182.952 59.632C182.952 59.632 193.385 62.074 192.941 73.395L192.955 82.94L195.161 90.265H192.275C192.275 90.265 192.053 106.026 183.84 107.357C175.627 108.689 160.088 103.583 160.088 103.583L158.312 75.17L176.07 60.52L182.952 59.632Z" fill="#FF8F6A"/>
<path d="M188.077 66.493C188.017 71.763 186.677 77.223 182.607 80.563C178.537 83.913 172.777 85.013 167.707 83.593C164.547 86.613 163.037 91.883 162.897 96.253C162.757 100.633 164.387 105.033 167.357 108.253C170.187 111.333 174.127 113.323 176.617 116.693C179.717 120.893 179.997 126.803 177.937 131.603C175.887 136.403 171.737 140.123 167.017 142.353C162.297 144.583 157.017 145.443 151.797 145.613C146.417 145.793 140.957 145.263 135.807 143.703C134.147 143.203 132.517 142.593 130.937 141.863C124.467 138.883 118.817 133.823 115.867 127.333C112.917 120.843 112.907 112.903 116.537 106.773C120.317 100.363 127.437 96.503 131.337 90.173C136.907 81.133 134.977 68.693 141.347 60.213C145.487 54.723 152.477 51.973 159.327 51.443C160.737 51.333 162.797 51.333 165.167 51.523C174.327 52.243 188.207 55.753 188.077 66.493Z" fill="#5E1212"/>
<path d="M350.574 433.631C346.269 433.631 343.409 429.176 345.2 425.262L347.855 419.461H364.526L355.232 431.359C354.111 432.793 352.394 433.631 350.574 433.631Z" fill="#3A306F"/>
<path d="M349.63 447.235C355.178 447.235 359.675 442.738 359.675 437.19C359.675 431.642 355.178 427.145 349.63 427.145C344.082 427.145 339.585 431.642 339.585 437.19C339.585 442.738 344.082 447.235 349.63 447.235Z" fill="#17132B"/>
<path d="M354.592 437.19C354.592 439.93 352.371 442.152 349.63 442.152C346.89 442.152 344.668 439.931 344.668 437.19C344.668 434.449 346.889 432.228 349.63 432.228C352.37 432.228 354.592 434.45 354.592 437.19Z" fill="#F73C4D"/>
<path d="M282.406 433.631C278.101 433.631 275.241 429.176 277.032 425.262L279.687 419.461H296.358L287.064 431.359C285.943 432.793 284.225 433.631 282.406 433.631Z" fill="#3A306F"/>
<path d="M281.462 447.235C287.01 447.235 291.507 442.738 291.507 437.19C291.507 431.642 287.01 427.145 281.462 427.145C275.914 427.145 271.417 431.642 271.417 437.19C271.417 442.738 275.914 447.235 281.462 447.235Z" fill="#17132B"/>
<path d="M286.423 437.19C286.423 439.93 284.202 442.152 281.461 442.152C278.721 442.152 276.499 439.931 276.499 437.19C276.499 434.449 278.72 432.228 281.461 432.228C284.202 432.228 286.423 434.45 286.423 437.19Z" fill="#F73C4D"/>
<path d="M303.819 422.461C298.55 422.461 293.804 419.753 291.123 415.217C288.442 410.681 288.358 405.217 290.898 400.602L316.815 353.515L322.072 356.408L296.155 403.495C294.648 406.233 294.698 409.474 296.288 412.165C297.878 414.855 300.693 416.462 303.818 416.462V422.461H303.819Z" fill="#3A306F"/>
<path d="M381.053 422.461H256.43C251.161 422.461 246.415 419.753 243.734 415.217C241.053 410.681 240.969 405.217 243.51 400.602L269.426 353.515L274.683 356.408L248.767 403.495C247.26 406.233 247.31 409.474 248.9 412.165C250.49 414.855 253.305 416.462 256.431 416.462H381.054V422.461H381.053Z" fill="#3A306F"/>
<path d="M408.555 322.961H257.187V328.961H408.555V322.961Z" fill="#3A306F"/>
<path d="M286.198 254.599L280.222 255.126L289.045 355.222L295.021 354.696L286.198 254.599Z" fill="#3A306F"/>
<path d="M324.555 259.02H318.555V354.961H324.555V259.02Z" fill="#3A306F"/>
<path d="M355.055 262.33H349.055V354.961H355.055V262.33Z" fill="#3A306F"/>
<path d="M384.054 265.477H378.054V354.961H384.054V265.477Z" fill="#3A306F"/>
<path d="M248.51 279.019L247.862 284.984L408.252 302.391L408.899 296.426L248.51 279.019Z" fill="#3A306F"/>
<path d="M411.554 357.961H259.56L238.986 247.043L411.555 265.769V357.961H411.554ZM264.549 351.961H405.554V271.153L246.355 253.878L264.549 351.961Z" fill="#3A306F"/>
<path d="M241.187 226.042C239.656 230.039 235.175 232.038 231.178 230.507L213.902 223.89C209.905 222.359 207.906 217.878 209.437 213.881C210.968 209.884 215.449 207.885 219.446 209.416L236.722 216.033C240.719 217.563 242.718 222.045 241.187 226.042Z" fill="#F73C4D"/>
<path d="M144.007 93.753C145.277 106.573 152.037 119.673 147.417 131.693C145.337 137.083 141.017 141.233 135.807 143.703C134.147 143.203 132.517 142.593 130.937 141.863C124.467 138.883 118.817 133.823 115.867 127.333C112.917 120.843 112.907 112.903 116.537 106.773C120.317 100.363 127.437 96.503 131.337 90.173C136.907 81.133 134.977 68.693 141.347 60.213C145.487 54.723 152.477 51.973 159.327 51.443C160.737 51.333 162.797 51.333 165.167 51.523C151.217 60.343 142.357 77.223 144.007 93.753Z" fill="#450D0D"/>
<path d="M184.623 86.336C185.736 86.336 186.639 85.0439 186.639 83.45C186.639 81.8561 185.736 80.564 184.623 80.564C183.51 80.564 182.607 81.8561 182.607 83.45C182.607 85.0439 183.51 86.336 184.623 86.336Z" fill="#450D0D"/>
<path d="M176.441 95.418C179.098 95.418 181.252 94.0722 181.252 92.412C181.252 90.7518 179.098 89.406 176.441 89.406C173.784 89.406 171.63 90.7518 171.63 92.412C171.63 94.0722 173.784 95.418 176.441 95.418Z" fill="#F2685A"/>
<path d="M180.478 78.666C182.856 76.854 186.193 76.384 188.979 77.471C189.057 78.223 188.989 78.878 189.067 79.63C186.121 78.729 182.754 79.611 180.686 81.894C180.73 80.913 180.434 79.647 180.478 78.666Z" fill="#450D0D"/>
<path d="M179.334 96.609C181.788 97.884 184.242 99.159 186.696 100.434C186.133 102.003 184.062 103.437 182.395 103.475C180.728 103.513 179.091 102.442 178.458 100.9C177.936 99.63 178.552 97.739 179.334 96.609Z" fill="white"/>
</g>
<defs>
<clipPath id="clip0_53_6">
<rect width="500" height="500" fill="white"/>
</clipPath>
</defs>
</svg>
