<svg xmlns="http://www.w3.org/2000/svg" fill="none" viewBox="33.72 95.83 434.03 303.23">
<path d="M460.075 399.06H62.0069C57.7709 399.06 54.3359 395.626 54.3359 391.389C54.3359 387.153 57.7699 383.718 62.0069 383.718H460.075C464.311 383.718 467.746 387.152 467.746 391.389C467.745 395.626 464.311 399.06 460.075 399.06Z" fill="#FF7129"/>
<path d="M421.778 307.045H171.568C159.358 307.045 149.459 297.147 149.459 284.936V117.939C149.459 105.729 159.357 95.83 171.568 95.83H421.778C433.988 95.83 443.887 105.728 443.887 117.939V284.936C443.887 297.146 433.988 307.045 421.778 307.045Z" fill="#F5F5F5"/>
<path opacity="0.5" d="M443.887 127.932H149.458V117.939C149.458 105.729 159.356 95.83 171.567 95.83H421.777C433.987 95.83 443.886 105.728 443.886 117.939V127.932H443.887Z" fill="#D6D6D6"/>
<path d="M394.622 116.728H220.446C217.769 116.728 215.599 114.558 215.599 111.881C215.599 109.204 217.769 107.034 220.446 107.034H394.623C397.3 107.034 399.47 109.204 399.47 111.881C399.47 114.558 397.299 116.728 394.622 116.728Z" fill="#F5F5F5"/>
<path d="M170.602 111.881C170.602 114.068 168.829 115.841 166.642 115.841C164.455 115.841 162.682 114.068 162.682 111.881C162.682 109.694 164.455 107.921 166.642 107.921C168.829 107.921 170.602 109.694 170.602 111.881Z" fill="#F5F5F5"/>
<path d="M185.386 111.881C185.386 114.068 183.613 115.841 181.426 115.841C179.239 115.841 177.466 114.068 177.466 111.881C177.466 109.694 179.239 107.921 181.426 107.921C183.613 107.921 185.386 109.694 185.386 111.881Z" fill="#F5F5F5"/>
<path d="M199.927 111.881C199.927 114.068 198.154 115.841 195.967 115.841C193.78 115.841 192.007 114.068 192.007 111.881C192.007 109.694 193.78 107.921 195.967 107.921C198.154 107.921 199.927 109.694 199.927 111.881Z" fill="#F5F5F5"/>
<path d="M317.688 174.169L292.794 199.062L267.901 174.169L252.879 189.191L277.773 214.084L252.879 238.977L267.901 253.999L292.794 229.105L317.688 253.999L332.71 238.977L307.816 214.084L332.71 189.19L317.688 174.169Z" fill="#D6D6D6"/>
<path d="M396.142 383.719H294.18L302.235 268.374C302.715 261.493 308.683 255.915 315.564 255.915H392.609C399.49 255.915 404.678 261.493 404.198 268.374L396.142 383.719Z" fill="#1282D6"/>
<path d="M381.142 383.719H279.18L287.235 268.374C287.715 261.493 293.683 255.915 300.564 255.915H377.609C384.49 255.915 389.678 261.493 389.198 268.374L381.142 383.719Z" fill="#3897E9"/>
<path d="M339.822 255.916C343.627 259.461 345.125 262.821 345.754 265.383C347.037 270.616 345.941 277.621 345.938 277.685C347.906 280.02 350.413 283.166 353.104 287.039C353.104 287.039 359.121 295.7 363.365 304.688C368.653 315.887 377.225 334.04 373.225 353.353C370.16 368.151 359.696 383.719 359.696 383.719H301.683L308.791 255.901L339.822 255.916Z" fill="#1282D6"/>
<path d="M231.273 183.562C231.558 182.648 236.225 168.302 247.187 163.417C252.433 161.08 258.346 160.856 258.346 160.856C258.957 160.833 261.481 160.757 264.881 161.315C264.881 161.315 272.727 162.265 278.448 166.321C288.515 173.46 294.349 191.334 293.276 206.879C292.894 212.406 291.583 218.083 295.177 222.33C297.116 224.621 300.332 225.382 304.894 226.78C314.372 229.684 329.964 233.353 336.231 246.041C342.499 258.729 343.263 276.614 339.135 281.506C335.008 286.398 236.506 285.939 233.018 282.117C229.53 278.295 223.11 259.799 222.345 245.123C221.665 232.078 230.804 226.675 233.018 210.595C234.56 199.397 232.903 189.854 231.273 183.562Z" fill="#262626"/>
<path d="M287.467 182.143C289.356 185.827 292.065 191.768 294.04 199.456C297.16 211.603 294.696 213.541 297.556 218.219C303.906 228.608 317.692 222.264 330.881 234.117C338.278 240.765 340.84 248.961 341.703 251.85C345.454 264.391 341.955 275.148 340.476 279.032" stroke="#262626" stroke-miterlimit="10" stroke-linecap="round" stroke-linejoin="round"/>
<path d="M234.88 206.449C233.034 210.611 230.058 217.2 226.167 225.252C219.06 239.958 217.077 242.63 217.614 247.874C218.545 256.958 226.293 266.472 226.293 266.472" stroke="#262626" stroke-miterlimit="10" stroke-linecap="round" stroke-linejoin="round"/>
<path d="M249.948 238.344C249.948 238.344 275.227 238.344 275.338 238.344C295.413 238.344 317.404 252.712 330.607 266.749C341.169 277.978 348.898 291.628 354.762 305.885C362.4 324.455 369.879 350.185 360.537 369.403C359.142 372.272 355.98 378.565 349.274 381.961C341.896 385.697 334.188 383.466 331.798 383.466C316.206 383.466 178.015 383.508 178.015 383.508C174.322 347.611 181.437 320.565 186.576 305.81C191.35 292.101 196.934 276.623 211.507 261.925C225.464 247.85 240.852 241.363 249.948 238.344Z" fill="#FEC02D"/>
<path d="M248.792 238.344L231.059 384.129L219.595 384.041L237.353 242.892L248.792 238.344Z" fill="#EAA418"/>
<path d="M262.593 249.073C269.705 249.1 275.492 243.357 275.519 236.245L275.624 208.535L249.871 208.437L249.766 236.148C249.739 243.259 255.482 249.046 262.593 249.073Z" fill="#F7A99C"/>
<path d="M249.794 228.391L266.567 219.774C266.397 221.226 265.444 228.029 259.461 232.727C255.641 235.727 251.627 236.412 249.773 236.606L249.794 228.391Z" fill="#FF7769"/>
<path d="M276.249 199.95C276.33 199.531 277.433 198.899 277.772 198.682C278.345 198.316 278.964 198.024 279.611 197.815C280.868 197.411 282.248 197.317 283.539 197.613C286.107 198.202 288.383 200.359 288.81 203.001C289.058 204.536 288.704 206.123 288.046 207.532C287.057 209.65 285.38 211.43 283.354 212.597C281.675 213.564 279.765 214.111 277.834 214.226C277.447 214.249 273.49 214.157 273.519 214.006C274.43 209.321 275.34 204.636 276.249 199.95Z" fill="#F7A99C"/>
<path d="M279.78 200.218C279.475 202.286 277.658 213.191 267.829 220.896C266.018 222.315 253.98 231.751 242.967 227.146C228.814 221.229 230.358 197.983 230.458 196.724C230.795 192.468 231.789 179.933 242.17 173.245C250.642 167.787 259.823 169.794 261.125 170.1C262.497 170.423 271.237 172.628 276.585 181.197C281.437 188.973 280.278 196.835 279.78 200.218Z" fill="#F7A99C"/>
<path d="M238.489 196.74C238.261 198.555 236.862 199.873 235.363 199.685C233.864 199.497 232.835 197.873 233.063 196.058C233.291 194.243 234.69 192.924 236.189 193.113C237.687 193.302 238.717 194.925 238.489 196.74Z" fill="#262626"/>
<path d="M254.842 198.794C254.614 200.609 253.215 201.927 251.717 201.739C250.219 201.551 249.189 199.927 249.417 198.112C249.645 196.297 251.044 194.979 252.542 195.167C254.04 195.355 255.07 196.979 254.842 198.794Z" fill="#262626"/>
<path d="M243.427 199.456L240.92 202.842C240.459 203.464 240.632 204.348 241.294 204.751L243.596 206.152" stroke="#262626" stroke-width="1.3478" stroke-miterlimit="10" stroke-linecap="round" stroke-linejoin="round"/>
<path d="M260.328 207.342C260.072 209.378 258.214 210.822 256.178 210.566C254.142 210.31 252.698 208.452 252.954 206.416C253.21 204.38 255.068 202.936 257.104 203.192C259.141 203.448 260.584 205.306 260.328 207.342Z" fill="#FF7769"/>
<path d="M277.977 209.262C277.965 208.854 277.93 206.089 280.149 204.094C281.887 202.531 283.909 202.429 284.461 202.419" stroke="#262626" stroke-width="1.3478" stroke-miterlimit="10" stroke-linecap="round" stroke-linejoin="round"/>
<path d="M279.934 204.64C280.057 204.621 281.545 204.414 282.583 205.539C283.437 206.463 283.359 207.607 283.343 207.797" stroke="#262626" stroke-width="1.3478" stroke-miterlimit="10" stroke-linecap="round" stroke-linejoin="round"/>
<path d="M232.383 201.465C231.679 201.377 231.001 201.503 230.398 201.775C230.47 203.77 230.662 206.19 231.1 208.757C231.219 208.784 231.333 208.823 231.457 208.839C233.493 209.095 235.352 207.651 235.607 205.615C235.863 203.579 234.42 201.721 232.383 201.465Z" fill="#FF7769"/>
<path d="M240.02 212.941C240.449 212.42 241.783 210.938 244.09 210.361C246.704 209.708 248.802 210.658 249.364 210.934" stroke="#262626" stroke-width="1.3478" stroke-miterlimit="10" stroke-linecap="round" stroke-linejoin="round"/>
<path d="M229.301 190.321H245.505C245.505 190.321 246.116 185.047 247.722 182.448C249.328 179.849 251.773 178.244 251.773 178.244C251.405 179.175 250.986 180.408 250.665 181.894C250.436 182.954 250.131 184.36 250.149 186.193C250.149 186.193 250.156 186.887 250.55 190.32H264.614C264.291 189.464 263.598 187.284 264.194 184.588C264.714 182.235 265.949 180.685 266.568 180.002C266.092 184.222 266.626 187.584 267.136 189.709C268.025 193.414 269.507 196.139 270.614 198.174C271.677 200.129 272.72 201.69 273.521 202.804C273.521 202.804 275.43 200.393 276.977 199.456C278.525 198.519 280.106 197.675 280.106 197.675C280.461 195.832 280.78 193.032 280.283 189.71C279.261 182.872 275.468 178.404 273.882 176.736C268.503 171.078 262.067 169.807 259.723 169.379C254.722 168.466 250.712 169.228 249.328 169.532C248.246 169.77 245.735 170.395 242.812 171.921C240.784 172.979 235.039 176.061 231.634 182.813C230.827 184.41 229.773 186.953 229.301 190.321Z" fill="#262626"/>
<path d="M246.518 239.55C246.518 239.55 230.83 303.824 228.996 325.378C227.162 346.932 226.474 384.128 226.474 384.128L178.015 383.51C177.028 376.55 176.145 367.083 176.486 355.875C177.285 329.677 184.282 310.193 187.034 303.136C193.512 286.521 201.334 266.457 221.658 251.773C231.056 244.984 240.198 241.46 246.518 239.55Z" fill="#555879"/>
<path d="M214.549 280.13L194.369 383.719H206.447L214.549 280.13Z" fill="#555879"/>
<path d="M218.065 261.633C216.957 267.864 215.225 278.279 213.676 291.293C211.779 307.232 212.064 311.056 208.944 351.793C208.009 364.006 206.447 383.719 206.447 383.719" stroke="#262626" stroke-miterlimit="10" stroke-linecap="round" stroke-linejoin="round"/>
<path d="M262.072 360.576C263.904 362.475 264.96 364.3 265.569 365.563C267.482 369.534 267.548 373.308 267.595 375.977C267.623 377.567 267.532 378.887 267.442 379.799C267.442 379.799 243.748 372.156 240.232 372.461C237.134 372.73 221.696 376.678 218.067 377.614C217.563 377.744 217.038 377.73 216.54 377.577L211.34 375.977L206.437 376.186C204.677 376.261 203.471 374.461 204.188 372.852C204.366 372.452 204.605 372.017 204.92 371.544C207.06 368.334 209.2 366.041 209.2 366.041L201.343 367.458C200.581 367.461 199.333 367.355 198.905 366.591C198.267 365.451 199.835 363.528 200.907 362.239C203.394 359.25 206.112 357.642 206.983 357.137C210.053 355.357 212.916 353.697 217.607 352.284C221.304 351.17 231.484 347.937 244.015 351.118C252.227 353.202 258.257 357.321 262.072 360.576Z" fill="#F7A99C"/>
<path d="M260.819 359.544C260.923 360.346 261.473 365.228 257.964 369.404C254.053 374.058 248.371 373.943 247.681 373.917L267.442 379.799C267.442 379.799 267.588 372.731 267.239 370.993C266.89 369.255 265.673 365.241 264.419 363.524C263.165 361.807 260.819 359.544 260.819 359.544Z" fill="#FF7769"/>
<path d="M211.34 375.977C213.614 373.489 217.536 369.809 223.353 366.905C228.835 364.168 233.831 363.203 237.098 362.83" stroke="#262626" stroke-miterlimit="10" stroke-linecap="round" stroke-linejoin="round"/>
<path d="M206.437 376.186C210.022 370.073 213.99 366.893 216.919 365.124C216.919 365.124 219.083 363.817 230.448 359.544" stroke="#262626" stroke-miterlimit="10" stroke-linecap="round" stroke-linejoin="round"/>
<path d="M208.843 366.105C211.726 361.85 214.736 359.874 216.92 358.856C220.804 357.044 226.703 356.104 226.703 356.104" stroke="#262626" stroke-miterlimit="10" stroke-linecap="round" stroke-linejoin="round"/>
<path d="M277.974 238.344C277.974 238.344 273.02 275.161 272.332 297.174C271.644 319.187 270.94 356.792 270.94 356.792L262.071 360.576C262.071 360.576 266.304 373.073 266.566 376.971C266.829 380.869 266.566 384.129 266.566 384.129C279.537 383.876 290.078 384.197 297.325 384.538C303.49 384.829 312.67 384.885 331.032 384.997C337.561 385.037 343.078 385.007 349.272 381.963C350.005 381.602 356.226 378.463 360.841 372.156C363.828 368.074 368.516 359.42 365.885 337.99C364.778 328.973 360.936 300.764 339.057 274.015C326.557 258.733 314.221 251.324 310.79 249.351C300.383 243.369 291.228 240.932 289.327 240.44C284.798 239.271 280.881 238.673 277.974 238.344Z" fill="#555879"/>
<path d="M307.749 308.716C307.985 314.477 307.591 324.816 302.294 336.003C299.46 341.988 296.019 346.534 293.122 349.754C299.441 348.126 305.759 346.497 312.078 344.869L307.749 308.716Z" fill="#555879"/>
<path d="M333.632 340.054C333.632 340.054 278.286 353.659 270.94 356.793C263.594 359.927 262.071 360.577 262.071 360.577" stroke="#262626" stroke-miterlimit="10" stroke-linecap="round" stroke-linejoin="round"/>
<path d="M337.913 282.729C337.913 282.729 365.123 333.939 357.021 354.882C355.782 358.084 353.045 365.011 346.201 370.043C339.782 374.761 332.865 375.508 320.945 375.825C310.521 376.102 296.657 376.041 280.13 374.755" stroke="white" stroke-miterlimit="10" stroke-linecap="round" stroke-linejoin="round"/>
<path d="M329.955 264.093C318.729 268.538 313.499 274.53 310.856 278.602C310.856 278.602 302.746 291.094 312.737 345.283" stroke="#262626" stroke-miterlimit="10" stroke-linecap="round" stroke-linejoin="round"/>
<path d="M264.597 385.003H190.32V376.105H268.435V381.165C268.435 383.285 266.717 385.003 264.597 385.003Z" fill="#374ACC"/>
<path d="M198.449 385.003H95.9534C93.6104 385.003 91.4794 383.104 91.1924 380.761L81.8854 304.634C81.5994 302.291 83.2664 300.392 85.6084 300.392H188.105C190.448 300.392 192.579 302.291 192.866 304.634L202.172 380.761C202.459 383.104 200.792 385.003 198.449 385.003Z" fill="#374ACC"/>
<path d="M192.449 385.003H89.9534C87.6104 385.003 85.4794 383.104 85.1924 380.761L75.8854 304.634C75.5994 302.291 77.2664 300.392 79.6084 300.392H182.105C184.448 300.392 186.579 302.291 186.866 304.634L196.172 380.761C196.459 383.104 194.792 385.003 192.449 385.003Z" fill="#4450E4"/>
<path d="M75.8855 304.634C76.6275 304.431 79.3435 328.165 94.8545 349.531C97.5375 353.226 102.378 359.793 110.6 366.193C110.6 366.193 118.961 372.701 150.116 385.002C148.437 385.002 146.757 385.002 145.078 385.002C140.947 385.002 136.816 385.002 132.684 385.002C127.455 385.002 122.226 385.002 116.997 385.002C112.025 385.002 107.053 385.002 102.08 385.002C99.4115 385.002 96.7445 385.005 94.0765 385.004C91.9515 385.003 89.3075 385.478 87.4105 384.291C85.8405 383.309 85.1545 381.367 84.9295 379.529C84.7705 378.228 84.7885 376.913 84.6425 375.611C84.4975 374.323 84.2485 373.045 84.0915 371.755C83.7475 368.939 83.4025 366.122 83.0585 363.306C82.4955 358.699 81.9325 354.093 81.3685 349.486C80.7615 344.518 80.1535 339.55 79.5465 334.583C78.9825 329.97 78.4185 325.357 77.8545 320.745C77.4215 317.204 77.0525 313.654 76.5555 310.12C75.9865 306.066 75.7045 304.683 75.8855 304.634Z" fill="#5D6FF4"/>
<path d="M79.6094 300.392H182.106C184.449 300.392 186.58 302.291 186.867 304.634L196.173 380.761" stroke="#262626" stroke-miterlimit="10" stroke-linecap="round" stroke-linejoin="round"/>
<path d="M138.995 340.577C138.995 343.838 136.352 346.482 133.091 346.482C129.83 346.482 127.188 343.838 127.188 340.577C127.188 337.316 129.83 334.673 133.091 334.673C136.351 334.672 138.995 337.316 138.995 340.577Z" fill="#FEC02D"/>
<path d="M357.785 262.856H369.166C374.162 262.856 378.103 267.104 377.729 272.086L374.255 318.346" stroke="white" stroke-miterlimit="10" stroke-linecap="round" stroke-linejoin="round"/>
<path d="M163.039 316.429H44.6758C38.8998 316.429 34.2168 311.747 34.2168 305.97V226.972C34.2168 221.196 38.8998 216.513 44.6758 216.513H163.039C168.815 216.513 173.498 221.196 173.498 226.972V305.97C173.498 311.747 168.815 316.429 163.039 316.429Z" fill="#F5F5F5"/>
<path opacity="0.5" d="M173.498 231.699H34.2168V226.972C34.2168 221.196 38.8998 216.513 44.6758 216.513H163.039C168.815 216.513 173.498 221.196 173.498 226.972V231.699Z" fill="#D6D6D6"/>
<path d="M150.193 226.399H67.7979C66.5319 226.399 65.5049 225.372 65.5049 224.106C65.5049 222.84 66.5319 221.813 67.7979 221.813H150.193C151.459 221.813 152.486 222.84 152.486 224.106C152.486 225.373 151.46 226.399 150.193 226.399Z" fill="#F5F5F5"/>
<path d="M44.2197 224.106C44.2197 225.141 43.3807 225.98 42.3467 225.98C41.3117 225.98 40.4727 225.141 40.4727 224.106C40.4727 223.071 41.3117 222.233 42.3467 222.233C43.3807 222.233 44.2197 223.072 44.2197 224.106Z" fill="#F5F5F5"/>
<path d="M51.2128 224.106C51.2128 225.141 50.3738 225.98 49.3388 225.98C48.3038 225.98 47.4658 225.141 47.4658 224.106C47.4658 223.071 48.3048 222.233 49.3388 222.233C50.3738 222.233 51.2128 223.072 51.2128 224.106Z" fill="#F5F5F5"/>
<path d="M58.0917 224.106C58.0917 225.141 57.2527 225.98 56.2187 225.98C55.1837 225.98 54.3447 225.141 54.3447 224.106C54.3447 223.071 55.1837 222.233 56.2187 222.233C57.2527 222.233 58.0917 223.072 58.0917 224.106Z" fill="#F5F5F5"/>
<path d="M113.799 253.572L102.023 265.348L90.2466 253.572L83.1406 260.678L94.9166 272.454L83.1406 284.229L90.2466 291.336L102.023 279.56L113.799 291.336L120.905 284.229L109.129 272.454L120.905 260.678L113.799 253.572Z" fill="#D6D6D6"/>
<path d="M163.039 316.429H44.6758C38.8998 316.429 34.2168 311.747 34.2168 305.97V226.972C34.2168 221.196 38.8998 216.513 44.6758 216.513H163.039C168.815 216.513 173.498 221.196 173.498 226.972V305.97C173.498 311.747 168.815 316.429 163.039 316.429Z" stroke="#262626" stroke-miterlimit="10" stroke-linecap="round" stroke-linejoin="round"/>
<path d="M211.852 162.259L227.322 168.677" stroke="#FF7129" stroke-miterlimit="10" stroke-linecap="round" stroke-linejoin="round"/>
<path d="M211.183 145.326L230.763 163.921" stroke="#FF7129" stroke-miterlimit="10" stroke-linecap="round" stroke-linejoin="round"/>
<path d="M228.194 145.05L235.401 160.169" stroke="#FF7129" stroke-miterlimit="10" stroke-linecap="round" stroke-linejoin="round"/>
<path d="M415.545 228.12C416.948 224.442 418.358 221.587 419.776 219.557C421.193 217.527 423.069 215.885 425.403 214.634C426.767 213.868 428.194 213.307 429.689 212.948C431.181 212.59 432.6 212.149 433.943 211.625C435.284 211.102 436.512 210.409 437.627 209.549C438.741 208.688 439.643 207.355 440.333 205.546C441.498 202.492 441.471 200.035 440.251 198.177C439.031 196.319 437.267 194.95 434.962 194.07C431.656 192.809 429.03 192.862 427.083 194.225C425.133 195.589 423.409 197.77 421.909 200.768L409.846 196.166C411.011 193.112 412.567 190.527 414.517 188.413C416.465 186.3 418.692 184.721 421.198 183.677C423.702 182.633 426.427 182.137 429.372 182.189C432.315 182.24 435.346 182.861 438.464 184.05C445.197 186.618 449.988 190.018 452.839 194.247C455.688 198.477 455.937 203.677 453.583 209.85C452.821 211.846 451.953 213.513 450.978 214.855C450.001 216.196 448.876 217.32 447.603 218.227C446.328 219.133 444.896 219.891 443.308 220.499C441.718 221.108 439.962 221.687 438.038 222.238C436.261 222.775 434.78 223.335 433.594 223.917C432.407 224.5 431.404 225.208 430.589 226.038C429.772 226.869 429.092 227.807 428.552 228.85C428.01 229.894 427.479 231.102 426.956 232.473L415.545 228.12ZM408.287 246.027L412.96 233.776L425.585 238.592L420.912 250.843L408.287 246.027Z" fill="#555879"/>
<path d="M90.018 164.786C89.124 162.499 88.578 160.59 88.381 159.058C88.184 157.526 88.362 155.982 88.915 154.425C89.224 153.5 89.647 152.642 90.187 151.849C90.726 151.058 91.196 150.259 91.597 149.454C91.997 148.65 92.274 147.815 92.428 146.951C92.581 146.087 92.439 145.093 91.999 143.968C91.256 142.069 90.214 140.946 88.871 140.599C87.528 140.252 86.14 140.36 84.707 140.921C82.652 141.725 81.461 142.85 81.133 144.296C80.805 145.743 80.923 147.473 81.487 149.487L73.987 152.42C73.244 150.521 72.879 148.675 72.893 146.882C72.907 145.09 73.273 143.427 73.992 141.894C74.711 140.362 75.761 138.99 77.142 137.779C78.522 136.569 80.182 135.584 82.121 134.826C86.307 133.189 89.945 132.75 93.035 133.507C96.124 134.266 98.42 136.563 99.92 140.4C100.405 141.641 100.703 142.775 100.816 143.804C100.927 144.833 100.879 145.824 100.671 146.777C100.462 147.73 100.119 148.68 99.64 149.627C99.161 150.575 98.593 151.578 97.936 152.64C97.341 153.633 96.892 154.513 96.588 155.279C96.285 156.046 96.118 156.793 96.09 157.518C96.061 158.245 96.141 158.963 96.328 159.67C96.515 160.379 96.777 161.16 97.11 162.012L90.018 164.786ZM94.174 176.099L91.195 168.483L99.044 165.413L102.023 173.029L94.174 176.099Z" fill="#555879"/>
<path d="M440.614 383.719H408.711L406.582 349.754H442.742L440.614 383.719Z" fill="#FEC02D"/>
<path d="M438.414 349.754H410.91V320.797C410.91 313.202 417.067 307.045 424.662 307.045C432.257 307.045 438.414 313.202 438.414 320.797V349.754Z" fill="#94E261"/>
<mask id="mask0_57_6" style="mask-type:luminance" maskUnits="userSpaceOnUse" x="410" y="307" width="29" height="43">
<path d="M438.414 349.754H410.91V320.797C410.91 313.202 417.067 307.045 424.662 307.045C432.257 307.045 438.414 313.202 438.414 320.797V349.754V349.754Z" fill="white"/>
</mask>
<g mask="url(#mask0_57_6)">
<path d="M415.934 311.237C415.934 315.087 413.623 315.087 413.623 318.938C413.623 322.79 415.934 322.79 415.934 326.641C415.934 330.491 413.623 330.491 413.623 334.342C413.623 338.195 415.934 338.195 415.934 342.048C415.934 345.901 413.623 345.901 413.623 349.754" stroke="#262626" stroke-width="0.5" stroke-miterlimit="10" stroke-linecap="round" stroke-linejoin="round"/>
<path d="M421.983 307.62C421.983 311.832 419.455 311.832 419.455 316.044C419.455 320.257 421.983 320.257 421.983 324.471C421.983 328.683 419.455 328.683 419.455 332.895C419.455 337.11 421.983 337.11 421.983 341.325C421.983 345.54 419.455 345.54 419.455 349.755" stroke="#262626" stroke-width="0.5" stroke-miterlimit="10" stroke-linecap="round" stroke-linejoin="round"/>
<path d="M430.881 307.97C430.881 312.147 428.374 312.147 428.374 316.324C428.374 320.502 430.881 320.502 430.881 324.681C430.881 328.858 428.374 328.858 428.374 333.035C428.374 337.215 430.881 337.215 430.881 341.395C430.881 345.575 428.374 345.575 428.374 349.755" stroke="#262626" stroke-width="0.5" stroke-miterlimit="10" stroke-linecap="round" stroke-linejoin="round"/>
<path d="M437.097 313.006C437.097 316.679 434.892 316.679 434.892 320.353C434.892 324.028 437.097 324.028 437.097 327.702C437.097 331.375 434.892 331.375 434.892 335.049C434.892 338.725 437.097 338.725 437.097 342.401C437.097 346.077 434.892 346.077 434.892 349.753" stroke="#262626" stroke-width="0.5" stroke-miterlimit="10" stroke-linecap="round" stroke-linejoin="round"/>
</g>
<path d="M442.742 349.754L440.614 383.719H408.711C412.972 382.564 421.357 379.672 429.223 372.274C438.282 363.753 441.568 354.037 442.742 349.754Z" fill="#EAA418"/>
<path d="M440.913 355.151C439.618 358.37 437.432 362.801 433.748 367.379C430.068 371.953 426.211 375.034 423.345 376.988" stroke="#262626" stroke-width="0.5" stroke-miterlimit="10" stroke-linecap="round" stroke-linejoin="round"/>
</svg>