<?xml version="1.0" encoding="utf-8"?>
<!-- Generator: Adobe Illustrator 27.5.0, SVG Export Plug-In . SVG Version: 6.00 Build 0)  -->
<svg version="1.1" id="delivery_concept" xmlns="http://www.w3.org/2000/svg" xmlns:xlink="http://www.w3.org/1999/xlink" x="0px"
	 y="0px" viewBox="0 0 3000 3000" style="enable-background:new 0 0 3000 3000;" xml:space="preserve">
<g id="delivery_concept_1_">
	<ellipse style="fill:#DBDBDB;" cx="1537.946" cy="2787.906" rx="1378.329" ry="92.809"/>
	<g id="boxs">
		<g>
			<g>
				<g>
					<rect x="1008.527" y="1659.341" style="fill:#D3916D;" width="483.211" height="128.805"/>
					<rect x="1008.527" y="1788.146" style="fill:#E6AD92;" width="483.211" height="366.415"/>
					<rect x="1491.737" y="1659.341" style="fill:#C77A54;" width="254.513" height="128.805"/>
					<rect x="1491.737" y="1788.146" style="fill:#D18E6A;" width="254.513" height="366.415"/>
				</g>
			</g>
			<rect x="1556.633" y="1659.341" style="fill:#DFA286;" width="141.219" height="143.929"/>
			<rect x="1078.091" y="1840.24" style="fill:#F2F2F2;" width="333.014" height="168.557"/>
		</g>
		<g>
			<g>
				<g>
					<rect x="1114.967" y="1259.746" style="fill:#D3916D;" width="349.17" height="103.934"/>
					<rect x="1114.967" y="1363.679" style="fill:#E6AD92;" width="349.17" height="295.662"/>
					<rect x="1464.137" y="1259.746" style="fill:#C77A54;" width="183.912" height="103.934"/>
					<rect x="1464.137" y="1363.679" style="fill:#D18E6A;" width="183.912" height="295.662"/>
				</g>
			</g>
			<rect x="1511.031" y="1259.746" style="fill:#DFA286;" width="102.045" height="116.137"/>
			<rect x="1165.235" y="1405.714" style="fill:#F2F2F2;" width="240.637" height="136.009"/>
		</g>
		<g>
			<g>
				<g>
					<rect x="1568.719" y="1763.042" style="fill:#D3916D;" width="266.532" height="79.336"/>
					<rect x="1568.719" y="1842.378" style="fill:#E6AD92;" width="266.532" height="225.687"/>
					<rect x="1835.251" y="1763.042" style="fill:#C77A54;" width="140.386" height="79.336"/>
					<rect x="1835.251" y="1842.378" style="fill:#D18E6A;" width="140.386" height="225.687"/>
				</g>
			</g>
			<rect x="1871.046" y="1763.042" style="fill:#DFA286;" width="77.894" height="88.651"/>
			<rect x="1607.09" y="1874.464" style="fill:#F2F2F2;" width="183.685" height="103.82"/>
		</g>
		<g>
			<g>
				<g>
					<rect x="894.477" y="2150.907" style="fill:#C37C55;" width="509.333" height="173.435"/>
					<rect x="894.477" y="2324.342" style="fill:#D69576;" width="509.333" height="493.374"/>
					<rect x="1403.81" y="2150.907" style="fill:#B7663E;" width="268.272" height="173.435"/>
					<rect x="1403.81" y="2324.342" style="fill:#C17952;" width="268.272" height="493.374"/>
				</g>
			</g>
			<rect x="1472.214" y="2150.907" style="fill:#CF8B6B;" width="148.853" height="193.799"/>
			<rect x="967.803" y="2394.486" style="fill:#F2F2F2;" width="351.016" height="226.96"/>
		</g>
		<g>
			<g>
				<g>
					<rect x="1479.18" y="2401.129" style="fill:#D3916D;" width="406.484" height="108.353"/>
					<rect x="1479.18" y="2509.482" style="fill:#E6AD92;" width="406.484" height="308.234"/>
					<rect x="1885.664" y="2401.129" style="fill:#C77A54;" width="214.1" height="108.353"/>
					<rect x="1885.664" y="2509.482" style="fill:#D18E6A;" width="214.1" height="308.234"/>
				</g>
			</g>
			<rect x="1940.255" y="2401.129" style="fill:#DFA286;" width="118.795" height="121.075"/>
			<rect x="1537.698" y="2553.305" style="fill:#F2F2F2;" width="280.136" height="141.793"/>
		</g>
		<g>
			<g>
				<g>
					<rect x="1568.719" y="2064.984" style="fill:#D3916D;" width="293.727" height="87.43"/>
					<rect x="1568.719" y="2152.414" style="fill:#E6AD92;" width="293.727" height="248.715"/>
					<rect x="1862.446" y="2064.984" style="fill:#C77A54;" width="154.71" height="87.43"/>
					<rect x="1862.446" y="2152.414" style="fill:#D18E6A;" width="154.71" height="248.715"/>
				</g>
			</g>
			<rect x="1901.894" y="2064.984" style="fill:#DFA286;" width="85.842" height="97.696"/>
			<rect x="1611.005" y="2187.775" style="fill:#F2F2F2;" width="202.427" height="114.413"/>
		</g>
	</g>
	<g id="women_received">
		<path style="fill:#4D1912;" d="M397.595,396.152c-70.865,86.514-84.585,218.861-79.059,333.759
			c1.815,37.732,11.44,80.068,42.195,98.618c17.41,10.501,38.327,11.18,58.308,11.599c70.175,1.472,141.196,2.855,209.59-14.023
			c29.258-7.22,61.604-21.652,70.725-52.268c5.529-18.559,0.868-38.966-6.934-56.564c-7.802-17.599-18.636-33.506-26.432-51.108
			c-35.735-80.675,6.315-185.963-36.038-262.882C618.39,382.288,420.603,368.064,397.595,396.152z"/>
		<g>
			<path style="fill:#F7B192;" d="M365.098,687.159c0,60.299,141.631,187.225,141.631,187.225s141.631-126.925,141.631-187.225
				C648.361,626.86,365.098,626.86,365.098,687.159z"/>
			<g>
				
					<rect x="428.438" y="506.781" transform="matrix(-1 -1.224647e-16 1.224647e-16 -1 1013.4594 1242.5806)" style="fill:#F7B192;" width="156.584" height="229.019"/>
				<path style="fill:#1A1A1A;" d="M479.978,664.085c-30.874-4.751-44.851-19.928-51.54-36.566V506.781h156.584v116.066
					C560.989,639.021,527.002,668.778,479.978,664.085z"/>
			</g>
		</g>
		<path style="fill:#F7B192;" d="M637.353,719.862c36.067-36.372,81.044-25.787,135.642,48.038
			c43.495,58.813,55.422,128.607,105.346,201.016c49.924,72.409,83.076,145.987,38.389,178.464
			c-43.423,31.557-86.109-27.813-145.856-133.906C711.126,907.38,601.285,756.235,637.353,719.862z"/>
		<path style="fill:#DCA8A0;" d="M683.935,699.594c0,0,66.436-2.316,102.953,54.677c36.517,56.993,144.993,230.566,144.993,230.566
			s6.183,30.312-3.311,39.806c-15.394,15.394-133.375,56.279-133.375,56.279s-120.493-193.604-131.329-204.44
			C653.03,865.645,631.104,699.594,683.935,699.594z"/>
		<path style="fill:#F7B192;" d="M384.106,713.799c-36.067-36.372-81.044-25.787-135.642,48.038
			c-43.495,58.813-55.422,128.607-105.346,201.016c-49.924,72.409-83.076,145.987-38.389,178.464
			c43.423,31.557,86.109-27.813,145.856-133.906S420.173,750.172,384.106,713.799z"/>
		<g>
			<path style="fill:#F7B192;" d="M527.985,1832.275c0-20.758,3.871-66.387,72.607-68.733c46.47-1.587,65.057,16.584,68.157,59.426
				c0,0,18.792,82.19,44.291,194.847c23.721,104.802-88.19,330.11-68.386,541.005l-57.829-2.569
				c-2.957-46.098-12.493-269.734-20.194-352.458C548.462,2008.604,527.985,1832.275,527.985,1832.275z"/>
			<g>
				<path style="fill:#2B2927;" d="M653.515,2536.099c0,0,40.169,155.119,45.781,180.652c5.612,25.534,1.613,48.054-3.546,60.011
					c-13.865,32.138-97.594,84.073-121.414-24.774c-9.133-41.735,12.107-206.599,12.107-206.599L653.515,2536.099z"/>
				<path style="fill:#F7B192;" d="M585.726,2510.692c0,17.436-2.406,84.811-1.677,106.219c0.876,25.708,3.237,100.89,3.237,100.89
					s65.88,4.615,73.986-3.252c23.025-22.342,12.736-69.153,12.736-69.153l-19.545-113.232
					c-1.208-5.554-10.298-34.158-23.764-41.293C617.233,2483.736,585.726,2493.256,585.726,2510.692z"/>
			</g>
			<path style="fill:#F7B192;" d="M531.889,1860.421l-3.904-469.658c0,0,88.782-6.941,133.915-11.952
				c143.194-15.899-15.917,419.321-14.183,459.839C649.874,1889.063,541.613,1918.275,531.889,1860.421z"/>
		</g>
		<g>
			<path style="fill:#F7B192;" d="M492.936,1832.275c0-20.758-3.871-66.387-72.607-68.733c-46.47-1.587-65.057,16.584-68.157,59.426
				c0,0-18.792,82.19-44.291,194.847c-23.721,104.802,88.19,330.11,68.386,541.005l57.829-2.569
				c2.957-46.098,12.493-269.734,20.194-352.458C472.458,2008.604,492.936,1832.275,492.936,1832.275z"/>
			<g>
				<path style="fill:#2B2927;" d="M367.406,2536.099c0,0-40.169,155.119-45.781,180.652c-5.612,25.534-1.613,48.054,3.546,60.011
					c13.865,32.138,97.594,84.073,121.414-24.774c9.133-41.735-12.106-206.599-12.106-206.599L367.406,2536.099z"/>
				<path style="fill:#F7B192;" d="M435.195,2510.692c0,17.436,2.406,84.811,1.677,106.219c-0.876,25.708-3.238,100.89-3.238,100.89
					s-65.879,4.615-73.986-3.252c-23.025-22.342-12.736-69.153-12.736-69.153l19.545-113.232
					c1.208-5.554,10.298-34.158,23.765-41.293C403.688,2483.736,435.195,2493.256,435.195,2510.692z"/>
			</g>
			<path style="fill:#F7B192;" d="M489.032,1860.421l3.904-469.658c0,0-88.782-6.941-133.915-11.952
				c-143.194-15.899,15.917,419.321,14.183,459.839C371.047,1889.063,479.308,1918.275,489.032,1860.421z"/>
		</g>
		<g>
			<path style="fill:#41808B;" d="M381.062,1179.951c-17.151,1.139-32.942,17.59-42.617,37.168
				c-9.648,19.576-14.147,42.062-18.493,64.054c-39.287,198.321-84.585,396.386-135.89,594.112
				c15.393,2.719,30.824,5.4,46.293,8.041c-2.678,9.365-5.375,18.727-8.088,28.091c22.112,2.722,44.275,5.365,66.488,7.93
				c-1.445,8.353-2.898,16.7-4.357,25.052c22.076,2.251,44.195,4.425,66.354,6.521c-0.529,6.919-1.058,13.838-1.589,20.756
				c19.465,1.379,38.976,2.5,58.516,3.365c-0.195,5.403-0.39,10.812-0.586,16.221c21.939,2.286,190.823,0.801,206.736,0
				c-0.195-5.408-0.39-10.817-0.586-16.22c19.54-0.865,39.05-1.986,58.516-3.365c-0.531-6.918-1.06-13.838-1.589-20.756
				c22.16-2.096,44.278-4.27,66.354-6.521c-1.458-8.351-2.912-16.701-4.357-25.052c22.213-2.565,44.375-5.208,66.488-7.93
				c-2.714-9.363-5.41-18.726-8.089-28.091c15.469-2.642,30.9-5.323,46.293-8.041c-51.305-197.726-96.603-395.792-135.89-594.112
				c-4.346-21.993-8.845-44.478-18.493-64.054c-9.675-19.577-25.466-36.029-42.617-37.168
				C553.599,1181.579,467.322,1181.579,381.062,1179.951z"/>
			<path style="fill:#316068;" d="M701.784,1285.245c-0.269-1.357-0.546-2.714-0.815-4.072
				c-4.346-21.993-8.844-44.478-18.493-64.054c-9.675-19.577-25.466-36.029-42.617-37.168c-86.26,1.628-172.537,1.628-258.797,0
				c-17.151,1.139-32.942,17.59-42.617,37.168c-9.648,19.576-14.147,42.062-18.493,64.054c-0.817,4.125-1.653,8.25-2.475,12.375
				c15.29,2.412,30.649,4.637,46.111,6.552C478.144,1312.931,589.976,1316.673,701.784,1285.245z"/>
		</g>
		<g>
			<g>
				<path style="fill:#DCA8A0;" d="M758.66,741.323c-2.205-10.815-11.183-17.452-19.392-22.934
					c-52.496-35.054-141.572-84.296-143.204-75.398c-2.516,13.726-13.621,59.074-13.621,59.074l-73.782,143.129l-73.782-143.129
					c0,0-11.105-45.349-13.621-59.074c-1.631-8.898-90.707,40.344-143.204,75.398c-8.209,5.482-17.188,12.119-19.392,22.934
					c-1.841,9.032,1.672,18.275,5.31,26.514c13.96,31.608,51.14,106.467,51.14,106.467c34.54,115.34,17.765,255.648-1.179,376.504
					c0,0,62.46,19.448,193.146,19.448s196.31-19.448,196.31-19.448c-18.943-120.856-35.719-261.164-1.179-376.504
					c0,0,37.181-74.859,51.14-106.467C756.989,759.598,760.501,750.354,758.66,741.323z"/>
			</g>
			<g>
				<path style="fill:#F4D8D4;" d="M407.652,718.697c13.632,28.279,98.944,191.623,98.944,191.623s68.702-106.997,106.811-188.896
					c12.256-26.339,16.833-60.931,16.833-66.741c0-5.81-33.543-16.201-34.176-12.747c-2.516,13.726-13.621,60.131-13.621,60.131
					l-73.782,143.129l-73.782-143.129c0,0-10.941-47.195-13.457-60.92c-0.527-2.877-23.774,1.824-24.991,9.012
					C395.213,657.345,394.02,690.417,407.652,718.697z"/>
			</g>
		</g>
		<path style="fill:#DCA8A0;" d="M337.523,693.531c0,0-66.436-2.316-102.953,54.677c-36.517,56.993-141.21,227.967-141.21,227.967
			s-6.445,30.05,3.049,39.544c15.394,15.394,131.546,64.278,131.546,64.278s118.802-198.742,129.638-209.578
			C368.429,859.583,390.355,693.531,337.523,693.531z"/>
		<path style="fill:#F7B192;" d="M339.848,1013.544c0,0-180.179,15.777-217.419,25.724c-37.24,9.947-44.507,109.883,8.943,110.072
			c52.627,0.186,199.691-76.099,221.127-87.065C382.738,1046.806,375.49,1005.434,339.848,1013.544z"/>
		<path style="fill:#F7B192;" d="M672.349,1039.051c0,0,180.417-12.773,218.758-8.809c38.341,3.963,61.244,115.206,8.49,123.804
			c-51.942,8.465-209.178-43.727-232.073-51.184C635.228,1092.343,635.875,1036.65,672.349,1039.051z"/>
		<g>
			<g>
				<polygon style="fill:#004C3C;" points="603.253,1039.269 416.521,1039.269 298.483,1111.755 721.292,1111.755 				"/>
				<polygon style="fill:#E6E6E6;" points="314.317,1107.282 417.787,1043.742 601.99,1043.742 705.459,1107.282 				"/>
				<path style="fill:#006550;" d="M717.573,1126.025H302.202c-4.559,0-8.289-3.73-8.289-8.29l0,0c0-4.559,3.73-8.289,8.289-8.289
					h415.371c4.559,0,8.289,3.73,8.289,8.289l0,0C725.862,1122.294,722.132,1126.025,717.573,1126.025z"/>
				<g>
					<rect x="439.323" y="1101.204" style="fill:#262626;" width="141.129" height="16.029"/>
					<rect x="439.323" y="1101.204" style="fill:#515151;" width="141.129" height="5.963"/>
				</g>
			</g>
			<g>
				<path style="fill:#FBC0A6;" d="M329.808,1003.825c0,0,12.447-19.759,21.651-19.868c9.204-0.109,27.694,20.783,27.694,20.783
					L329.808,1003.825z"/>
				<g>
					<g>
						<polygon style="fill:#262626;" points="455.32,1072.631 463.833,1091.273 442.606,1087.015 300.836,961.696 313.55,947.313 
													"/>
						<path style="fill:#B3B3B3;" d="M455.904,1089.682c0,0,0.772-5.265,4.932-4.972l3.975,7.262L455.904,1089.682z"/>
						
							<rect x="340.085" y="927.08" transform="matrix(0.6623 -0.7492 0.7492 0.6623 -624.1348 593.5615)" style="fill:#262626;" width="12.594" height="124.132"/>
						<path style="fill:#262626;" d="M292.341,959.068L292.341,959.068c-1.08-0.955-1.183-2.62-0.228-3.7l14.69-16.618
							c0.955-1.08,2.62-1.183,3.7-0.228l0,0c1.08,0.955,1.183,2.62,0.228,3.7l-14.69,16.618
							C295.086,959.92,293.421,960.023,292.341,959.068z"/>
					</g>
					<polygon style="fill:#262626;" points="361.168,982.842 325.833,952.816 317.775,956.17 316.829,953.898 326.278,949.966 
						362.762,980.964 					"/>
				</g>
				<g>
					<path style="fill:#F8A588;" d="M325.631,1084.698c0,0-1.164,20.307,18.991,20.158c5.737-0.042,26.289-6.354,32.554-9.969
						c6.266-3.615,9.217-17.117,5.293-32.036C378.544,1047.933,325.631,1084.698,325.631,1084.698z"/>
					<path style="fill:#F7B192;" d="M324.553,1003.879c0,0,68.362-1.084,83.39,4.614c15.028,5.698,11.065,21.081,1.027,25.002
						c-10.038,3.921-81.355,5.127-96.297,4.623C297.731,1037.614,293.133,1008.275,324.553,1003.879z"/>
					<path style="fill:#F7B192;" d="M323.531,1027.857c0,0,0.757-0.012,2.13-0.027c11.669-0.126,67.814-0.457,81.26,4.641
						c15.028,5.698,11.065,21.081,1.027,25.002c-10.038,3.92-81.355,5.127-96.297,4.623
						C296.708,1061.592,292.11,1032.253,323.531,1027.857z"/>
					<path style="fill:#F7B192;" d="M308.991,1061.681c0,0-9.467,6.855-1.026,19.224c8.864,12.987,34.004,5.943,60.319,5.772
						c44.445-0.289,22.882-26.658,22.882-26.658L308.991,1061.681z"/>
				</g>
			</g>
			<path style="fill:#F7B192;" d="M685.721,1035.675c-7.525-2.323-22.418-1.075-40.086-1.075c-13.181,0-36.33,11.776-36.364,30.142
				c-0.02,10.77,16.451,14.142,29.438,3.175l19.843,5.31l43.219,26.54C701.771,1099.767,696.918,1039.132,685.721,1035.675z"/>
		</g>
		<path style="fill:#62271B;" d="M373.258,377.353c-21.079,70.846-22.489,146.266-15.155,219.816
			c4.294,43.057,12.582,88.203,40.716,121.079c18.431,21.538,47.931,35.108,75.467,34.162
			c-21.256,13.404-47.26,19.369-72.183,15.888c-33.143-4.629-63.546-25.847-79.324-55.359
			c-16.152-30.213-16.843-66.007-17.16-100.265c-0.491-53.054-0.982-106.107-1.473-159.161c-0.3-32.425-4.025-69.336,11.98-99.455
			C323.95,339.337,373.258,377.353,373.258,377.353z"/>
		<g>
			<g>
				<g>
					<g>
						<path style="fill:#F8A588;" d="M588.976,521.721c7.24,0.325,14.358-2.841,19.936-7.413
							c5.578-4.572,9.811-10.469,13.697-16.453c10.257-15.794,18.818-34.683,13.707-52.438c-1.71-5.94-5.192-11.699-10.815-14.575
							c-6.696-3.424-15.357-2.016-21.658,2.241c-6.3,4.257-10.484,10.939-13.101,17.907L588.976,521.721z"/>
						<path style="fill:#F7B192;" d="M423.755,560.093c-6.355,3.482-14.14,3.778-21.162,2.132
							c-7.022-1.645-13.421-5.074-19.546-8.732c-16.167-9.657-32.178-22.839-35.414-41.03c-1.083-6.085-0.496-12.79,3.284-17.849
							c4.501-6.025,12.897-8.578,20.428-7.534c7.531,1.045,14.232,5.199,19.652,10.3L423.755,560.093z"/>
					</g>
					<path style="fill:#F7B192;" d="M615.364,512.754c-7.282-55.09,0.084-89.907,1.918-123.142
						c1.056-24.825-1.643-66.19-38.102-94.743c-36.442-29.999-111.445-34.427-171.655-2.057
						c-60.66,32.502-99.328,91.492-81.908,130.941c9.697,23.792,32.536,42.717,42.766,67.208
						c8.498,20.362,6.706,43.18,19.679,61.927c23.483,31.987,96.82,80.63,143.183,69.862
						C569.136,613.951,617.212,537.102,615.364,512.754z"/>
				</g>
				<path style="fill:#1A1A1A;" d="M520.133,430.957c5.561-2.615,11.593-4.271,17.725-4.933c6.131-0.668,12.375-0.331,18.357,1.044
					c5.962,1.408,11.729,3.77,16.544,7.579c-6.117-0.235-11.776-0.57-17.394-0.528c-5.6,0.007-11.094,0.302-16.562,0.881
					c-5.468,0.585-10.902,1.465-16.379,2.648C516.921,438.797,514.599,433.603,520.133,430.957z"/>
				<path style="fill:#1A1A1A;" d="M442.147,448.047c-6.143,0.226-12.263,1.52-18.015,3.741c-5.754,2.217-11.146,5.378-15.828,9.34
					c-4.649,3.984-8.686,8.725-11.212,14.316c5.326-3.013,10.2-5.904,15.21-8.441c4.978-2.56,9.995-4.816,15.119-6.809
					c5.127-1.987,10.359-3.696,15.769-5.155C448.606,453.539,448.281,447.861,442.147,448.047z"/>
				<path style="fill:#F2F2F2;" d="M510.028,502.237c-0.118,1.221-0.359,2.311-0.658,3.436c-0.323,1.1-0.634,2.307-1.513,3.061
					c-0.832,0.728-2.348,0.702-3.834-0.654c-0.738-0.664-1.382-1.644-1.824-2.836c-0.417-1.19-0.612-2.589-0.461-4.023
					c0.167-1.432,0.662-2.746,1.328-3.804c0.691-1.053,1.532-1.852,2.396-2.319c1.743-0.961,3.224-0.62,3.874,0.29
					c0.69,0.947,0.73,2.196,0.803,3.345C510.184,499.901,510.18,501.02,510.028,502.237z"/>
				<path style="fill:#D1785E;" d="M499.141,508.792c-0.359-0.73-0.672-1.385-0.936-1.973c-0.253-0.592-0.48-1.107-0.682-1.634
					c-0.201-0.544-0.388-1.166-0.531-1.893c-0.145-0.724-0.245-1.538-0.331-2.373c-0.168-1.676-0.305-3.408-0.72-4.803
					c-0.404-1.401-1.074-2.474-2.045-2.998c-0.97-0.52-1.749-0.323-2.469,0.464c-0.713,0.79-1.395,2.19-1.97,4.141
					c-0.554,1.935-1.021,4.539-0.62,7.444c0.193,1.441,0.663,2.921,1.304,4.248c0.637,1.344,1.466,2.554,2.361,3.682
					c0.898,1.129,1.863,2.091,2.833,2.955c0.976,0.866,1.973,1.606,2.906,2.237c1.887,1.271,3.605,2.192,5.012,2.851
					c2.832,1.294,4.427,1.633,4.921,0.168c0.462-1.374,0.047-2.836-1.746-4.677c-0.881-0.925-2.107-1.947-3.484-3.199
					c-0.682-0.628-1.399-1.316-2.067-2.086C500.233,510.59,499.617,509.726,499.141,508.792z"/>
				<path style="fill:#A33939;" d="M478.441,548.348c24.502,4.163,50.115-6.074,65.528-25.413c2.38-2.986-2.681-6.097-5.038-3.139
					c-14.159,17.765-37.974,26.404-60.248,22.619c-1.593-0.271-3.013,1.391-3.087,2.845
					C475.505,547.031,476.869,548.081,478.441,548.348L478.441,548.348z"/>
				<path style="fill:#62271B;" d="M592.444,357.614c-0.98-3.26-1.758-5.263-2.271-5.659c-4.779-3.687,5.748,54.309,5.748,54.309
					c-61.946,8.061-216.184,53.086-216.184,53.086l-19.801-54.643c-7.615,14.72,26.796,135.957,26.796,135.957
					c-25.286-38.611-62.78-108.159-75.764-150.95c-7.338-24.185,8.469-45.438,23.594-52.117
					c0.149-42.565,30.674-64.887,68.911-86.372c44.57-25.043,102.301-22.658,146.695,1.843
					c44.394,24.501,72.932,56.637,74.621,106.707c1.764,52.275,15.123,91.651-2.065,139.052
					C622.724,498.826,600.595,384.73,592.444,357.614z"/>
				<path style="fill:#62271B;" d="M519.882,291.643c62.402,50.288,99.177,131.505,95.937,211.877
					c-1.601,39.708-12.292,78.392-17.099,117.818c-4.807,39.427-3.056,81.831,17.917,115.568c-4.68-30.811,2.25-63.218,19.08-89.223
					c38.518,53.849,77.847,109.411,93.999,173.736c13.078,52.083,7.536,111.834-22.05,154.757
					c78.9-28.496,130.573-116.293,120.027-199.993c-13.829-109.758-116.8-185.968-155.83-289.47
					c-16.563-43.921-21.093-91.623-37.026-135.779c-15.933-44.156-48.029-87.298-93.741-95.758L519.882,291.643z"/>
				<g>
					<path style="fill:#1A1A1A;" d="M453.657,497.431l-3.645-15.312c-1.754-7.369-9.218-11.963-16.587-10.209l0,0
						c-7.369,1.754-11.963,9.218-10.209,16.587l3.645,15.312C428.615,511.179,455.411,504.801,453.657,497.431z"/>
					<path style="fill:#1A1A1A;" d="M436.663,471.638c0,0-10.142,0.21-17.176,7.985c-7.034,7.775-13.628,5.926-13.628,5.926
						s8.496,5.061,15.977-0.874c7.48-5.935,11.944-5.143,11.944-5.143L436.663,471.638z"/>
				</g>
				<g>
					<path style="fill:#1A1A1A;" d="M536.943,478.089l-3.477-15.351c-1.673-7.388,3.003-14.801,10.39-16.474h0
						c7.388-1.673,14.801,3.002,16.474,10.39l3.477,15.351C565.481,479.392,538.616,485.476,536.943,478.089z"/>
					<path style="fill:#1A1A1A;" d="M540.829,447.446c0,0,9.196-4.282,18.937-0.402c9.741,3.879,14.845-0.687,14.845-0.687
						s-5.396,8.287-14.727,6.257c-9.33-2.031-12.988,0.647-12.988,0.647L540.829,447.446z"/>
				</g>
			</g>
			<g>
				<path style="fill:#F14950;" d="M614.891,390.851c-46.283-31.686-126.14-44.224-174.033-17.069
					c-43.419,24.618-80.402,64.659-84.379,116.005c-22.892-56.513-11.34-120.134,32.9-159.666
					c46.333-41.403,132.628-52.132,172.438-22.247c17.045,12.796,23.757,21.968,33.978,38.531
					C605.909,362.799,614.891,390.851,614.891,390.851z"/>
				<g>
					<path style="fill:#FFFFFF;" d="M406.922,337.129c0.542,2.332-0.834,4.644-3.073,5.164c-2.239,0.52-4.493-0.949-5.034-3.281
						c-0.542-2.332,0.834-4.644,3.073-5.164C404.126,333.328,406.38,334.797,406.922,337.129z"/>
					<path style="fill:#FFFFFF;" d="M362.11,442.824c0.542,2.332-0.834,4.644-3.073,5.164c-2.239,0.52-4.493-0.949-5.034-3.281
						c-0.542-2.332,0.834-4.644,3.073-5.164C359.314,439.023,361.568,440.492,362.11,442.824z"/>
					<path style="fill:#FFFFFF;" d="M458.698,312.276c0.542,2.332-0.834,4.644-3.073,5.164c-2.239,0.52-4.492-0.949-5.034-3.281
						c-0.542-2.332,0.834-4.644,3.073-5.164S458.156,309.944,458.698,312.276z"/>
					<path style="fill:#FFFFFF;" d="M527.446,302.069c0.542,2.332-0.834,4.644-3.073,5.164c-2.239,0.52-4.493-0.949-5.034-3.281
						c-0.542-2.332,0.834-4.644,3.073-5.164S526.904,299.737,527.446,302.069z"/>
					<path style="fill:#FFFFFF;" d="M555.912,347.815c0.542,2.332-0.834,4.644-3.073,5.164c-2.239,0.52-4.493-0.949-5.034-3.281
						c-0.542-2.332,0.834-4.644,3.073-5.164C553.117,344.013,555.371,345.483,555.912,347.815z"/>
					<path style="fill:#FFFFFF;" d="M495.171,337.314c0.542,2.332-0.834,4.644-3.073,5.164s-4.492-0.949-5.034-3.281
						c-0.542-2.332,0.834-4.644,3.073-5.164C492.376,333.513,494.63,334.982,495.171,337.314z"/>
					<path style="fill:#FFFFFF;" d="M557.381,310.962c1.905-1.45,4.578-1.143,5.97,0.686c1.392,1.829,0.976,4.487-0.929,5.937
						c-1.905,1.45-4.578,1.143-5.97-0.686C555.06,315.07,555.476,312.412,557.381,310.962z"/>
					<path style="fill:#FFFFFF;" d="M597.755,354.851c0.542,2.332-0.834,4.644-3.073,5.164s-4.493-0.949-5.034-3.281
						c-0.542-2.332,0.834-4.644,3.073-5.164C594.959,351.05,597.213,352.519,597.755,354.851z"/>
					<path style="fill:#FFFFFF;" d="M442.445,353.748c0.542,2.332-0.834,4.644-3.073,5.164c-2.239,0.52-4.493-0.949-5.034-3.281
						c-0.542-2.332,0.834-4.644,3.073-5.164S441.904,351.416,442.445,353.748z"/>
					<path style="fill:#FFFFFF;" d="M401.649,382.594c0.542,2.332-0.834,4.644-3.073,5.164c-2.239,0.52-4.492-0.949-5.034-3.281
						c-0.542-2.332,0.834-4.644,3.073-5.164S401.107,380.262,401.649,382.594z"/>
					<path style="fill:#FFFFFF;" d="M360.852,395.21c0.542,2.332-0.834,4.644-3.073,5.164c-2.239,0.52-4.492-0.949-5.034-3.281
						c-0.542-2.332,0.834-4.644,3.073-5.164C358.057,391.409,360.311,392.878,360.852,395.21z"/>
				</g>
			</g>
		</g>
	</g>
	<g id="deliveryman">
		<g>
			<g>
				
					<rect x="1669.133" y="1011.579" transform="matrix(0.2645 -0.9644 0.9644 0.2645 229.6965 2432.0955)" style="fill:#F7B192;" width="80.472" height="107.752"/>
				<g>
					<g>
						<path style="fill:#F7B192;" d="M1640.653,988.347c29.881-0.195,72.756,30.711,72.997,67.733
							c0.241,37.022-42.243,66.142-72.125,66.336c-29.881,0.194-34.668-29.788-34.909-66.81
							C1606.376,1018.584,1610.772,988.542,1640.653,988.347z"/>
						<path style="fill:#F7B192;" d="M1648.583,988.715c0,0-67.257-13.751-89.513-16.914c-22.256-3.163-16.991,18.084,5.742,25.765
							c34.238,11.569,52.274,19.839,63.376,16.458C1639.291,1010.644,1662.83,991.593,1648.583,988.715z"/>
						<path style="fill:#F7B192;" d="M1612.747,1019.005c-6.163,0.218-37.984,1.337-70.659,2.873
							c-37.097,1.743-51.701,5.294-54.697,7.402c-5.988,4.212-6.122,13.918,9.406,14.548c7.608,0.308,13.969-1.15,44.792-1.436
							c32.084-0.298,65.109-0.703,74.85-0.767C1635.537,1041.5,1628.107,1018.462,1612.747,1019.005z"/>
						<path style="fill:#F7B192;" d="M1613.151,1042.23c-13.715,1.948-125.845,20.356-131.207,25.234
							c-5.328,4.846-4.859,15.24,11.455,14.175s101.629-11.326,121.596-13.576S1629.159,1039.956,1613.151,1042.23z"/>
						<path style="fill:#F7B192;" d="M1621.646,1074.957c-13.839,0.63-126.736,7.525-132.967,11.229
							c-6.276,3.73-6.292,14.707,10.05,15.203c16.341,0.497,106.951-2.342,127.042-2.676S1637.797,1074.222,1621.646,1074.957z"/>
						<path style="fill:#F7B192;" d="M1632.845,1103.304c-10.983,0.388-95.269,6.941-100.716,8.786
							c-8.661,2.932-5.109,11.616,7.85,12.141c12.959,0.525,80.007-1.945,95.947-2.049
							C1651.865,1122.078,1645.664,1102.851,1632.845,1103.304z"/>
					</g>
					<path style="fill:#1A1A1A;" d="M1679.053,1063.738c-0.297,1.081-1.243,2.033-2.689,1.723
						c-23.925-5.152-45.362-19.961-58.814-40.631c-0.347-0.532-0.453-1.058-0.316-1.559c0.219-0.799,1.074-1.487,2.035-1.638
						c0.535-0.082,1.539-0.061,2.246,1.025c12.688,19.495,33.111,33.506,56.033,38.439c0.612,0.132,1.057,0.423,1.324,0.862
						C1679.165,1062.443,1679.231,1063.091,1679.053,1063.738z"/>
				</g>
			</g>
			<path style="fill:#CA3442;" d="M1997.047,1100.05c0,0,125.197-319.916,127.875-325.887
				c20.121-44.861,72.799-64.916,117.66-44.795c44.861,20.121,64.917,72.799,44.795,117.66
				c-2.678,5.971-158.332,312.227-158.332,312.227c-15.479,30.789-52.451,43.938-83.895,29.835l-14.591-6.545
				C1999.117,1168.441,1984.348,1132.085,1997.047,1100.05z"/>
			<g>
				<path style="fill:#F2F2F2;" d="M2188.09,2814.621c0,0,7.347-25.86,15.487-36.526l80.037-104.869
					c0,0,10.075-67.845,12.796-88.296c1.267-9.524,9.121-16.652,18.484-16.811l47.753-0.812
					c10.504-0.179,19.153,8.435,19.297,19.219l5.449,147.721c-9.288,28.261-20.133,52.907-32.405,79.942L2188.09,2814.621z"/>
				<path style="fill:#2B2927;" d="M2195.611,2731.64l54.145-30.894l7.477-22.48c36.681-8.666,89.049,6.528,89.049,6.528
					l6.884,31.921c2.257-0.396,4.485-0.92,6.674-1.622c34.073-11.128,23.157-69.521,26.171-69.529
					c1.593-0.004,12.368,33.535,12.368,33.535c5.631,39.734,4.736,135.522,4.736,135.522l-225.273,3.096
					c-0.121-0.931-0.221-1.866-0.276-2.807C2176.493,2796.742,2187.998,2741.615,2195.611,2731.64z"/>
			</g>
			<path style="fill:#5B676B;" d="M2211.346,1502.253c9.506,232.643,25.019,573.377,39.698,634.281
				c21.977,91.187,151.961,31.992,150.643-30.093c-0.473-22.315-8.278-44.523-10.275-66.88
				c-1.764-19.751,62.875-427.767,62.875-427.767l-8.937-102.268L2211.346,1502.253z"/>
			<path style="fill:#5B676B;" d="M2281.914,2634.338c-9.275-88.415-10.394-143.464-16.647-231.88
				c-3.142-44.422-6.283-88.843-9.425-133.265c-4.426-62.584-20.917-153.027-3.527-212.064
				c5.189-17.617,124.111-36.041,139.097-17.568c0,0,16.634,87.087,25.73,126.527c5.986,25.956,3.231,52.222,0.449,77.989
				c-15.118,140.028-21.202,388.025-21.202,388.025L2281.914,2634.338z"/>
			<g>
				<path style="fill:#F2F2F2;" d="M2694.763,2806.995c0,0-7.347-25.86-15.487-36.526l-80.037-104.869
					c0,0-10.075-67.845-12.796-88.296c-1.267-9.524-9.121-16.652-18.484-16.811l-47.753-0.812
					c-10.504-0.178-19.154,8.435-19.297,19.219l-5.449,147.721c9.288,28.261,20.133,52.907,32.405,79.943L2694.763,2806.995z"/>
				<path style="fill:#2B2927;" d="M2687.242,2724.014l-54.145-30.894l-7.477-22.48c-36.681-8.666-89.048,6.528-89.048,6.528
					l-6.884,31.921c-2.257-0.396-4.485-0.92-6.674-1.622c-34.073-11.128-23.156-69.521-26.171-69.529
					c-1.593-0.004-12.368,33.535-12.368,33.535c-5.631,39.734-4.736,135.522-4.736,135.522l225.273,3.095
					c0.121-0.931,0.221-1.866,0.276-2.807C2706.36,2789.116,2694.855,2733.99,2687.242,2724.014z"/>
			</g>
			<path style="fill:#5B676B;" d="M2671.507,1494.627c-9.506,232.643-25.019,573.377-39.698,634.281
				c-21.977,91.187-151.961,31.992-150.643-30.093c0.474-22.315,8.278-44.523,10.275-66.88
				c1.764-19.751-62.875-427.767-62.875-427.767l8.936-102.268L2671.507,1494.627z"/>
			<path style="fill:#5B676B;" d="M2600.939,2626.713c9.275-88.415,10.394-143.464,16.647-231.88
				c3.142-44.422,6.283-88.844,9.425-133.265c4.426-62.584,20.917-153.027,3.527-212.064
				c-5.189-17.617-124.111-36.041-139.097-17.568c0,0-16.634,87.088-25.73,126.527c-5.986,25.956-3.231,52.222-0.449,77.989
				c15.118,140.028,21.201,388.025,21.201,388.025L2600.939,2626.713z"/>
			<path style="fill:#5B676B;" d="M2204.88,1414.137c-0.611,6.943-0.942,90.144-0.942,97.906
				c0,142.659,134.632,120.149,235.444,120.149c100.813,0,235.444,22.51,235.444-120.149c0-7.762-0.331-90.963-0.942-97.906H2204.88
				z"/>
			<polygon style="fill:#142227;" points="2536.338,654.406 2351.007,654.406 2196.371,736.083 2215.313,938.201 2268.675,1433.139 
				2443.672,1433.139 2618.67,1433.139 2672.032,938.201 2690.974,736.083 			"/>
			<g>
				<g>
					
						<rect x="2359.945" y="487.1" transform="matrix(-1 -1.224647e-16 1.224647e-16 -1 4883.9526 1203.2181)" style="fill:#F7B192;" width="164.062" height="229.019"/>
					<path style="fill:#1A1A1A;" d="M2413.947,644.404c-32.348-4.751-46.992-19.927-54.001-36.566V487.099h164.062v116.066
						C2498.827,619.339,2463.217,649.096,2413.947,644.404z"/>
				</g>
				<path style="fill:#F7B192;" d="M2346.378,694.251c0,28.612,97.294,88.839,97.294,88.839s97.294-60.227,97.294-88.839
					C2540.967,665.638,2346.378,665.638,2346.378,694.251z"/>
			</g>
			<g>
				<g>
					<g>
						<path style="fill:#F0B297;" d="M2498.979,526.342c6.23,3.893,14.092,4.642,21.295,3.384s13.877-4.358,20.288-7.706
							c16.922-8.837,33.89-21.251,38.219-39.475c1.448-6.096,1.242-12.916-2.29-18.255c-4.207-6.358-12.556-9.429-20.239-8.808
							s-14.705,4.438-20.486,9.286L2498.979,526.342z"/>
					</g>
					<path style="fill:#F0B297;" d="M2523.407,542.945c21.697-54.621,45.944-83.066,64.514-112.856
						c13.595-22.412,32.323-62.019,14.801-106.922c-16.769-46.231-80.524-88.4-150.033-89.044
						c-69.973-0.75-116.913,26.52-121.706,71.83c-3.604,26.916-10.347,63.632-13.838,91.465
						c-2.909,23.137-16.128,43.319-14.274,67.235c4.35,41.489,32.555,128.468,78.856,142.051
						C2419.565,617.805,2512.612,566.389,2523.407,542.945z"/>
				</g>
				<path style="fill:#F2F2F2;" d="M2424.363,456.926c-0.713,1.019-1.468,1.862-2.293,2.707c-0.833,0.811-1.709,1.721-2.861,1.949
					c-1.097,0.229-2.423-0.549-3.059-2.487c-0.321-0.954-0.401-2.14-0.198-3.413c0.225-1.258,0.749-2.59,1.596-3.781
					c0.861-1.181,1.953-2.095,3.067-2.697c1.135-0.585,2.275-0.872,3.271-0.855c2.018,0.02,3.155,1.059,3.276,2.185
					c0.138,1.18-0.449,2.302-0.957,3.353C2425.664,454.941,2425.103,455.927,2424.363,456.926z"/>
				<path style="fill:#D1785E;" d="M2411.485,457.291c0.047-0.823,0.096-1.558,0.156-2.209c0.072-0.649,0.127-1.217,0.211-1.783
					c0.094-0.581,0.239-1.223,0.475-1.936c0.232-0.711,0.55-1.48,0.89-2.26c0.687-1.563,1.428-3.161,1.757-4.6
					c0.342-1.438,0.284-2.719-0.312-3.665c-0.597-0.942-1.383-1.157-2.411-0.82c-1.023,0.343-2.323,1.239-3.802,2.675
					c-1.452,1.432-3.162,3.499-4.255,6.264c-0.547,1.368-0.87,2.91-0.964,4.401c-0.107,1.504,0.022,2.986,0.251,4.427
					c0.231,1.444,0.603,2.774,1.03,4.02c0.431,1.251,0.942,2.4,1.452,3.423c1.033,2.062,2.092,3.731,3.005,5.013
					c1.856,2.553,3.096,3.647,4.261,2.599c1.092-0.984,1.454-2.481,0.787-5c-0.317-1.256-0.891-2.769-1.483-4.56
					c-0.289-0.894-0.579-1.859-0.786-2.871C2411.554,459.422,2411.44,458.353,2411.485,457.291z"/>
				<g>
					<path style="fill:#1A1A1A;" d="M2467.829,411.233c6.674,0.393,13.259,2.024,19.386,4.722
						c6.13,2.692,11.808,6.471,16.664,11.163c4.819,4.715,0.59,9.769-4.71,6.721c-5.264-3.073-10.588-5.795-16.046-8.214
						c-5.461-2.412-11.053-4.504-16.854-6.312C2460.463,417.459,2461.163,410.887,2467.829,411.233z"/>
					<path style="fill:#1A1A1A;" d="M2390.696,388.05c-5.895-3.149-12.362-5.197-18.998-6.097
						c-6.635-0.905-13.453-0.649-20.049,0.815c-6.577,1.504-5.617,8.019,0.496,8.188c6.096,0.128,12.06,0.588,17.978,1.376
						c5.918,0.795,11.781,1.931,17.671,3.419C2393.716,397.203,2396.56,391.235,2390.696,388.05z"/>
					<g>
						<g>
							<path style="fill:#1A1A1A;" d="M2370.685,434.129l4.296-14.948c2.068-7.194-2.126-14.771-9.32-16.839l0,0
								c-7.194-2.068-14.771,2.126-16.839,9.32l-4.296,14.948C2342.458,433.804,2368.617,441.323,2370.685,434.129z"/>
						</g>
						<g>
							<path style="fill:#1A1A1A;" d="M2460.443,460.462l4.46-14.9c2.146-7.171,9.77-11.281,16.94-9.135l0,0
								c7.171,2.146,11.281,9.77,9.135,16.94l-4.46,14.9C2484.371,475.438,2458.296,467.632,2460.443,460.462z"/>
						</g>
					</g>
				</g>
				<path style="fill:#A33939;" d="M2370.796,496.044c19.561,15.879,47.276,19.596,70.517,10.197
					c3.588-1.451,0.669-6.719-2.885-5.281c-21.35,8.635-46.68,4.402-64.463-10.034c-1.272-1.032-3.353-0.272-4.143,0.975
					C2368.859,493.419,2369.541,495.025,2370.796,496.044L2370.796,496.044z"/>
			</g>
			<g>
				<g>
					<path style="fill:#2C1E1C;" d="M2553.82,406.74c-5.576-2.023-10.845-5.106-15.175-8.856
						c-11.704-10.136-25.347-18.582-29.327-32.583c-5.334-18.769,10.81-37.941-2.289-46.509
						c-20.783-13.594-72.354-5.619-89.175-23.214c-3.561-3.725-6.153-8.145-7.676-12.806c-6.871,5.451-15.809,9.459-24.306,12.827
						c-15.33,6.077-32.355,13.257-37.525,27.793c-3.177,8.933-1.102,18.882-1.193,28.431c-0.172,18.124-36.602,71.677-36.602,71.677
						c-2.964-8.252-1.185-45.193-1.595-57.014c-0.476-13.697,5.482-26.606,6.131-40.235c0.697-14.638-4.752-29.492-3.508-44.069
						c1.418-16.615,12.271-31.711,27.862-39.688c1.294-7.902,3.268-15.655,6.381-23.049c6.625-15.74,19.068-29.864,36.461-35.696
						c15.435-5.175,34.89-2.484,47.487,7.927c31.656-14.35,67.157-25.424,100.089-12.066c29.644,12.025,47.26,40.288,72.129,59.621
						c14.565,11.322,31.652,19.564,46.495,30.574c14.844,11.011,27.916,26.101,29.048,43.029c0.571,8.543-3.096,17.156-9.239,23.2
						c3.802,4.839,6.03,10.907,5.773,16.638c-0.567,12.66-9.507,23.21-19.024,31.992c-9.517,8.783-41.286,14.932-46.954,26.231
						c-6.399,12.759-50.646,75.172-50.646,75.172l4.983-77.125C2559.535,408.514,2556.638,407.763,2553.82,406.74z"/>
				</g>
			</g>
			<g>
				<polygon style="fill:#CA3442;" points="2196.371,1485.227 2203.586,940.695 2183.945,729.206 2351.135,647.005 
					2439.383,1022.766 2532.637,647.943 2703.399,729.206 2683.759,940.694 2683.914,1485.474 2443.672,1492.496 2435.699,1433.139 
					2429.696,1492.311 				"/>
			</g>
			<polygon style="fill:#CA3442;" points="2524.007,609.333 2524.007,682.631 2570.053,682.631 2594.143,625.803 			"/>
			<polygon style="fill:#CA3442;" points="2359.945,611.649 2359.945,684.947 2313.899,684.947 2289.81,628.119 			"/>
			<path style="fill:#CA3442;" d="M2133.696,1144.981c-10.339,39.512-50.751,63.161-90.264,52.822
				c-2.988-0.782-337.556-58.293-337.556-58.293l18.351-130.899c0,0,348.773,33.102,356.646,35.162
				C2120.386,1054.112,2144.036,1105.469,2133.696,1144.981z"/>
			<path style="fill:#CA3442;" d="M2823.071,1111.086c0,0-61.378-319.18-62.841-325.196
				c-10.993-45.199-56.546-72.929-101.746-61.936c-45.199,10.993-72.929,56.546-61.936,101.746
				c1.463,6.017,93.528,317.733,93.528,317.733c9.097,31.309,41.229,49.908,72.91,42.203l14.701-3.576
				C2809.368,1174.355,2829.369,1143.076,2823.071,1111.086z"/>
			<g>
				
					<rect x="2761.878" y="1399.893" transform="matrix(0.9959 -0.0909 0.0909 0.9959 -120.2581 260.412)" style="fill:#F0B297;" width="72.238" height="100.386"/>
				<g>
					<path style="fill:#F0B297;" d="M2823.58,1503.936c0.744-5.97-26.003-43.659-35.726-44.129c0,0-20.087,23.119-32.562,34.147
						c-12.475,11.028-4.898,56.129-3.187,69.943c1.273,10.277,19.953,5.811,24.056-4.212c4.104-10.023,1.935-32.771,1.935-32.771
						S2822.184,1515.14,2823.58,1503.936z"/>
					<g>
						<g>
							<g>
								<path style="fill:#F0B297;" d="M2800.131,1527.821c0,0,33.831,112.859,37.248,137.635
									c3.865,28.016,31.38,31.733,25.805,9.993c-5.575-21.74-32.929-148.02-34.619-153.638S2801.244,1507.682,2800.131,1527.821z"
									/>
							</g>
							<g>
								<path style="fill:#F0B297;" d="M2805.516,1517.455c0,0,42.512,118.506,43.321,144.574
									c0.515,16.594,19.855,31.586,19.426,7.421c-0.229-12.869-11.896-95.717-17.187-140.412
									c-4.108-34.696-28.486-66.911-29.457-70.198C2821.62,1458.84,2805.327,1496.863,2805.516,1517.455z"/>
							</g>
							<g>
								<path style="fill:#F0B297;" d="M2789.107,1452.183c20.88-14.586,32.892,1.97,42.465,27.135
									c9.573,25.164,24.073,148.116,29.99,164.817c5.917,16.701-23.697,8.353-28.24-6.488
									c-4.543-14.842-19.635-74.076-31.265-92.175C2790.425,1527.372,2766.201,1468.185,2789.107,1452.183z"/>
							</g>
						</g>
					</g>
				</g>
			</g>
			<path style="fill:#CA3442;" d="M2737.302,1061.716c-37.311,10.052-59.409,48.448-49.356,85.759
				c0.76,2.821,57.461,318.958,57.461,318.958l122.863-19.707c0,0-43.206-328.219-45.209-335.653
				C2813.009,1073.761,2774.614,1051.663,2737.302,1061.716z"/>
		</g>
	</g>
	<g id="correct_symbol">
		<circle style="fill:#41808B;" cx="1442.172" cy="437.811" r="318.526"/>
		<path style="fill:#FFFFFF;" d="M1661.232,341.11c-6.144-5.641-14.212-9.829-22.799-9.444c-9.074,0.406-15.748,3.819-22.799,9.444
			c-28.023,22.352-56.046,44.704-84.069,67.055c-44.484,35.482-88.969,70.964-133.453,106.447c-1.597,1.274-3.194,2.548-4.792,3.822
			c-29.899-31.226-59.797-62.452-89.696-93.679c-5.226-5.457-10.451-10.915-15.677-16.372c-11.688-12.207-33.994-12.642-45.599,0
			c-12.027,13.102-12.47,32.576,0,45.6c36.48,38.1,72.961,76.201,109.442,114.301c5.225,5.457,10.45,10.915,15.676,16.372
			c5.398,5.638,14.942,9.796,22.799,9.444c9.074-0.406,15.748-3.819,22.8-9.444c28.023-22.352,56.046-44.704,84.068-67.055
			c44.484-35.482,88.969-70.964,133.453-106.446c10.215-8.148,20.431-16.296,30.646-24.444c6.035-4.813,9.444-15.455,9.444-22.8
			C1670.677,356.002,1667.163,346.555,1661.232,341.11z"/>
	</g>
</g>
</svg>
