<svg xmlns="http://www.w3.org/2000/svg" fill="none" viewBox="11.9 11.9 113.11 113.11">
<path d="M123.342 82.0168C130.833 51.7025 112.331 21.0551 82.0167 13.5639C51.7024 6.0728 21.0551 24.5746 13.5639 54.8889C6.07277 85.2032 24.5746 115.851 54.8889 123.342C85.2032 130.833 115.851 112.331 123.342 82.0168Z" fill="#D9D9D9"/>
<mask id="mask0_60_230" style="mask-type:luminance" maskUnits="userSpaceOnUse" x="11" y="11" width="115" height="115">
<path d="M123.342 82.0168C130.833 51.7025 112.331 21.0551 82.0167 13.5639C51.7024 6.0728 21.0551 24.5746 13.5639 54.8889C6.07277 85.2032 24.5746 115.851 54.8889 123.342C85.2032 130.833 115.851 112.331 123.342 82.0168Z" fill="white"/>
</mask>
<g mask="url(#mask0_60_230)">
<path d="M86.4266 63.9846C89.8292 63.9846 92.5876 61.2262 92.5876 57.8236C92.5876 54.421 89.8292 51.6626 86.4266 51.6626C83.024 51.6626 80.2656 54.421 80.2656 57.8236C80.2656 61.2262 83.024 63.9846 86.4266 63.9846Z" fill="#E8B499"/>
<path d="M89.8981 56.8586C89.8981 56.8586 87.4161 55.7346 85.2021 60.0556" stroke="#C47268" stroke-width="0.6887" stroke-miterlimit="10" stroke-linecap="round" stroke-linejoin="round"/>
<path d="M57.7717 57.6495C57.8677 61.0505 55.1887 63.8855 51.7877 63.9825C48.3867 64.0785 45.5506 61.3995 45.4546 57.9985C45.3586 54.5975 48.0377 51.7615 51.4387 51.6655C54.8397 51.5685 57.6757 54.2475 57.7717 57.6495Z" fill="#E8B499"/>
<path d="M48.1143 56.9575C48.1143 56.9575 50.5643 55.7646 52.8993 60.0206" stroke="#C47268" stroke-width="0.6887" stroke-miterlimit="10" stroke-linecap="round" stroke-linejoin="round"/>
<path d="M96.1518 124.667H40.6318L40.7318 95.6965C41.8618 94.9965 43.2018 94.4465 44.5418 94.0165C47.7518 92.9965 50.8918 92.7065 50.8918 92.7065L68.3718 94.4665L85.8518 92.7065C85.8518 92.7065 88.2218 92.9265 90.9418 93.6565C90.9518 93.6565 90.9618 93.6665 90.9718 93.6665C92.6718 94.1165 94.5118 94.7765 96.0018 95.6965L96.1518 124.667Z" fill="#EF758D"/>
<path d="M44.6152 94.0016L65.2142 88.5886H72.3172L90.9452 93.6576C81.4192 102.588 57.7742 109.908 45.6792 94.4166L44.6152 94.0016Z" fill="#E8B499"/>
<path d="M74.9705 70.1206C74.9705 70.1206 72.3045 72.5675 69.8735 73.1685C67.4425 73.7695 65.0755 71.9286 65.0455 71.9066C65.0155 71.8846 62.2025 69.7766 62.2025 69.7766L61.0625 90.0536L61.3775 90.3916C65.5065 94.8256 71.4515 94.8866 75.6155 90.5386L76.2245 89.9026L74.9705 70.1206Z" fill="#E8B499"/>
<path d="M44.612 94.0066L42.212 124.667H22.752C24.782 119.907 27.162 114.177 29.352 108.557C34.282 95.8566 43.642 94.1566 44.542 94.0166C44.592 94.0066 44.612 94.0066 44.612 94.0066Z" fill="#EF758D"/>
<path d="M114.122 124.667H94.1324L90.9424 93.6566C90.9524 93.6566 90.9624 93.6666 90.9724 93.6666C91.6224 93.7466 102.022 95.3765 107.392 108.557C109.792 114.457 112.192 120.147 114.122 124.667Z" fill="#EF758D"/>
<path d="M68.7202 108.651C86.3302 107.906 97.7312 96.9626 97.7312 96.9626C96.5612 92.2486 90.9292 88.5886 90.9292 88.5886C90.9292 88.5886 91.6742 85.5336 89.9042 83.1056C88.1342 80.6776 90.7892 77.1056 93.2972 67.0976C95.8052 57.0896 93.7402 41.1056 87.3972 30.1056C81.0612 19.1166 68.3252 19.9606 68.2992 19.9626C68.2732 19.9606 55.5372 19.1166 49.2012 30.1056C42.8582 41.1056 40.7932 57.0886 43.3012 67.0976C45.8092 77.1056 48.4642 80.6776 46.6942 83.1056C44.9242 85.5346 45.6682 88.5886 45.6682 88.5886C45.6682 88.5886 40.0352 92.2486 38.8662 96.9626C38.8662 96.9626 50.2672 107.905 67.8772 108.651V108.687C68.0192 108.684 68.1582 108.674 68.3002 108.669C68.4422 108.674 68.5802 108.684 68.7232 108.687L68.7202 108.651Z" fill="#28466D"/>
<path d="M87.6291 50.7331C90.1832 40.3563 83.8417 29.8737 73.4649 27.3196C63.0881 24.7655 52.6055 31.107 50.0514 41.4838C47.4973 51.8606 53.8388 62.3432 64.2156 64.8973C74.5924 67.4514 85.075 61.1099 87.6291 50.7331Z" fill="#28466D"/>
<path d="M60.2832 67.0975C60.2832 67.0975 63.7032 78.9465 69.8062 78.8305C74.8232 78.7345 76.2162 67.6865 76.2162 67.6865L60.2832 67.0975Z" fill="#1E0B02"/>
<path d="M85.6516 46.3035C85.6856 52.9685 84.7196 58.7255 83.7476 62.8135C82.7956 66.8155 80.0736 69.6215 76.2186 71.8895L75.5166 72.3025C71.4376 74.7015 66.1526 74.7845 61.9876 72.5125C57.7866 70.2215 54.8386 67.1885 53.9146 62.9045C52.2336 55.1125 52.0106 46.4735 52.0106 46.4735C52.0106 46.4735 50.6056 28.4445 68.7506 28.6795C86.8936 28.9145 85.6516 46.3035 85.6516 46.3035Z" fill="#E8B499"/>
<path d="M67.3721 56.1776V58.8176H69.1521" stroke="#C47268" stroke-width="0.6887" stroke-miterlimit="10" stroke-linecap="round" stroke-linejoin="round"/>
<path d="M55.0479 46.1536L64.6409 45.2886C64.6409 45.2886 63.7819 42.8026 59.9029 43.2066C55.9349 43.6196 55.0479 46.1536 55.0479 46.1536Z" fill="black"/>
<path d="M81.4192 46.1536L71.8262 45.2886C71.8262 45.2886 72.6852 42.8026 76.5642 43.2066C80.5332 43.6196 81.4192 46.1536 81.4192 46.1536Z" fill="black"/>
<path d="M63.0234 61.2526H73.4984C73.4984 61.2526 73.0964 63.9846 68.0734 63.9846C63.9504 63.9846 63.0234 61.2526 63.0234 61.2526Z" fill="white"/>
<path d="M63.5116 52.6226C63.5116 52.6226 61.0296 50.5926 58.8516 52.6226" stroke="#1E0B02" stroke-width="0.9565" stroke-miterlimit="10" stroke-linecap="round" stroke-linejoin="round"/>
<path d="M77.5332 52.6226C77.5332 52.6226 75.5892 50.5406 72.9912 52.6226" stroke="#1E0B02" stroke-width="0.9565" stroke-miterlimit="10" stroke-linecap="round" stroke-linejoin="round"/>
<path opacity="0.23" d="M58.8619 45.9906L65.8929 55.5366C65.8929 55.5366 63.7719 59.5906 60.3939 59.1396L53.2969 49.8266C53.2969 49.8266 55.2169 45.7326 58.8619 45.9906Z" fill="white"/>
<path opacity="0.23" d="M76.1568 45.9906L83.1878 55.5366C83.1878 55.5366 81.0668 59.5906 77.6888 59.1396L70.5918 49.8266C70.5918 49.8266 72.5108 45.7326 76.1568 45.9906Z" fill="white"/>
<path d="M66.4521 52.6226C66.4521 56.4196 63.3741 59.4976 59.5771 59.4976C55.7801 59.4976 52.7021 56.4196 52.7021 52.6226C52.7021 48.8256 55.7801 45.7476 59.5771 45.7476C63.3741 45.7476 66.4521 48.8256 66.4521 52.6226Z" stroke="white" stroke-width="0.4927" stroke-miterlimit="10"/>
<path d="M83.7666 52.6226C83.7666 56.4196 80.6886 59.4976 76.8916 59.4976C73.0946 59.4976 70.0166 56.4196 70.0166 52.6226C70.0166 48.8256 73.0946 45.7476 76.8916 45.7476C80.6886 45.7476 83.7666 48.8256 83.7666 52.6226Z" stroke="white" stroke-width="0.4927" stroke-miterlimit="10"/>
<path d="M66.4521 52.6226C66.4521 52.6226 68.4162 51.8996 70.0152 52.6226" stroke="white" stroke-width="0.4927" stroke-miterlimit="10"/>
<path d="M85.6517 42.2056C83.8067 25.2046 72.4377 25.7076 67.9567 26.5896C63.4767 25.7076 52.1067 25.2046 50.2617 42.2056C50.2617 42.2056 54.4647 41.4046 59.0277 39.0206C64.5987 36.1096 71.3137 36.1096 76.8857 39.0206C81.4487 41.4056 85.6517 42.2056 85.6517 42.2056Z" fill="#28466D"/>
</g>
</svg>